<svg version="1.1" xmlns="http://www.w3.org/2000/svg" viewBox="0 0 1935.6872445745773 617.6325295138547" width="967.843622287" height="308.816264757">
  <!-- svg-source:excalidraw -->
  
  <defs>
    <style class="style-fonts">
      @font-face {
        font-family: "Virgil";
        src: url("https://excalidraw.com/Virgil.woff2");
      }
      @font-face {
        font-family: "Cascadia";
        src: url("https://excalidraw.com/Cascadia.woff2");
      }
      @font-face {
        font-family: "Assistant";
        src: url("https://excalidraw.com/Assistant-Regular.woff2");
      }
    </style>
    
  </defs>
  <rect x="0" y="0" width="1935.6872445745773" height="617.6325295138547" fill="#ffffff"></rect><g stroke-linecap="round" transform="translate(10 141.45119141663156) rotate(0 622.2253296921537 168.5331431102573)"><path d="M32 0 C328.17 2.72, 624.9 1.61, 1212.45 0 M32 0 C318.63 -3.37, 605.8 -3, 1212.45 0 M1212.45 0 C1234.77 -0.36, 1243.82 12.46, 1244.45 32 M1212.45 0 C1233.02 -0.31, 1245.78 9.16, 1244.45 32 M1244.45 32 C1241.11 95.7, 1242.3 159.05, 1244.45 305.07 M1244.45 32 C1245.89 113.23, 1245.79 192.7, 1244.45 305.07 M1244.45 305.07 C1244.73 326.75, 1234.64 338.51, 1212.45 337.07 M1244.45 305.07 C1242.74 326.96, 1231.89 337.65, 1212.45 337.07 M1212.45 337.07 C872.12 333.31, 530.33 334.67, 32 337.07 M1212.45 337.07 C933.09 340.43, 654.59 340.45, 32 337.07 M32 337.07 C10.28 335.34, -0.65 326.46, 0 305.07 M32 337.07 C8.69 337.33, -1.62 325.64, 0 305.07 M0 305.07 C0.11 202.9, 0.27 98.81, 0 32 M0 305.07 C-1.48 199.03, -1.57 93.76, 0 32 M0 32 C-1.18 10.35, 11.89 -1, 32 0 M0 32 C-1.97 11.41, 12.46 -1.78, 32 0" stroke="#1e1e1e" stroke-width="1" fill="none"></path></g><g stroke-linecap="round"><g transform="translate(103.83664436654453 149.98936072490358) rotate(0 0.12482703667069472 166.77724279442367)"><path d="M-0.7 -0.56 C-0.98 55.21, -0.98 278.71, -0.9 334.47 M1.14 1.75 C1.13 57.22, 1.6 277.81, 1.2 332.83" stroke="#1e1e1e" stroke-width="1" fill="none"></path></g></g><mask></mask><g stroke-linecap="round"><g transform="translate(226.25083275960583 146.35085510164197) rotate(0 0.12482703667069472 166.77724279442367)"><path d="M0.12 -0.93 C-0.05 54.7, -0.76 278.44, -0.77 334.31 M-1.28 1.19 C-1.11 56.44, 1.33 277.39, 1.4 332.59" stroke="#1e1e1e" stroke-width="1" fill="none"></path></g></g><mask></mask><g stroke-linecap="round"><g transform="translate(354.7561061108104 144.14557745379386) rotate(0 0.12482703667069472 166.77724279442367)"><path d="M0.79 1.07 C0.72 56.75, 0.51 278.48, 0.33 333.87 M-0.26 0.59 C-0.55 55.91, -0.4 276.23, -0.58 331.91" stroke="#1e1e1e" stroke-width="1" fill="none"></path></g></g><mask></mask><g stroke-linecap="round"><g transform="translate(489.8855342080037 147.9236757636919) rotate(0 0.12482703667069472 166.77724279442367)"><path d="M-0.15 0.95 C-0.04 56.57, 1.08 277.87, 0.96 333.17 M-1.69 0.41 C-1.7 56.25, -0.13 278.96, 0.39 334.5" stroke="#1e1e1e" stroke-width="1" fill="none"></path></g></g><mask></mask><g stroke-linecap="round"><g transform="translate(620.9456009097341 148.70592519349486) rotate(0 0.12482703667069472 166.77724279442367)"><path d="M0.7 -0.86 C0.93 54.99, 0.21 278.75, 0.24 334.29 M-0.39 1.3 C-0.23 56.88, -0.86 277.25, -0.71 332.55" stroke="#1e1e1e" stroke-width="1" fill="none"></path></g></g><mask></mask><g stroke-linecap="round"><g transform="translate(739.9390540666359 149.93755195531173) rotate(0 0.12482703667069472 166.77724279442367)"><path d="M-1.17 0.93 C-1.24 56.28, 0.05 277.35, 0.28 332.8 M0.42 0.37 C0.13 55.81, -0.49 278.17, -0.64 333.94" stroke="#1e1e1e" stroke-width="1" fill="none"></path></g></g><mask></mask><g stroke-linecap="round"><g transform="translate(857.0517798710325 142.40632074284918) rotate(0 0.12482703667069472 166.77724279442367)"><path d="M0.07 -0.72 C0.34 54.83, 0.99 277.38, 0.84 333.29 M-1.35 1.52 C-1.12 57.25, -0.27 279.43, 0.2 334.68" stroke="#1e1e1e" stroke-width="1" fill="none"></path></g></g><mask></mask><g stroke-linecap="round"><g transform="translate(977.9342821828836 138.70311865495398) rotate(0 0.12482703667069472 166.77724279442367)"><path d="M1.01 -0.25 C0.89 55.32, -0.05 277.69, 0 333.2 M0.08 -1.43 C-0.29 54.34, -1.25 278.7, -1.08 334.55" stroke="#1e1e1e" stroke-width="1" fill="none"></path></g></g><mask></mask><g stroke-linecap="round"><g transform="translate(1103.1357999635375 142.5061823721859) rotate(0 0.12482703667069472 166.77724279442367)"><path d="M-0.35 -0.33 C-0.39 55.57, -0.6 278.83, -0.56 334.47 M1.67 -1.55 C2.04 54.1, 2.19 276.76, 1.73 332.83" stroke="#1e1e1e" stroke-width="1" fill="none"></path></g></g><mask></mask><g stroke-linecap="round" transform="translate(457.445105267421 33.966405362467185) rotate(0.35388993675468644 32.18197863341254 286.7364107132079)"><path d="M4.28 3.72 C4.28 3.72, 4.28 3.72, 4.28 3.72 M4.28 3.72 C4.28 3.72, 4.28 3.72, 4.28 3.72 M1.4 13.14 C4.14 9.96, 8.31 4.45, 11.89 1.06 M1.4 13.14 C5.02 9, 7.89 6.41, 11.89 1.06 M-0.18 21.05 C6.01 14.04, 10.2 9.29, 17.54 0.67 M-0.18 21.05 C7.46 14, 13.01 5.63, 17.54 0.67 M0.22 26.69 C8.75 15.84, 17.4 4.37, 23.18 0.28 M0.22 26.69 C6.01 19.4, 11.92 13.06, 23.18 0.28 M-0.04 33.09 C7.84 24.98, 11.28 19.49, 28.17 0.64 M-0.04 33.09 C10.47 21.2, 21.48 6.79, 28.17 0.64 M0.35 38.73 C8.8 29.45, 17.69 21.44, 33.15 1 M0.35 38.73 C13.18 22.99, 26.32 10.07, 33.15 1 M0.09 45.13 C9.06 32.41, 20.51 20.49, 38.8 0.6 M0.09 45.13 C15.96 27.53, 31.37 10.48, 38.8 0.6 M-0.17 51.53 C17.34 33.41, 32.72 12.16, 43.78 0.96 M-0.17 51.53 C14.01 35.76, 26.8 19.28, 43.78 0.96 M0.22 57.17 C18.52 34.44, 40.56 11.3, 48.77 1.32 M0.22 57.17 C10.92 45.52, 21.27 31.5, 48.77 1.32 M-0.04 63.57 C18.43 43.26, 40.35 19.66, 53.76 1.68 M-0.04 63.57 C18.45 41.83, 37.93 19.33, 53.76 1.68 M0.36 69.21 C11.89 53.46, 27.54 39.83, 58.09 2.8 M0.36 69.21 C20.9 46.4, 39.8 23.12, 58.09 2.8 M0.09 75.61 C21.6 52.29, 43.19 26.11, 61.11 5.42 M0.09 75.61 C14.86 57.7, 30.8 40.4, 61.11 5.42 M-0.17 82.01 C12.33 65.28, 27.3 50.77, 63.47 8.8 M-0.17 82.01 C18.09 58.96, 37.77 37.58, 63.47 8.8 M0.23 87.65 C18.58 67.15, 32.88 50.74, 64.52 13.69 M0.23 87.65 C13.86 71.05, 26.78 56.25, 64.52 13.69 M-0.03 94.05 C21.6 71.09, 42.47 47.88, 64.92 19.33 M-0.03 94.05 C17.94 72.82, 36.67 53.55, 64.92 19.33 M0.36 99.69 C17.99 79.27, 38.51 56.7, 64.66 25.73 M0.36 99.69 C19.12 77.5, 38.59 57.11, 64.66 25.73 M0.1 106.09 C15.63 87.52, 33.9 68.14, 65.05 31.37 M0.1 106.09 C20.44 83.1, 41.2 59.32, 65.05 31.37 M-0.16 112.49 C16.96 93.41, 31.13 76.27, 64.79 37.77 M-0.16 112.49 C15.46 93.98, 29.67 76.34, 64.79 37.77 M0.23 118.13 C13.94 101.08, 30.28 81.91, 64.53 44.17 M0.23 118.13 C18.37 96.33, 38.36 72.62, 64.53 44.17 M-0.03 124.53 C16.67 105.72, 32.69 90.18, 64.92 49.81 M-0.03 124.53 C13.84 109.71, 27.63 93.3, 64.92 49.81 M0.37 130.17 C21.24 106.56, 43.44 83.37, 64.66 56.21 M0.37 130.17 C12.51 115.35, 27.1 99.01, 64.66 56.21 M0.1 136.57 C21 114.05, 42.33 87.85, 65.05 61.85 M0.1 136.57 C16.62 117.07, 32.82 98.57, 65.05 61.85 M-0.16 142.97 C22.53 113.05, 47.27 84.77, 64.79 68.25 M-0.16 142.97 C15.62 123.66, 32.33 104.26, 64.79 68.25 M0.24 148.61 C20.63 124.38, 43.4 98.97, 64.53 74.65 M0.24 148.61 C17.26 129.64, 32.96 111.04, 64.53 74.65 M-0.02 155.01 C24.19 129.52, 47.26 103.73, 64.93 80.29 M-0.02 155.01 C19.67 132.88, 37.83 112.02, 64.93 80.29 M0.37 160.65 C16.03 144.28, 28.63 130.69, 64.66 86.69 M0.37 160.65 C23.9 132.96, 45.51 107.94, 64.66 86.69 M0.11 167.05 C14.38 151.66, 30.16 132.52, 65.06 92.33 M0.11 167.05 C15.3 148, 32.03 128.69, 65.06 92.33 M-0.15 173.44 C16.79 151.98, 35.93 128.57, 64.8 98.73 M-0.15 173.44 C23.73 145.17, 48.64 118.83, 64.8 98.73 M0.24 179.09 C27.44 151.78, 49.31 119.4, 64.54 105.13 M0.24 179.09 C21.18 155.91, 41.7 131.81, 64.54 105.13 M-0.02 185.49 C23.55 161.3, 46.17 135.25, 64.93 110.77 M-0.02 185.49 C22.44 158.15, 44.88 132.75, 64.93 110.77 M0.38 191.13 C23.63 166.6, 46.62 139.56, 64.67 117.17 M0.38 191.13 C20.9 166.65, 42.83 143.04, 64.67 117.17 M0.11 197.53 C13.37 180.05, 27.84 163.71, 65.06 122.81 M0.11 197.53 C14.27 181.3, 26.79 166.09, 65.06 122.81 M-0.15 203.92 C26.92 177.15, 49.9 146.25, 64.8 129.21 M-0.15 203.92 C23.24 175.94, 48.85 147.06, 64.8 129.21 M0.25 209.57 C13.25 193.66, 27.88 179.71, 64.54 135.61 M0.25 209.57 C21.45 185.97, 42.04 161.62, 64.54 135.61 M-0.01 215.96 C16.48 195.47, 33.7 177.6, 64.94 141.25 M-0.01 215.96 C12.79 201.51, 26.22 184.73, 64.94 141.25 M0.38 221.61 C13.62 206.3, 29.96 189.89, 64.67 147.65 M0.38 221.61 C19.63 199.16, 40.11 174.6, 64.67 147.65 M0.12 228.01 C22.7 200.89, 46.22 174.21, 65.07 153.29 M0.12 228.01 C16.06 209.91, 30.56 191.95, 65.07 153.29 M-0.14 234.4 C15.58 219.19, 30.99 198.99, 64.81 159.69 M-0.14 234.4 C19.09 213.24, 36.29 194.06, 64.81 159.69 M0.25 240.05 C20.73 216.28, 42.92 193.24, 64.55 166.09 M0.25 240.05 C19.08 216.7, 39.33 192.77, 64.55 166.09 M-0.01 246.44 C15.91 228.87, 30.12 212.13, 64.94 171.73 M-0.01 246.44 C21.48 219.44, 44.49 194.18, 64.94 171.73 M0.39 252.09 C15.98 235.05, 30.96 216.44, 64.68 178.13 M0.39 252.09 C24.69 225.59, 48.99 196.5, 64.68 178.13 M0.12 258.49 C19.41 236.38, 37.74 215.15, 65.07 183.77 M0.12 258.49 C20.85 233.65, 43.31 208.72, 65.07 183.77 M-0.14 264.88 C13.59 245.54, 31.49 229.95, 64.81 190.17 M-0.14 264.88 C23.66 235.94, 49.34 208.19, 64.81 190.17 M0.26 270.53 C19.73 246.66, 42.65 221.93, 64.55 196.56 M0.26 270.53 C17.3 250, 33.66 231.02, 64.55 196.56 M0 276.92 C16.61 256.79, 37.3 236.38, 64.95 202.21 M0 276.92 C23.77 249.58, 46.21 221.89, 64.95 202.21 M0.39 282.57 C13.77 263.79, 32.4 245.36, 64.68 208.61 M0.39 282.57 C16.7 262.49, 34.39 243.46, 64.68 208.61 M0.13 288.96 C24.6 260.94, 48.96 229.73, 65.08 214.25 M0.13 288.96 C12.9 271.93, 26.95 257.13, 65.08 214.25 M-0.13 295.36 C16.64 278.39, 31.95 255.43, 64.82 220.65 M-0.13 295.36 C20.69 272.61, 40.47 249.07, 64.82 220.65 M0.26 301.01 C16.54 284.95, 27 269.73, 64.56 227.04 M0.26 301.01 C18.43 280.27, 35.6 259.68, 64.56 227.04 M0 307.4 C23.42 277.95, 47.95 250.79, 64.95 232.69 M0 307.4 C24.82 278.02, 50.04 249.22, 64.95 232.69 M0.4 313.05 C17.83 292.86, 33.58 273.75, 64.69 239.08 M0.4 313.05 C23.48 285.56, 47.17 259.03, 64.69 239.08 M0.13 319.44 C20.16 296.11, 39.36 274.36, 65.08 244.73 M0.13 319.44 C15.43 303.18, 28.26 287.21, 65.08 244.73 M-0.13 325.84 C15.6 304.04, 35.32 287.15, 64.82 251.13 M-0.13 325.84 C19.66 302.13, 40.63 280.01, 64.82 251.13 M0.27 331.49 C18.72 309.47, 40.36 284.35, 64.56 257.52 M0.27 331.49 C19.89 308.48, 40.54 284.68, 64.56 257.52 M0.01 337.88 C15.02 321.22, 32.24 300.97, 64.96 263.17 M0.01 337.88 C15.12 320.72, 31.42 303.57, 64.96 263.17 M0.4 343.53 C27.14 313.1, 50.74 283.42, 64.69 269.56 M0.4 343.53 C17.05 323.57, 33.1 304.31, 64.69 269.56 M0.14 349.92 C24.41 320.43, 51.86 288.73, 65.09 275.21 M0.14 349.92 C19.53 326.76, 40.97 302.18, 65.09 275.21 M-0.12 356.32 C22.59 330.01, 45.07 306.04, 64.83 281.61 M-0.12 356.32 C19.72 331.32, 40.25 307.63, 64.83 281.61 M0.27 361.96 C14.48 343.74, 26.71 330.83, 64.57 288 M0.27 361.96 C24.54 335.23, 47.86 306.16, 64.57 288 M0.01 368.36 C14.07 352.18, 28.86 334.29, 64.96 293.65 M0.01 368.36 C25.84 339.09, 48.85 310.53, 64.96 293.65 M0.4 374.01 C13.36 357.97, 30.91 341.97, 64.7 300.04 M0.4 374.01 C18.87 352.32, 36.15 331.89, 64.7 300.04 M0.14 380.4 C19.94 357.84, 37.63 333.38, 65.09 305.69 M0.14 380.4 C13.59 363.58, 29.15 348.45, 65.09 305.69 M-0.12 386.8 C25.85 357.23, 50.89 329.98, 64.83 312.08 M-0.12 386.8 C25.07 357.79, 50.71 330.09, 64.83 312.08 M0.28 392.44 C21.81 367.33, 45.56 340.66, 64.57 318.48 M0.28 392.44 C14.71 374.97, 31.29 357.68, 64.57 318.48 M0.01 398.84 C19.98 379.48, 36.81 357.57, 64.96 324.13 M0.01 398.84 C17.35 377.19, 35.57 356.96, 64.96 324.13 M0.41 404.49 C19.56 381, 37.6 362.55, 64.7 330.52 M0.41 404.49 C21.15 380.96, 40.69 358.14, 64.7 330.52 M0.15 410.88 C13.23 397.05, 26.58 381.15, 65.1 336.17 M0.15 410.88 C14.67 395.39, 28.65 380.47, 65.1 336.17 M-0.11 417.28 C11.86 402.18, 27.82 385.79, 64.84 342.56 M-0.11 417.28 C22.88 388.28, 46.33 360.72, 64.84 342.56 M0.28 422.92 C15.03 407.31, 31.6 390.22, 64.58 348.96 M0.28 422.92 C18.06 401.39, 36.25 381.85, 64.58 348.96 M0.02 429.32 C23.62 402.39, 44.01 379.42, 64.97 354.61 M0.02 429.32 C25.46 398.65, 51.84 369.81, 64.97 354.61 M0.41 434.96 C17.76 412.83, 36.51 390.66, 64.71 361 M0.41 434.96 C18.88 415.34, 35.19 394.5, 64.71 361 M0.15 441.36 C25.15 414.64, 51.62 383.18, 64.45 367.4 M0.15 441.36 C15.29 423.12, 28.87 407.26, 64.45 367.4 M-0.11 447.76 C23.56 419.71, 50.34 392.8, 64.84 373.04 M-0.11 447.76 C25.2 419.27, 50.29 392.11, 64.84 373.04 M0.29 453.4 C19.56 430.26, 41.27 404.24, 64.58 379.44 M0.29 453.4 C24.8 425.56, 47.84 398.52, 64.58 379.44 M0.02 459.8 C22.53 435.38, 43.46 412.58, 64.97 385.08 M0.02 459.8 C18.5 438.97, 36.09 417.12, 64.97 385.08 M-0.24 466.2 C22.2 441.68, 43.01 417.41, 64.71 391.48 M-0.24 466.2 C23.66 438.64, 49.25 410.3, 64.71 391.48 M0.16 471.84 C25.71 443.14, 48.35 416.25, 64.45 397.88 M0.16 471.84 C21.83 447.8, 43.67 424.14, 64.45 397.88 M-0.1 478.24 C20.14 459.98, 35.21 439.06, 64.85 403.52 M-0.1 478.24 C16.87 460.44, 33.64 441.62, 64.85 403.52 M0.29 483.88 C19.98 461.7, 37.79 442.27, 64.58 409.92 M0.29 483.88 C18.72 463.43, 37.76 442.14, 64.58 409.92 M0.03 490.28 C15.15 472.2, 27.38 458.65, 64.98 415.56 M0.03 490.28 C17.08 470.12, 32.69 450.46, 64.98 415.56 M-0.23 496.68 C24.82 467.86, 46.26 440.05, 64.72 421.96 M-0.23 496.68 C14.24 481.83, 28.71 463.89, 64.72 421.96 M0.16 502.32 C20.26 481.01, 42.67 458.45, 64.46 428.36 M0.16 502.32 C20.37 478.39, 40.75 454.59, 64.46 428.36 M-0.1 508.72 C14.69 491.99, 33.93 473.11, 64.85 434 M-0.1 508.72 C13.41 493.73, 28.23 477, 64.85 434 M0.3 514.36 C19.2 493.01, 40.46 466.6, 64.59 440.4 M0.3 514.36 C14.36 499.48, 27.04 483.2, 64.59 440.4 M0.03 520.76 C25.01 493.11, 49.3 466.07, 64.98 446.04 M0.03 520.76 C14.61 503.73, 28.58 487.1, 64.98 446.04 M-0.23 527.16 C15.67 510.28, 31.49 492.96, 64.72 452.44 M-0.23 527.16 C23.96 499.07, 50.03 468.71, 64.72 452.44 M0.17 532.8 C12.66 515.19, 27.84 500.33, 64.46 458.84 M0.17 532.8 C16.27 513.39, 33.37 494.95, 64.46 458.84 M-0.09 539.2 C20.94 511.59, 45.49 486.34, 64.86 464.48 M-0.09 539.2 C20.43 515.16, 39.21 492.39, 64.86 464.48 M0.3 544.84 C23.39 519, 42.03 495.63, 64.59 470.88 M0.3 544.84 C13.13 529.97, 25.75 513.17, 64.59 470.88 M0.04 551.24 C24 522.03, 46.42 494.74, 64.99 476.52 M0.04 551.24 C23.62 525.83, 46.64 499.21, 64.99 476.52 M-0.22 557.64 C18.36 538.22, 37.72 516.13, 64.73 482.92 M-0.22 557.64 C25.05 530.04, 49.09 502.13, 64.73 482.92 M1.48 561.77 C15.74 544.81, 27.32 530.78, 64.47 489.32 M1.48 561.77 C20.92 539.96, 37.87 518.39, 64.47 489.32 M2.54 566.66 C22.85 546.03, 41.1 523.1, 64.86 494.96 M2.54 566.66 C25.72 540.03, 47.26 514.83, 64.86 494.96 M5.55 569.28 C22 548.16, 40.91 527.05, 64.6 501.36 M5.55 569.28 C18.04 554.91, 30.52 539.25, 64.6 501.36 M8.57 571.91 C20.71 558.5, 35.76 541.14, 64.99 507 M8.57 571.91 C30.11 548.16, 50.89 522.08, 64.99 507 M12.9 573.02 C26.04 556.41, 41.4 543.39, 64.73 513.4 M12.9 573.02 C24.31 559.46, 36.15 547.79, 64.73 513.4 M18.55 572.63 C37.3 554.18, 55.05 533.37, 64.47 519.8 M18.55 572.63 C34.23 553.35, 50.01 536.25, 64.47 519.8 M23.53 572.99 C38.41 556.4, 56.06 538.7, 64.87 525.44 M23.53 572.99 C36.18 559.27, 45.73 546.14, 64.87 525.44 M28.52 573.35 C39.23 561.06, 51.99 547.61, 64.6 531.84 M28.52 573.35 C43.06 557.36, 57.22 540.62, 64.6 531.84 M34.16 572.95 C43.72 561.06, 55.17 549.08, 65 537.48 M34.16 572.95 C40.51 564.86, 47.22 557.16, 65 537.48 M39.15 573.31 C45.43 565.8, 52.72 556.64, 64.74 543.88 M39.15 573.31 C48.75 562.99, 57 553.39, 64.74 543.88 M44.14 573.67 C51.62 563.27, 57.72 555.97, 64.48 550.28 M44.14 573.67 C50.61 564.87, 56.85 557.66, 64.48 550.28 M49.78 573.28 C54.29 565.15, 60.16 558.96, 64.87 555.92 M49.78 573.28 C54.56 567.92, 57.59 565.09, 64.87 555.92 M55.42 572.88 C57.87 571.31, 58.66 568.76, 63.95 563.07 M55.42 572.88 C58.93 568.78, 62.16 565.57, 63.95 563.07" stroke="#ffc9c9" stroke-width="0.5" fill="none"></path><path d="M16.09 0 C25.87 2.15, 32.48 0.74, 48.27 0 M16.09 0 C28.24 -0.77, 38.96 -0.62, 48.27 0 M48.27 0 C58.24 -0.29, 63.17 5.81, 64.36 16.09 M48.27 0 C61.19 -2.02, 64.9 6.49, 64.36 16.09 M64.36 16.09 C66.98 157.43, 65.83 300.1, 64.36 557.38 M64.36 16.09 C62.37 173.72, 62 332.29, 64.36 557.38 M64.36 557.38 C64.47 568.52, 58.41 573.48, 48.27 573.47 M64.36 557.38 C63.59 566.23, 60.21 575.15, 48.27 573.47 M48.27 573.47 C33.97 574.22, 22.34 574.83, 16.09 573.47 M48.27 573.47 C39.48 573.85, 28.92 573.79, 16.09 573.47 M16.09 573.47 C5 573.8, 0.75 568.93, 0 557.38 M16.09 573.47 C5.71 571.34, 0.58 568.82, 0 557.38 M0 557.38 C0.12 424.47, 1.42 292.41, 0 16.09 M0 557.38 C0.18 443.22, 0.68 328.98, 0 16.09 M0 16.09 C0.88 4.66, 5.8 0.51, 16.09 0 M0 16.09 C-2 5.06, 6.91 -0.11, 16.09 0" stroke="#1e1e1e" stroke-width="1" fill="none"></path></g><g mask="url(#mask-jdZJQ5Qou0xk9N0aUb864)" stroke-linecap="round"><g transform="translate(537.5689877848051 541.3554078971479) rotate(0 420.0838955556193 0.009676695823827686)"><path d="M-1.02 -0.56 C139.14 -0.62, 700.56 -0.33, 840.8 -0.41 M0.64 1.76 C140.71 1.87, 700.32 1.24, 840.18 0.9" stroke="#1e1e1e" stroke-width="1" fill="none"></path></g><g transform="translate(537.5689877848051 541.3554078971479) rotate(0 420.0838955556193 0.009676695823827686)"><path d="M816.71 9.49 C822.48 8.29, 829.39 5.22, 840.18 0.9 M816.71 9.49 C820.68 8.74, 825.55 5.95, 840.18 0.9" stroke="#1e1e1e" stroke-width="1" fill="none"></path></g><g transform="translate(537.5689877848051 541.3554078971479) rotate(0 420.0838955556193 0.009676695823827686)"><path d="M816.68 -7.61 C822.45 -3.93, 829.38 -2.12, 840.18 0.9 M816.68 -7.61 C820.76 -4.77, 825.63 -3.95, 840.18 0.9" stroke="#1e1e1e" stroke-width="1" fill="none"></path></g></g><mask id="mask-jdZJQ5Qou0xk9N0aUb864"><rect x="0" y="0" fill="#fff" width="1477.7367788960437" height="641.3747612887955"></rect><rect x="905.8429162994087" y="528.8650845929717" fill="#000" width="103.61993408203125" height="25" opacity="1"></rect></mask><g transform="translate(905.8429162994089 528.8650845929717) rotate(0 51.614311377704325 13.093268016263835)"><text x="51.809967041015625" y="0" font-family="Virgil, Segoe UI Emoji" font-size="20px" fill="#1e1e1e" text-anchor="middle" style="white-space: pre;" direction="ltr" dominant-baseline="text-before-edge">read data</text></g><g mask="url(#mask-r22ikGo9ycmW8SPh2BmnE)" stroke-linecap="round"><g transform="translate(1252.4451049951324 86.57722609621715) rotate(0 -366.9706833055784 0.47018183812599545)"><path d="M1.17 -0.29 C-120.94 -0.24, -610.61 -0.29, -733.06 -0.1 M0.32 -1.49 C-121.83 -1.29, -611.14 0.28, -733.54 0.9" stroke="#1e1e1e" stroke-width="1" fill="none"></path></g><g transform="translate(1252.4451049951324 86.57722609621715) rotate(0 -366.9706833055784 0.47018183812599545)"><path d="M-710.09 -7.75 C-716.86 -3.74, -724.35 -2.23, -733.54 0.9 M-710.09 -7.75 C-716.53 -4.75, -724.81 -1.81, -733.54 0.9" stroke="#1e1e1e" stroke-width="1" fill="none"></path></g><g transform="translate(1252.4451049951324 86.57722609621715) rotate(0 -366.9706833055784 0.47018183812599545)"><path d="M-710.02 9.35 C-716.75 8.8, -724.26 5.76, -733.54 0.9 M-710.02 9.35 C-716.37 7.29, -724.67 5.18, -733.54 0.9" stroke="#1e1e1e" stroke-width="1" fill="none"></path></g></g><mask id="mask-r22ikGo9ycmW8SPh2BmnE"><rect x="0" y="0" fill="#fff" width="2086.386471606289" height="187.51758977246914"></rect><rect x="800.7945129371124" y="74.54740793434325" fill="#000" width="169.3598175048828" height="25" opacity="1"></rect></mask><g transform="translate(800.7945129371126 74.54740793434325) rotate(0 85.4629306788604 11.731623284844545)"><text x="84.6799087524414" y="0" font-family="Virgil, Segoe UI Emoji" font-size="20px" fill="#1e1e1e" text-anchor="middle" style="white-space: pre;" direction="ltr" dominant-baseline="text-before-edge">offset committed</text></g><g stroke-linecap="round" transform="translate(1330.4370375069495 51.95020612378062) rotate(0 297.6251035338139 274.92738736586864)"><path d="M32 0 C208.01 -0.4, 383.65 -1.3, 563.25 0 M32 0 C155.89 -0.84, 280.35 -0.32, 563.25 0 M563.25 0 C582.65 -0.71, 594.1 11.65, 595.25 32 M563.25 0 C583.65 1.17, 596.21 10.19, 595.25 32 M595.25 32 C596.13 180.21, 595.32 327.53, 595.25 517.85 M595.25 32 C595.01 142.28, 595.04 252.08, 595.25 517.85 M595.25 517.85 C594.61 537.21, 585.58 550.6, 563.25 549.85 M595.25 517.85 C594.71 537.59, 586 548.31, 563.25 549.85 M563.25 549.85 C452.4 548.56, 340.7 548.46, 32 549.85 M563.25 549.85 C421.1 551.37, 279.31 550.87, 32 549.85 M32 549.85 C9.4 548.02, 1.02 538.51, 0 517.85 M32 549.85 C8.44 551.04, 0.47 540.86, 0 517.85 M0 517.85 C-0.41 380.16, 0.93 243.07, 0 32 M0 517.85 C-1.66 345.41, -1.43 172.62, 0 32 M0 32 C0.79 9.01, 10.06 -0.13, 32 0 M0 32 C0.4 9.22, 8.64 0.53, 32 0" stroke="#1e1e1e" stroke-width="1" fill="none"></path></g><g stroke-linecap="round" transform="translate(1378.736778896044 474.32328920501277) rotate(0 250.63188512853935 40.38570726417538)"><path d="M20.19 0 C160.58 -1.72, 302.71 -0.94, 481.07 0 M20.19 0 C155.96 1.6, 291.98 1.4, 481.07 0 M481.07 0 C493.46 -1.36, 499.82 7.07, 501.26 20.19 M481.07 0 C495.46 -1.68, 501.18 4.48, 501.26 20.19 M501.26 20.19 C502.58 31.72, 500.09 46.67, 501.26 60.58 M501.26 20.19 C501.36 34.46, 501.27 50.73, 501.26 60.58 M501.26 60.58 C502.52 74.28, 492.63 82.62, 481.07 80.77 M501.26 60.58 C499.81 75.53, 493.62 81.9, 481.07 80.77 M481.07 80.77 C317.37 83.09, 153.64 82.03, 20.19 80.77 M481.07 80.77 C321.76 80.85, 162.94 80.57, 20.19 80.77 M20.19 80.77 C5.62 79.04, -0.3 72.4, 0 60.58 M20.19 80.77 C6.45 81.34, 0.68 75.12, 0 60.58 M0 60.58 C-1.74 45.43, -0.56 34.3, 0 20.19 M0 60.58 C0.8 48.05, 0.41 36.87, 0 20.19 M0 20.19 C1.1 6.8, 6.46 -1.48, 20.19 0 M0 20.19 C0.62 7.69, 4.83 1.59, 20.19 0" stroke="#1e1e1e" stroke-width="1" fill="none"></path></g><g stroke-linecap="round" transform="translate(1377.417773208557 343.1175909604997) rotate(0 250.63188512853935 40.7060966582967)"><path d="M20.35 0 C126.48 -0.06, 233.03 -0.37, 480.91 0 M20.35 0 C138.19 0.11, 256.18 -0.22, 480.91 0 M480.91 0 C494.41 1.88, 500.33 6.7, 501.26 20.35 M480.91 0 C492.72 1.16, 501.59 8.96, 501.26 20.35 M501.26 20.35 C499.99 30.73, 500.09 40.63, 501.26 61.06 M501.26 20.35 C500.56 28.41, 501.52 38.05, 501.26 61.06 M501.26 61.06 C501.64 73.55, 494.27 80.37, 480.91 81.41 M501.26 61.06 C499.65 74.31, 493.96 81.37, 480.91 81.41 M480.91 81.41 C366.96 82.12, 252.97 82.97, 20.35 81.41 M480.91 81.41 C323.07 80, 165.12 79.35, 20.35 81.41 M20.35 81.41 C5.19 81.61, 1.29 74.78, 0 61.06 M20.35 81.41 C5.11 80.84, 2.05 73.24, 0 61.06 M0 61.06 C0.88 46.44, -0.39 31.39, 0 20.35 M0 61.06 C-1.08 46.15, 0.4 29.68, 0 20.35 M0 20.35 C-1.09 7.8, 7.5 0.14, 20.35 0 M0 20.35 C-1.71 6.33, 7.92 1.69, 20.35 0" stroke="#1e1e1e" stroke-width="1" fill="none"></path></g><g transform="translate(1567.558719871751 502.20899646918815) rotate(0 61.80994415283203 12.5)"><text x="61.80994415283203" y="0" font-family="Virgil, Segoe UI Emoji" font-size="20px" fill="#1e1e1e" text-anchor="middle" style="white-space: pre;" direction="ltr" dominant-baseline="text-before-edge">consumer #4</text></g><g stroke-linecap="round" transform="translate(1374.796405438474 212.09913327099298) rotate(0 250.63188512853935 40.7060966582967)"><path d="M20.35 0 C134.04 0.45, 247 1.08, 480.91 0 M20.35 0 C177.56 -0.31, 334.15 0.42, 480.91 0 M480.91 0 C495.08 1.74, 499.44 7.44, 501.26 20.35 M480.91 0 C492.67 -0.52, 501.82 8.46, 501.26 20.35 M501.26 20.35 C502.61 34.16, 499.64 49.86, 501.26 61.06 M501.26 20.35 C500.93 35.95, 501.42 51.12, 501.26 61.06 M501.26 61.06 C499.57 75.02, 495.44 79.44, 480.91 81.41 M501.26 61.06 C500.6 73.92, 494.32 81.27, 480.91 81.41 M480.91 81.41 C301.68 81.44, 124.05 80.79, 20.35 81.41 M480.91 81.41 C332.74 79.6, 185.12 79.73, 20.35 81.41 M20.35 81.41 C8.68 82.36, 0.7 76.31, 0 61.06 M20.35 81.41 C7.32 80.29, -2.16 75.74, 0 61.06 M0 61.06 C0.44 49.38, -1.04 39.08, 0 20.35 M0 61.06 C-0.04 48.39, -1.29 35.58, 0 20.35 M0 20.35 C0.4 5.15, 7.56 0.64, 20.35 0 M0 20.35 C0.58 7.07, 5.7 -2.24, 20.35 0" stroke="#1e1e1e" stroke-width="1" fill="none"></path></g><g stroke-linecap="round" transform="translate(1377.1597973327714 82.98636834132458) rotate(0 250.63188512853935 40.7060966582967)"><path d="M20.35 0 C188.34 -0.25, 355.05 0.62, 480.91 0 M20.35 0 C129 0.65, 237.04 0.36, 480.91 0 M480.91 0 C494.46 -1.57, 499.27 5.8, 501.26 20.35 M480.91 0 C495.96 1.95, 501.74 8.82, 501.26 20.35 M501.26 20.35 C499.58 32.33, 503.07 48.25, 501.26 61.06 M501.26 20.35 C501.6 32.57, 500.32 45.34, 501.26 61.06 M501.26 61.06 C499.97 76.35, 496.41 82.14, 480.91 81.41 M501.26 61.06 C501.66 76.57, 493.48 81.34, 480.91 81.41 M480.91 81.41 C365.41 80.1, 248.55 80.56, 20.35 81.41 M480.91 81.41 C342.57 79.97, 203.11 79.86, 20.35 81.41 M20.35 81.41 C8.52 81.71, -1.73 76.34, 0 61.06 M20.35 81.41 C8.85 81.36, 0.41 72.46, 0 61.06 M0 61.06 C-1.6 52.98, -0.69 43.15, 0 20.35 M0 61.06 C-0.22 46.25, 0.72 31.28, 0 20.35 M0 20.35 C-1.72 4.94, 5.31 1.31, 20.35 0 M0 20.35 C-2.09 7.25, 7.23 -2.22, 20.35 0" stroke="#1e1e1e" stroke-width="1" fill="none"></path></g><g transform="translate(1562.898345193478 240.30522992928968) rotate(0 62.529945373535156 12.5)"><text x="62.529945373535156" y="0" font-family="Virgil, Segoe UI Emoji" font-size="20px" fill="#1e1e1e" text-anchor="middle" style="white-space: pre;" direction="ltr" dominant-baseline="text-before-edge">consumer #2</text></g><g transform="translate(1568.2575077718586 120.3471004168482) rotate(0 58.11994934082031 12.5)"><text x="0" y="0" font-family="Virgil, Segoe UI Emoji" font-size="20px" fill="#1e1e1e" text-anchor="start" style="white-space: pre;" direction="ltr" dominant-baseline="text-before-edge">consumer #1</text></g><g transform="translate(1580.2575468971306 376.6752593187912) rotate(0 62.219947814941406 12.5)"><text x="0" y="0" font-family="Virgil, Segoe UI Emoji" font-size="20px" fill="#1e1e1e" text-anchor="start" style="white-space: pre;" direction="ltr" dominant-baseline="text-before-edge">consumer #3</text></g><g transform="translate(1355.7269951364221 10) rotate(0 69.6499252319336 12.5)"><text x="0" y="0" font-family="Virgil, Segoe UI Emoji" font-size="20px" fill="#1e1e1e" text-anchor="start" style="white-space: pre;" direction="ltr" dominant-baseline="text-before-edge">Cosumer group</text></g></svg>