<svg version="1.1" xmlns="http://www.w3.org/2000/svg" viewBox="0 0 1570.418015369979 738.1977876413273" width="785.209007685" height="369.098893821">
  <!-- svg-source:excalidraw -->
  
  <defs>
    <style class="style-fonts">
      @font-face {
        font-family: "Virgil";
        src: url("https://excalidraw.com/Virgil.woff2");
      }
      @font-face {
        font-family: "Cascadia";
        src: url("https://excalidraw.com/Cascadia.woff2");
      }
      @font-face {
        font-family: "Assistant";
        src: url("https://excalidraw.com/Assistant-Regular.woff2");
      }
    </style>
    
  </defs>
  <rect x="0" y="0" width="1570.418015369979" height="738.1977876413273" fill="#ffffff"></rect><g stroke-linecap="round" transform="translate(10 60.63041124773645) rotate(0 220.09370474257776 333.7836881967954)"><path d="M32 0 C163.38 0.74, 295.07 2.53, 408.19 0 M32 0 C180.86 -1.79, 328.3 -1.95, 408.19 0 M408.19 0 C428.09 -0.87, 442.17 9.92, 440.19 32 M408.19 0 C430.02 1.37, 442.41 12.2, 440.19 32 M440.19 32 C441.62 238.92, 443.08 446.14, 440.19 635.57 M440.19 32 C438.43 229.53, 438.43 427.43, 440.19 635.57 M440.19 635.57 C439.41 656.72, 429.8 666.63, 408.19 667.57 M440.19 635.57 C438.21 655.31, 429.71 667.52, 408.19 667.57 M408.19 667.57 C291.61 665.76, 176.02 665.88, 32 667.57 M408.19 667.57 C278.19 667.95, 147.89 669.05, 32 667.57 M32 667.57 C11.59 666.43, 0.24 655.09, 0 635.57 M32 667.57 C9.74 665.46, 1.54 658.92, 0 635.57 M0 635.57 C-0.29 502.97, 0.16 370.55, 0 32 M0 635.57 C1.21 498.65, 1.36 362.27, 0 32 M0 32 C-0.34 9.74, 10.92 0.55, 32 0 M0 32 C2.18 11.83, 8.78 1.45, 32 0" stroke="#1e1e1e" stroke-width="2" fill="none"></path></g><g stroke-linecap="round" transform="translate(563.1065612187122 52.612309655078434) rotate(0 220.09370474257776 336.66763535695156)"><path d="M32 0 C164.7 1.13, 296.25 -0.06, 408.19 0 M32 0 C121.31 0.93, 211.01 0.67, 408.19 0 M408.19 0 C431.09 1.07, 441.12 9.08, 440.19 32 M408.19 0 C431.17 2.21, 438.28 9.38, 440.19 32 M440.19 32 C442.05 213.36, 442.59 394.68, 440.19 641.34 M440.19 32 C439.8 272.27, 439.34 512.52, 440.19 641.34 M440.19 641.34 C441.82 664.64, 429.26 671.75, 408.19 673.34 M440.19 641.34 C441.87 663.8, 431.72 672.38, 408.19 673.34 M408.19 673.34 C329.82 672.63, 252.96 672.82, 32 673.34 M408.19 673.34 C287.54 674.08, 166.19 674.51, 32 673.34 M32 673.34 C10.59 672.52, 0.06 664.33, 0 641.34 M32 673.34 C11.52 673.86, -1.65 662.28, 0 641.34 M0 641.34 C1.51 430.54, 1.42 221.79, 0 32 M0 641.34 C0.34 459.36, 0.28 276.89, 0 32 M0 32 C-0.54 12.66, 11.91 -1.3, 32 0 M0 32 C0.94 10.98, 12.82 2.04, 32 0" stroke="#1e1e1e" stroke-width="2" fill="none"></path></g><g stroke-linecap="round" transform="translate(1120.2306058848235 46.975050936074695) rotate(0 220.09370474257776 336.24631797347195)"><path d="M32 0 C167.75 -0.9, 303.55 -1.28, 408.19 0 M32 0 C159.02 0.79, 286.06 -0.06, 408.19 0 M408.19 0 C430.68 -1.98, 441.88 9.2, 440.19 32 M408.19 0 C428.62 0.24, 440.75 11.91, 440.19 32 M440.19 32 C440.57 156.06, 439.83 278.79, 440.19 640.49 M440.19 32 C440.83 231.47, 441.4 430.44, 440.19 640.49 M440.19 640.49 C441.07 660.35, 427.62 673.95, 408.19 672.49 M440.19 640.49 C441.25 659.85, 430.9 671.21, 408.19 672.49 M408.19 672.49 C262.98 672.43, 117.98 670.72, 32 672.49 M408.19 672.49 C320.77 673.42, 233.19 674.4, 32 672.49 M32 672.49 C11.66 673.97, -0.79 660.69, 0 640.49 M32 672.49 C12.42 674.02, 1.41 662.08, 0 640.49 M0 640.49 C-1.54 467.11, -2.63 294.94, 0 32 M0 640.49 C-1.94 465.18, -1.66 289.97, 0 32 M0 32 C1.4 8.81, 8.75 -1.65, 32 0 M0 32 C-0.8 9.68, 10.94 -1.19, 32 0" stroke="#1e1e1e" stroke-width="2" fill="none"></path></g><g transform="translate(771.6302738958602 376.7799450120301) rotate(0 11.569992065429688 12.5)"><text x="11.569992065429688" y="0" font-family="Virgil, Segoe UI Emoji" font-size="20px" fill="#1e1e1e" text-anchor="middle" style="white-space: pre;" direction="ltr" dominant-baseline="text-before-edge">Br</text></g><g stroke-linecap="round" transform="translate(80.65965345665245 128.3443808625425) rotate(0 717.2953406215629 53.76592792464703)"><path d="M4.07 10.17 C4.07 10.17, 4.07 10.17, 4.07 10.17 M4.07 10.17 C4.07 10.17, 4.07 10.17, 4.07 10.17 M0.27 26.73 C7.27 19.38, 13.49 11.96, 19.29 4.85 M0.27 26.73 C7.22 20.62, 11.78 12.64, 19.29 4.85 M0.4 38.78 C10.63 28.02, 22.37 13.83, 31.24 3.3 M0.4 38.78 C10.57 25.97, 22.76 14.35, 31.24 3.3 M-0.12 51.57 C8.7 41.68, 19.39 29.6, 41.87 3.27 M-0.12 51.57 C16.34 32.84, 33.7 13.55, 41.87 3.27 M0.01 63.61 C13.41 47.93, 26.97 31.06, 52.5 3.23 M0.01 63.61 C20.28 39.84, 39.63 17.45, 52.5 3.23 M0.15 75.65 C25.1 46.72, 45.06 21.22, 62.47 3.96 M0.15 75.65 C23.05 49.51, 46.42 23.61, 62.47 3.96 M3.56 83.92 C28.23 52.79, 57.91 20.76, 73.1 3.92 M3.56 83.92 C17.17 68.93, 31.27 51.21, 73.1 3.92 M4.35 95.21 C31.62 61.36, 60.95 28.08, 83.73 3.89 M4.35 95.21 C31.32 64.66, 57.25 33.86, 83.73 3.89 M8.42 102.72 C34.23 74.54, 60.14 43.08, 94.36 3.85 M8.42 102.72 C34.24 72.83, 60.27 43.32, 94.36 3.85 M15.77 106.46 C44.63 74.9, 73.12 39.74, 104.99 3.82 M15.77 106.46 C50.88 68.21, 83.04 29.29, 104.99 3.82 M25.09 107.93 C52.27 75.85, 77.26 45.57, 115.62 3.78 M25.09 107.93 C45.2 86.26, 63.68 65.29, 115.62 3.78 M31.78 112.43 C51.08 90.82, 69.78 69.44, 126.25 3.75 M31.78 112.43 C54.79 85.07, 78.8 58.4, 126.25 3.75 M42.41 112.39 C66.06 86.54, 93.33 57.57, 136.88 3.71 M42.41 112.39 C71.33 79.13, 101.98 45.29, 136.88 3.71 M53.04 112.36 C88.38 71.08, 126.62 29.94, 147.51 3.68 M53.04 112.36 C79.72 82.98, 105.74 52.8, 147.51 3.68 M63.67 112.32 C94.09 75.19, 128.05 38.82, 158.14 3.64 M63.67 112.32 C83.48 88.38, 104 66.61, 158.14 3.64 M74.3 112.29 C98.8 83.05, 126.41 55.03, 168.77 3.61 M74.3 112.29 C104.15 80.64, 132.62 47.48, 168.77 3.61 M84.93 112.25 C122.09 69, 157.79 30.07, 179.4 3.58 M84.93 112.25 C117.65 74.85, 150.33 35.83, 179.4 3.58 M95.56 112.22 C115.96 84.74, 139.53 58.68, 190.03 3.54 M95.56 112.22 C125.67 77.62, 155.06 45.01, 190.03 3.54 M106.19 112.18 C124.39 91.38, 144.33 68.72, 200.66 3.51 M106.19 112.18 C127.13 89.75, 145.79 66.85, 200.66 3.51 M116.82 112.15 C150.38 73.27, 182.96 37.75, 211.29 3.47 M116.82 112.15 C138.47 87.57, 160.04 62.1, 211.29 3.47 M127.45 112.12 C154.15 80.19, 181.9 46.92, 221.92 3.44 M127.45 112.12 C155.49 78.89, 182.21 48.7, 221.92 3.44 M138.08 112.08 C157.85 88.43, 176.65 67.52, 232.55 3.4 M138.08 112.08 C165.48 78.66, 195.9 44.72, 232.55 3.4 M148.71 112.05 C174.01 81.72, 204.68 47.33, 243.18 3.37 M148.71 112.05 C179.02 74, 212.82 36.58, 243.18 3.37 M159.34 112.01 C183.73 82.69, 213.15 53.34, 253.81 3.33 M159.34 112.01 C190.82 76.72, 221.17 42.05, 253.81 3.33 M169.97 111.98 C201.1 78.03, 232.02 42.34, 264.44 3.3 M169.97 111.98 C201.59 74.65, 233.54 39.02, 264.44 3.3 M180.6 111.94 C201.93 88.98, 221.47 64.25, 275.07 3.27 M180.6 111.94 C218.65 68.35, 255 24.72, 275.07 3.27 M191.23 111.91 C212.54 88.5, 234.42 62.56, 285.7 3.23 M191.23 111.91 C221.05 77.73, 250.54 45.17, 285.7 3.23 M201.86 111.87 C236.43 72.61, 268.62 37.01, 295.68 3.95 M201.86 111.87 C239.45 68.23, 276.54 25.59, 295.68 3.95 M212.49 111.84 C249.85 70.89, 285.22 27.26, 306.31 3.92 M212.49 111.84 C238.86 81.25, 263.66 50.75, 306.31 3.92 M223.12 111.81 C252.85 78.67, 282.73 44.91, 316.94 3.88 M223.12 111.81 C253.72 78.49, 281.46 46.43, 316.94 3.88 M233.75 111.77 C260.54 84.08, 283.04 53.97, 327.57 3.85 M233.75 111.77 C265.99 74.19, 297.01 37.15, 327.57 3.85 M244.38 111.74 C270.02 83.36, 297.73 49.94, 338.2 3.81 M244.38 111.74 C268.89 84.73, 293.14 57.93, 338.2 3.81 M255.01 111.7 C281.53 81.09, 311.42 46, 348.83 3.78 M255.01 111.7 C277.26 88.64, 296.65 63.98, 348.83 3.78 M264.99 112.42 C298.29 74.39, 330.89 37.48, 359.46 3.74 M264.99 112.42 C291.01 80.91, 318.88 48.67, 359.46 3.74 M275.62 112.39 C309.1 73.22, 346.22 34.75, 370.09 3.71 M275.62 112.39 C299.3 83.49, 323.37 55.75, 370.09 3.71 M286.25 112.35 C313.31 80.84, 338.03 50.64, 380.72 3.67 M286.25 112.35 C307.88 88.87, 327.18 65.53, 380.72 3.67 M296.88 112.32 C325.88 78.11, 350.96 45.94, 391.35 3.64 M296.88 112.32 C320.85 85.87, 343.44 59.9, 391.35 3.64 M307.51 112.28 C329.05 89.2, 351.02 62.13, 401.98 3.61 M307.51 112.28 C338.58 73.37, 371.78 34.7, 401.98 3.61 M318.14 112.25 C341.05 84.49, 368.14 55.39, 412.61 3.57 M318.14 112.25 C356.48 70.75, 391.39 29.03, 412.61 3.57 M328.77 112.22 C363.75 73.26, 397.33 32.51, 423.24 3.54 M328.77 112.22 C363.65 71.87, 397.83 32.56, 423.24 3.54 M339.4 112.18 C367.15 78.01, 397.44 47.25, 433.87 3.5 M339.4 112.18 C373.06 73.06, 407.46 34.38, 433.87 3.5 M350.03 112.15 C378.74 77.09, 406.29 46.1, 444.5 3.47 M350.03 112.15 C373.52 86.46, 396.92 58.85, 444.5 3.47 M360.66 112.11 C397.8 67.65, 433.67 24.15, 455.13 3.43 M360.66 112.11 C381.43 87.25, 401.87 62.5, 455.13 3.43 M371.29 112.08 C393.99 85.31, 418.07 58.87, 465.76 3.4 M371.29 112.08 C403.51 75.97, 434.2 40.65, 465.76 3.4 M381.92 112.04 C403.68 83.47, 427.82 58.71, 476.39 3.36 M381.92 112.04 C413.95 75.49, 445.54 39.18, 476.39 3.36 M392.55 112.01 C412.22 89.56, 432.12 63.86, 487.02 3.33 M392.55 112.01 C418.92 82.43, 446.82 51.6, 487.02 3.33 M403.18 111.97 C424.14 85.81, 449.15 58.07, 497.65 3.3 M403.18 111.97 C425.05 88.02, 446.12 64.48, 497.65 3.3 M413.81 111.94 C435.91 84.91, 459.17 57.84, 508.28 3.26 M413.81 111.94 C442.82 78.95, 471.27 47.36, 508.28 3.26 M424.44 111.9 C454.16 75.93, 486.81 40.9, 518.91 3.23 M424.44 111.9 C451.25 79.7, 479.14 47.41, 518.91 3.23 M435.07 111.87 C471.46 70.35, 509.04 26.08, 528.88 3.95 M435.07 111.87 C463.65 78.64, 495.03 43.68, 528.88 3.95 M445.7 111.84 C477.93 78.64, 508.97 40.88, 539.51 3.91 M445.7 111.84 C480.6 71.74, 515.03 32.1, 539.51 3.91 M456.33 111.8 C489.84 74.81, 518.68 38.66, 550.14 3.88 M456.33 111.8 C475.65 88.11, 494.96 65.12, 550.14 3.88 M466.96 111.77 C507.13 67.86, 543.67 27.78, 560.77 3.84 M466.96 111.77 C495.92 78.07, 525.98 43.74, 560.77 3.84 M477.59 111.73 C513.67 72.37, 547.89 34.9, 571.4 3.81 M477.59 111.73 C513.28 71.59, 546.6 31.94, 571.4 3.81 M488.22 111.7 C506.85 88.73, 528.28 65.67, 582.03 3.77 M488.22 111.7 C508.28 86.76, 528.79 64.11, 582.03 3.77 M498.19 112.42 C535.53 70.31, 568.81 30.39, 592.66 3.74 M498.19 112.42 C528.67 76.32, 561.41 39.28, 592.66 3.74 M508.82 112.38 C543.46 72.1, 577.74 35.02, 603.29 3.71 M508.82 112.38 C529.06 89.72, 547.14 65.75, 603.29 3.71 M519.45 112.35 C544.95 79.65, 573.19 49.65, 613.92 3.67 M519.45 112.35 C557.52 71.86, 593.68 29.12, 613.92 3.67 M530.08 112.31 C561.71 76.45, 592.98 39.75, 624.55 3.64 M530.08 112.31 C554.27 85.81, 578.41 57.44, 624.55 3.64 M540.71 112.28 C561.28 84.85, 585.71 60.37, 635.18 3.6 M540.71 112.28 C570.73 76.48, 600.71 42.76, 635.18 3.6 M551.34 112.25 C586.07 74.58, 620.48 34.02, 645.81 3.57 M551.34 112.25 C584.78 75.25, 617.45 38.18, 645.81 3.57 M561.97 112.21 C597.89 71.4, 636.29 27.84, 656.44 3.53 M561.97 112.21 C588.66 82.52, 613.65 52.56, 656.44 3.53 M572.6 112.18 C605.5 69.88, 642.27 31.63, 667.07 3.5 M572.6 112.18 C603.25 78.32, 634.1 42.2, 667.07 3.5 M583.23 112.14 C609.07 83.09, 634.59 53.16, 677.7 3.46 M583.23 112.14 C614.5 76.72, 645.27 41.35, 677.7 3.46 M593.86 112.11 C631.83 69.01, 668.14 27.08, 688.33 3.43 M593.86 112.11 C617.53 85.12, 640.56 57.06, 688.33 3.43 M604.49 112.07 C632.86 80.59, 661.06 47.71, 698.96 3.39 M604.49 112.07 C633.13 79.58, 659.91 47.64, 698.96 3.39 M615.12 112.04 C636.9 90.02, 659.04 63.18, 709.59 3.36 M615.12 112.04 C635.81 86.76, 657.59 62.61, 709.59 3.36 M625.75 112 C652.21 83.12, 675.84 54.87, 720.22 3.33 M625.75 112 C654.03 78.18, 683.13 45.15, 720.22 3.33 M636.38 111.97 C667.73 77.25, 696.69 45.25, 730.85 3.29 M636.38 111.97 C672.25 69.8, 708.19 27.41, 730.85 3.29 M647.01 111.93 C679.64 73.81, 713.93 34.79, 741.49 3.26 M647.01 111.93 C671.07 85.48, 694.77 59.36, 741.49 3.26 M657.64 111.9 C687.01 81.33, 712.95 51, 752.12 3.22 M657.64 111.9 C686.98 79.11, 714.88 46.8, 752.12 3.22 M668.27 111.87 C687 88.59, 708.3 66.08, 762.09 3.94 M668.27 111.87 C699.62 77.57, 730.55 41.79, 762.09 3.94 M678.9 111.83 C699.41 89.05, 720.2 64.43, 772.72 3.91 M678.9 111.83 C713.11 70.49, 748.74 29.64, 772.72 3.91 M689.53 111.8 C719.7 77.75, 748.89 46.66, 783.35 3.87 M689.53 111.8 C717.43 79.23, 744.22 47.47, 783.35 3.87 M700.16 111.76 C736.09 70.52, 770.62 29.95, 793.98 3.84 M700.16 111.76 C723.98 84.6, 748.58 56.95, 793.98 3.84 M710.79 111.73 C734.8 81.99, 756.98 56.36, 804.61 3.8 M710.79 111.73 C731.94 86.39, 753.21 62.04, 804.61 3.8 M721.42 111.69 C745.21 82.4, 770.61 54.91, 815.24 3.77 M721.42 111.69 C759.1 69.74, 796.11 26.92, 815.24 3.77 M731.4 112.41 C764.05 72.89, 800.75 32.92, 825.87 3.74 M731.4 112.41 C763.96 74.31, 798.25 36.47, 825.87 3.74 M742.03 112.38 C775.49 73.16, 811.47 33.23, 836.5 3.7 M742.03 112.38 C770.17 78.07, 800.05 44.35, 836.5 3.7 M752.66 112.34 C783.28 79.14, 810.88 45.12, 847.13 3.67 M752.66 112.34 C772.01 89.38, 791.58 68.64, 847.13 3.67 M763.29 112.31 C783.26 87.09, 806.34 60.98, 857.76 3.63 M763.29 112.31 C798.14 72.79, 831.06 34.75, 857.76 3.63 M773.92 112.28 C811.62 67.26, 849.99 26.09, 868.39 3.6 M773.92 112.28 C800.31 83.25, 824.81 54.66, 868.39 3.6 M784.55 112.24 C819.57 69.34, 856.05 29.06, 879.02 3.56 M784.55 112.24 C811.63 80.83, 839.89 48.8, 879.02 3.56 M795.18 112.21 C829.61 73.68, 860.74 36.63, 889.65 3.53 M795.18 112.21 C829.68 72.36, 864.14 32.94, 889.65 3.53 M805.81 112.17 C841.1 68.43, 877.34 30.08, 900.28 3.49 M805.81 112.17 C836.13 74.64, 867.94 38.79, 900.28 3.49 M816.44 112.14 C847.73 77.12, 873.01 44.61, 910.91 3.46 M816.44 112.14 C839.75 83.52, 863.34 56.39, 910.91 3.46 M827.07 112.1 C861.19 71.24, 898.29 28.95, 921.54 3.43 M827.07 112.1 C857.66 77.14, 887.61 42.23, 921.54 3.43 M837.7 112.07 C857.02 89.24, 877.79 64.89, 932.17 3.39 M837.7 112.07 C855.76 88.04, 875.32 65.35, 932.17 3.39 M848.33 112.03 C869.53 87.62, 890.48 66.46, 942.8 3.36 M848.33 112.03 C881.09 75.09, 913.29 37.99, 942.8 3.36 M858.96 112 C885.71 85.69, 909.63 54.89, 953.43 3.32 M858.96 112 C884.88 83.33, 908.79 56.12, 953.43 3.32 M869.59 111.97 C891.4 89.53, 911.8 63.46, 964.06 3.29 M869.59 111.97 C898.91 80.09, 928.32 46.78, 964.06 3.29 M880.22 111.93 C899.33 88.78, 918.1 66.48, 974.69 3.25 M880.22 111.93 C914.68 73.08, 947.69 33.42, 974.69 3.25 M890.85 111.9 C916.06 79.75, 944.37 50.27, 985.32 3.22 M890.85 111.9 C924.45 73.23, 958.07 36.33, 985.32 3.22 M901.48 111.86 C927.7 83.31, 950.13 55.02, 995.3 3.94 M901.48 111.86 C937.65 69.09, 975.39 24.51, 995.3 3.94 M912.11 111.83 C943.05 72.8, 977.24 34.68, 1005.93 3.9 M912.11 111.83 C939.6 82.62, 964.68 52.35, 1005.93 3.9 M922.74 111.79 C944.64 81.99, 970.87 54.95, 1016.56 3.87 M922.74 111.79 C942.1 88.47, 960.8 67.03, 1016.56 3.87 M933.37 111.76 C967.51 69.97, 1001.83 33.59, 1027.19 3.83 M933.37 111.76 C960.71 81.53, 989.39 48.84, 1027.19 3.83 M944 111.72 C979.08 68.57, 1017.2 25.33, 1037.82 3.8 M944 111.72 C974.98 76.77, 1004.61 41.72, 1037.82 3.8 M954.63 111.69 C982.41 76.56, 1011.63 42.08, 1048.45 3.77 M954.63 111.69 C978.15 84.57, 1001.39 58.51, 1048.45 3.77 M964.6 112.41 C995.14 75.31, 1028.74 38.4, 1059.08 3.73 M964.6 112.41 C990.49 84.2, 1014.18 53.48, 1059.08 3.73 M975.23 112.38 C1006.57 74.18, 1039.24 40.65, 1069.71 3.7 M975.23 112.38 C994.76 88.13, 1017.72 63.03, 1069.71 3.7 M985.86 112.34 C1018.34 75.64, 1049.57 35.86, 1080.34 3.66 M985.86 112.34 C1009.99 84.72, 1035.41 55.35, 1080.34 3.66 M996.49 112.31 C1022.76 85.52, 1043.84 56.32, 1090.97 3.63 M996.49 112.31 C1029.79 74.46, 1061.68 35.71, 1090.97 3.63 M1007.12 112.27 C1035.42 81.25, 1063.58 48.45, 1101.6 3.59 M1007.12 112.27 C1031.31 85.5, 1055.29 58.6, 1101.6 3.59 M1017.75 112.24 C1043.63 83.16, 1066.86 53.07, 1112.23 3.56 M1017.75 112.24 C1052.81 71.91, 1087.81 30.14, 1112.23 3.56 M1028.38 112.2 C1055.51 81.02, 1083.15 46.99, 1122.86 3.52 M1028.38 112.2 C1060.59 74.09, 1092.58 37.51, 1122.86 3.52 M1039.01 112.17 C1058.61 85.67, 1081.48 61.98, 1133.49 3.49 M1039.01 112.17 C1065.27 81.96, 1091.55 50.77, 1133.49 3.49 M1049.64 112.13 C1073.7 85.02, 1091.19 61.5, 1144.12 3.46 M1049.64 112.13 C1082.01 71.33, 1118.02 33.56, 1144.12 3.46 M1060.27 112.1 C1090.52 73.82, 1122.07 40.05, 1154.75 3.42 M1060.27 112.1 C1089.86 77.72, 1118.64 45.18, 1154.75 3.42 M1070.9 112.06 C1090.69 88.97, 1114.62 62.23, 1165.38 3.39 M1070.9 112.06 C1099.44 80.86, 1125.73 49.35, 1165.38 3.39 M1081.53 112.03 C1109.5 81.07, 1134.55 51.62, 1176.01 3.35 M1081.53 112.03 C1107.43 80.75, 1135.5 48.18, 1176.01 3.35 M1092.16 112 C1117.15 84.08, 1138.88 56.94, 1186.64 3.32 M1092.16 112 C1111.94 90.56, 1130.67 68.23, 1186.64 3.32 M1102.79 111.96 C1131.78 79.03, 1161.65 45.1, 1197.27 3.28 M1102.79 111.96 C1134.57 76.34, 1167.43 39.8, 1197.27 3.28 M1113.42 111.93 C1136.65 84.74, 1157.79 60.89, 1207.9 3.25 M1113.42 111.93 C1146.9 74.68, 1179.89 36.19, 1207.9 3.25 M1124.05 111.89 C1158.3 74.47, 1193.96 33.01, 1218.53 3.21 M1124.05 111.89 C1160.43 72.87, 1193.62 32.17, 1218.53 3.21 M1134.68 111.86 C1167.9 75.28, 1202.48 34.12, 1228.5 3.93 M1134.68 111.86 C1163.3 81.23, 1189.91 48.63, 1228.5 3.93 M1145.31 111.82 C1170.92 81.47, 1196.8 54.52, 1239.13 3.9 M1145.31 111.82 C1176.62 74.06, 1207.75 36.29, 1239.13 3.9 M1155.94 111.79 C1177.21 88.22, 1195.23 65.42, 1249.76 3.87 M1155.94 111.79 C1187.04 76.47, 1219.1 39.73, 1249.76 3.87 M1166.57 111.75 C1189.44 85.59, 1209.87 63.36, 1260.39 3.83 M1166.57 111.75 C1189.94 83.92, 1213.67 57.86, 1260.39 3.83 M1177.2 111.72 C1214.16 69.44, 1250.46 25.88, 1271.02 3.8 M1177.2 111.72 C1206.85 77.06, 1237.22 42.22, 1271.02 3.8 M1187.18 112.44 C1213.63 78.63, 1242.33 47.22, 1281.65 3.76 M1187.18 112.44 C1220.76 74.06, 1253.26 36.51, 1281.65 3.76 M1197.81 112.41 C1229.44 78.87, 1258.9 42.02, 1292.28 3.73 M1197.81 112.41 C1218.46 88.42, 1238.99 65.65, 1292.28 3.73 M1208.44 112.37 C1235.91 81.79, 1263 48.24, 1302.91 3.69 M1208.44 112.37 C1232.4 85.69, 1256.83 56.05, 1302.91 3.69 M1219.07 112.34 C1241.5 85.65, 1264.94 60.34, 1313.54 3.66 M1219.07 112.34 C1249.55 76.98, 1281.1 41.95, 1313.54 3.66 M1229.7 112.3 C1264.2 77.66, 1296.4 41.25, 1324.17 3.62 M1229.7 112.3 C1258.56 78.59, 1286.41 44.4, 1324.17 3.62 M1240.33 112.27 C1273.67 71.58, 1310.15 31.29, 1334.8 3.59 M1240.33 112.27 C1266.75 81.92, 1293.9 50.34, 1334.8 3.59 M1250.96 112.23 C1274.94 85.55, 1298.59 54.83, 1345.43 3.55 M1250.96 112.23 C1270.34 89.72, 1290.85 65.34, 1345.43 3.55 M1261.59 112.2 C1282.25 86.7, 1300.75 65.11, 1356.06 3.52 M1261.59 112.2 C1288.93 83.26, 1315.3 52.12, 1356.06 3.52 M1272.22 112.16 C1290.33 92.21, 1311.16 68.69, 1366.69 3.49 M1272.22 112.16 C1305.86 72.77, 1338.95 33.4, 1366.69 3.49 M1282.85 112.13 C1305.43 85.67, 1326.8 60.25, 1377.32 3.45 M1282.85 112.13 C1302 90.46, 1320.14 67.88, 1377.32 3.45 M1293.48 112.09 C1315.81 86.24, 1337 59.6, 1387.95 3.42 M1293.48 112.09 C1323.99 77, 1354.92 40.95, 1387.95 3.42 M1304.11 112.06 C1336.89 75.76, 1368.6 37.3, 1398.58 3.38 M1304.11 112.06 C1333.3 79.79, 1363.26 45.65, 1398.58 3.38 M1314.74 112.03 C1346.31 74.66, 1378.96 37.38, 1410.52 1.84 M1314.74 112.03 C1348.88 71.74, 1383.66 33.88, 1410.52 1.84 M1325.37 111.99 C1344.36 87.86, 1364.85 62.84, 1418.53 4.82 M1325.37 111.99 C1360.18 71.82, 1394.06 31.96, 1418.53 4.82 M1336 111.96 C1371.54 69.45, 1409.66 27.49, 1427.19 7.05 M1336 111.96 C1366.41 78.04, 1395.31 43.97, 1427.19 7.05 M1346.63 111.92 C1366.1 91.68, 1384.33 70, 1433.23 12.3 M1346.63 111.92 C1373.63 81.83, 1400.75 49, 1433.23 12.3 M1357.26 111.89 C1376.74 92.42, 1395.9 71.02, 1437.96 19.06 M1357.26 111.89 C1383.99 80.03, 1409.2 50.69, 1437.96 19.06 M1367.89 111.85 C1386.7 91.35, 1406.45 67.76, 1438.74 30.34 M1367.89 111.85 C1393.18 81.92, 1418.96 52.45, 1438.74 30.34 M1378.52 111.82 C1399.19 86.63, 1420.9 61.24, 1438.88 42.39 M1378.52 111.82 C1397.4 90.68, 1417.61 68.25, 1438.88 42.39 M1389.15 111.78 C1405.44 91.99, 1425.76 73.25, 1438.36 55.18 M1389.15 111.78 C1404.11 93.76, 1420.55 76.55, 1438.36 55.18 M1399.78 111.75 C1406.66 103.12, 1416.78 92.92, 1438.49 67.22 M1399.78 111.75 C1408.28 100.23, 1419.41 89.94, 1438.49 67.22 M1411.07 110.96 C1414.8 102.45, 1422.39 99.13, 1436 82.28 M1411.07 110.96 C1418.35 102.47, 1423.96 94.99, 1436 82.28" stroke="#99e9f2" stroke-width="1" fill="none"></path><path d="M26.88 0 C387.79 -1.98, 748.94 -1.51, 1407.71 0 M26.88 0 C495.94 0.24, 964.53 0.14, 1407.71 0 M1407.71 0 C1424.15 -1.71, 1435.71 10.61, 1434.59 26.88 M1407.71 0 C1423.49 -0.03, 1434.4 6.91, 1434.59 26.88 M1434.59 26.88 C1434.55 36.45, 1434.93 50.01, 1434.59 80.65 M1434.59 26.88 C1434.46 47.82, 1435.84 67.34, 1434.59 80.65 M1434.59 80.65 C1434.65 96.85, 1424.76 108.06, 1407.71 107.53 M1434.59 80.65 C1435.86 96.96, 1426 106.82, 1407.71 107.53 M1407.71 107.53 C869.17 107.39, 330.12 107.55, 26.88 107.53 M1407.71 107.53 C1018.67 109.6, 629.7 109.96, 26.88 107.53 M26.88 107.53 C10.68 107.21, 0.22 98.3, 0 80.65 M26.88 107.53 C8.15 107.45, -1.14 100.3, 0 80.65 M0 80.65 C-1.76 66.86, -1.31 54.69, 0 26.88 M0 80.65 C-0.26 59.63, -1 39.43, 0 26.88 M0 26.88 C-1.91 9.07, 10.5 -0.14, 26.88 0 M0 26.88 C-1.94 8.61, 8.75 -0.51, 26.88 0" stroke="#1e1e1e" stroke-width="2" fill="none"></path></g><g transform="translate(764.5250242906177 169.61030878718952) rotate(0 33.429969787597656 12.5)"><text x="33.429969787597656" y="0" font-family="Virgil, Segoe UI Emoji" font-size="20px" fill="#1e1e1e" text-anchor="middle" style="white-space: pre;" direction="ltr" dominant-baseline="text-before-edge">Topic 1</text></g><g stroke-linecap="round" transform="translate(77.84123761296269 296.2546803726757) rotate(0 717.2953406215629 53.76592792464703)"><path d="M4.07 10.17 C4.07 10.17, 4.07 10.17, 4.07 10.17 M4.07 10.17 C4.07 10.17, 4.07 10.17, 4.07 10.17 M0.27 26.73 C5.83 20.89, 14.67 10.01, 22.58 1.07 M0.27 26.73 C6.04 21.68, 9.57 15.26, 22.58 1.07 M0.4 38.78 C12.35 25.03, 23.52 12.78, 33.86 0.28 M0.4 38.78 C9.08 28.16, 19.28 16.25, 33.86 0.28 M-0.12 51.57 C14.84 32.94, 34 15.12, 44.49 0.25 M-0.12 51.57 C10.86 37.87, 22.06 24.93, 44.49 0.25 M0.01 63.61 C16.13 44.96, 29.86 27.4, 55.12 0.22 M0.01 63.61 C13 50.11, 23.94 36.39, 55.12 0.22 M0.15 75.65 C20.79 51.51, 37.2 29.3, 65.75 0.18 M0.15 75.65 C16.98 57.3, 32.65 39.29, 65.75 0.18 M1.59 86.18 C18.69 68.17, 36.19 46.24, 76.38 0.15 M1.59 86.18 C25.99 55.34, 52.33 24.56, 76.38 0.15 M3.69 95.96 C23.82 71.58, 48.01 45.82, 87.01 0.11 M3.69 95.96 C37.6 59.37, 68.2 22.61, 87.01 0.11 M9.07 101.96 C41.86 65.57, 73.24 27.35, 97.64 0.08 M9.07 101.96 C41.82 64.1, 73.87 27.24, 97.64 0.08 M15.77 106.46 C42.91 72.97, 72.62 42.89, 108.27 0.04 M15.77 106.46 C48.72 68.14, 82.42 30.26, 108.27 0.04 M25.09 107.93 C53.6 73.11, 80.95 42.35, 118.9 0.01 M25.09 107.93 C48.41 82.44, 71.66 55.01, 118.9 0.01 M35.72 107.9 C72.6 63.74, 108.21 20.53, 129.53 -0.03 M35.72 107.9 C56.34 83.21, 76.64 58.63, 129.53 -0.03 M46.35 107.86 C68.89 81.29, 92.81 55.03, 140.16 -0.06 M46.35 107.86 C78.35 72.01, 108.82 36.93, 140.16 -0.06 M56.98 107.83 C78.43 79.63, 102.25 55.24, 150.14 0.66 M56.98 107.83 C88.57 71.78, 119.73 35.97, 150.14 0.66 M67.61 107.79 C86.99 85.68, 106.62 60.3, 160.77 0.63 M67.61 107.79 C93.61 78.64, 121.14 48.24, 160.77 0.63 M78.24 107.76 C98.89 81.97, 123.58 54.59, 171.4 0.59 M78.24 107.76 C99.81 84.14, 120.59 60.93, 171.4 0.59 M88.21 108.48 C110.16 81.64, 133.26 54.75, 182.03 0.56 M88.21 108.48 C117.02 75.71, 145.27 44.35, 182.03 0.56 M98.84 108.45 C128.35 72.71, 160.79 37.93, 192.66 0.52 M98.84 108.45 C125.46 76.46, 153.16 44.4, 192.66 0.52 M109.47 108.41 C145.86 66.89, 183.45 22.62, 203.29 0.49 M109.47 108.41 C138.05 75.19, 169.44 40.22, 203.29 0.49 M120.1 108.38 C152.33 75.18, 183.37 37.42, 213.92 0.45 M120.1 108.38 C155.01 68.28, 189.44 28.64, 213.92 0.45 M130.73 108.34 C164.25 71.35, 193.09 35.2, 224.55 0.42 M130.73 108.34 C150.06 84.65, 169.36 61.66, 224.55 0.42 M141.36 108.31 C181.53 64.4, 218.07 24.32, 235.18 0.38 M141.36 108.31 C170.32 74.61, 200.38 40.28, 235.18 0.38 M151.99 108.27 C188.07 68.91, 222.29 31.45, 245.81 0.35 M151.99 108.27 C187.68 68.13, 221 28.48, 245.81 0.35 M162.62 108.24 C181.25 85.27, 202.68 62.21, 256.44 0.32 M162.62 108.24 C182.68 83.3, 203.2 60.65, 256.44 0.32 M173.25 108.2 C210.33 66.38, 243.37 26.75, 267.07 0.28 M173.25 108.2 C203.51 72.36, 236.03 35.57, 267.07 0.28 M183.88 108.17 C218.28 68.15, 252.33 31.34, 277.7 0.25 M183.88 108.17 C203.98 85.67, 221.93 61.86, 277.7 0.25 M194.51 108.14 C219.82 75.66, 247.87 45.88, 288.33 0.21 M194.51 108.14 C232.32 67.94, 268.22 25.48, 288.33 0.21 M205.14 108.1 C236.55 72.48, 267.59 36.04, 298.96 0.18 M205.14 108.1 C229.16 81.78, 253.14 53.6, 298.96 0.18 M215.77 108.07 C236.19 80.82, 260.45 56.52, 309.59 0.14 M215.77 108.07 C245.57 72.51, 275.34 39.03, 309.59 0.14 M226.4 108.03 C260.88 70.63, 295.06 30.34, 320.22 0.11 M226.4 108.03 C259.62 71.3, 292.05 34.49, 320.22 0.11 M237.03 108 C272.69 67.48, 310.84 24.21, 330.85 0.07 M237.03 108 C263.54 78.51, 288.35 48.76, 330.85 0.07 M247.66 107.96 C280.32 65.94, 316.85 27.97, 341.48 0.04 M247.66 107.96 C278.1 74.34, 308.73 38.47, 341.48 0.04 M258.29 107.93 C283.95 79.08, 309.29 49.36, 352.11 0 M258.29 107.93 C289.34 72.76, 319.89 37.63, 352.11 0 M268.92 107.89 C306.63 65.09, 342.68 23.47, 362.74 -0.03 M268.92 107.89 C292.43 81.1, 315.29 53.23, 362.74 -0.03 M279.55 107.86 C307.72 76.6, 335.72 43.95, 373.37 -0.06 M279.55 107.86 C308 75.59, 334.59 43.87, 373.37 -0.06 M290.18 107.82 C311.66 86.13, 333.51 59.63, 383.34 0.66 M290.18 107.82 C310.58 82.89, 332.06 59.08, 383.34 0.66 M300.81 107.79 C326.92 79.29, 350.22 51.42, 393.97 0.62 M300.81 107.79 C328.7 74.44, 357.41 41.87, 393.97 0.62 M311.44 107.76 C342.36 73.51, 370.9 41.99, 404.6 0.59 M311.44 107.76 C346.81 66.17, 382.24 24.37, 404.6 0.59 M321.42 108.48 C353.82 70.62, 387.88 31.86, 415.23 0.55 M321.42 108.48 C345.3 82.2, 368.84 56.27, 415.23 0.55 M332.05 108.44 C361.22 78.08, 386.97 47.96, 425.86 0.52 M332.05 108.44 C361.18 75.87, 388.88 43.79, 425.86 0.52 M342.68 108.41 C361.41 85.13, 382.7 62.62, 436.49 0.48 M342.68 108.41 C374.02 74.11, 404.95 38.33, 436.49 0.48 M353.31 108.37 C373.81 85.59, 394.6 60.98, 447.12 0.45 M353.31 108.37 C387.51 67.03, 423.14 26.18, 447.12 0.45 M363.94 108.34 C394.11 74.29, 423.29 43.2, 457.75 0.41 M363.94 108.34 C391.83 75.77, 418.63 44.02, 457.75 0.41 M374.57 108.3 C410.5 67.07, 445.02 26.49, 468.38 0.38 M374.57 108.3 C398.39 81.14, 422.99 53.49, 468.38 0.38 M385.2 108.27 C409.21 78.53, 431.39 52.9, 479.01 0.35 M385.2 108.27 C406.35 82.93, 427.62 58.58, 479.01 0.35 M395.83 108.23 C419.62 78.94, 445.01 51.45, 489.64 0.31 M395.83 108.23 C433.5 66.28, 470.51 23.46, 489.64 0.31 M406.46 108.2 C438.88 68.94, 475.34 29.24, 500.27 0.28 M406.46 108.2 C438.8 70.36, 472.86 32.78, 500.27 0.28 M417.09 108.17 C450.32 69.22, 486.05 29.57, 510.9 0.24 M417.09 108.17 C445.03 74.09, 474.7 40.61, 510.9 0.24 M427.72 108.13 C458.14 75.15, 485.54 41.36, 521.53 0.21 M427.72 108.13 C446.94 85.32, 466.38 64.73, 521.53 0.21 M438.35 108.1 C458.17 83.06, 481.1 57.12, 532.16 0.17 M438.35 108.1 C472.96 68.84, 505.65 31.07, 532.16 0.17 M448.98 108.06 C486.41 63.34, 524.53 22.47, 542.79 0.14 M448.98 108.06 C475.19 79.24, 499.52 50.85, 542.79 0.14 M459.61 108.03 C494.38 65.41, 530.62 25.42, 553.42 0.1 M459.61 108.03 C486.5 76.83, 514.56 45.02, 553.42 0.1 M470.24 107.99 C504.44 69.72, 535.35 32.94, 564.05 0.07 M470.24 107.99 C504.5 68.42, 538.71 29.27, 564.05 0.07 M480.87 107.96 C515.91 64.5, 551.9 26.45, 574.68 0.04 M480.87 107.96 C510.98 70.68, 542.57 35.08, 574.68 0.04 M491.5 107.92 C522.59 73.14, 547.67 40.86, 585.31 0 M491.5 107.92 C514.64 79.5, 538.07 52.56, 585.31 0 M502.13 107.89 C536 67.32, 572.85 25.32, 595.94 -0.03 M502.13 107.89 C532.51 73.17, 562.25 38.5, 595.94 -0.03 M512.76 107.86 C531.94 85.19, 552.56 61.01, 606.57 -0.07 M512.76 107.86 C530.69 83.98, 550.11 61.45, 606.57 -0.07 M523.39 107.82 C544.29 83.73, 564.95 62.89, 616.55 0.65 M523.39 107.82 C555.7 71.38, 587.45 34.8, 616.55 0.65 M534.02 107.79 C560.42 81.87, 583.99 51.46, 627.18 0.62 M534.02 107.79 C559.59 79.51, 583.16 52.68, 627.18 0.62 M544.65 107.75 C566.15 85.65, 586.26 59.92, 637.81 0.58 M544.65 107.75 C573.56 76.32, 602.57 43.47, 637.81 0.58 M554.62 108.47 C573.6 85.48, 592.23 63.33, 648.44 0.55 M554.62 108.47 C588.85 69.9, 621.62 30.51, 648.44 0.55 M565.25 108.44 C590.29 76.5, 618.41 47.23, 659.07 0.51 M565.25 108.44 C598.62 70.03, 632 33.41, 659.07 0.51 M575.88 108.4 C602.1 79.85, 624.53 51.56, 669.7 0.48 M575.88 108.4 C612.06 65.63, 649.79 21.05, 669.7 0.48 M586.51 108.37 C617.46 69.34, 651.65 31.23, 680.33 0.44 M586.51 108.37 C614 79.16, 639.09 48.89, 680.33 0.44 M597.14 108.33 C619.04 78.54, 645.27 51.49, 690.96 0.41 M597.14 108.33 C616.51 85.02, 635.2 63.58, 690.96 0.41 M607.77 108.3 C641.91 66.51, 676.23 30.13, 701.59 0.38 M607.77 108.3 C635.11 78.07, 663.79 45.38, 701.59 0.38 M618.4 108.26 C653.48 65.11, 691.6 21.87, 712.22 0.34 M618.4 108.26 C649.39 73.31, 679.01 38.26, 712.22 0.34 M629.03 108.23 C656.82 73.1, 686.04 38.62, 722.85 0.31 M629.03 108.23 C652.55 81.11, 675.79 55.05, 722.85 0.31 M639.66 108.2 C669.98 71.35, 703.36 34.7, 733.48 0.27 M639.66 108.2 C665.37 80.19, 688.89 49.67, 733.48 0.27 M650.29 108.16 C681.41 70.22, 713.86 36.94, 744.11 0.24 M650.29 108.16 C669.68 84.09, 692.49 59.16, 744.11 0.24 M660.92 108.13 C693.18 71.69, 724.18 32.17, 754.74 0.2 M660.92 108.13 C684.88 80.7, 710.13 51.53, 754.74 0.2 M671.55 108.09 C697.65 81.5, 718.56 52.5, 765.37 0.17 M671.55 108.09 C704.62 70.52, 736.28 32.03, 765.37 0.17 M682.18 108.06 C710.28 77.25, 738.24 44.68, 776 0.13 M682.18 108.06 C706.21 81.47, 730.02 54.75, 776 0.13 M692.81 108.02 C718.52 79.15, 741.57 49.26, 786.63 0.1 M692.81 108.02 C727.62 67.98, 762.39 26.49, 786.63 0.1 M703.44 107.99 C730.39 77.03, 757.84 43.22, 797.26 0.07 M703.44 107.99 C735.43 70.14, 767.2 33.81, 797.26 0.07 M714.07 107.95 C733.52 81.63, 756.25 58.11, 807.89 0.03 M714.07 107.95 C740.15 77.96, 766.24 46.98, 807.89 0.03 M724.7 107.92 C748.61 80.98, 765.95 57.64, 818.52 0 M724.7 107.92 C756.83 67.4, 792.61 29.89, 818.52 0 M735.33 107.89 C765.36 69.86, 796.7 36.34, 829.15 -0.04 M735.33 107.89 C764.72 73.73, 793.3 41.43, 829.15 -0.04 M745.96 107.85 C765.61 84.93, 789.38 58.36, 839.78 -0.07 M745.96 107.85 C774.31 76.86, 800.41 45.57, 839.78 -0.07 M756.59 107.82 C784.18 77.29, 808.85 48.27, 849.75 0.65 M756.59 107.82 C782.12 76.97, 809.82 44.84, 849.75 0.65 M767.22 107.78 C791.87 80.25, 813.27 53.48, 860.38 0.61 M767.22 107.78 C786.73 86.66, 805.2 64.62, 860.38 0.61 M777.2 108.5 C805.97 75.81, 835.64 42.11, 871.01 0.58 M777.2 108.5 C808.74 73.13, 841.39 36.85, 871.01 0.58 M787.83 108.47 C810.9 81.46, 831.89 57.79, 881.64 0.54 M787.83 108.47 C821.07 71.48, 853.83 33.25, 881.64 0.54 M798.46 108.43 C832.47 71.28, 867.89 30.08, 892.27 0.51 M798.46 108.43 C834.59 69.68, 867.54 29.26, 892.27 0.51 M809.09 108.4 C842.31 71.83, 876.89 30.66, 902.9 0.48 M809.09 108.4 C837.7 77.77, 864.31 45.17, 902.9 0.48 M819.72 108.36 C845.32 78.01, 871.21 51.07, 913.53 0.44 M819.72 108.36 C851.02 70.6, 882.16 32.83, 913.53 0.44 M830.35 108.33 C851.61 84.76, 869.63 61.96, 924.16 0.41 M830.35 108.33 C861.44 73.01, 893.51 36.27, 924.16 0.41 M840.98 108.3 C863.85 82.13, 884.27 59.9, 934.79 0.37 M840.98 108.3 C864.34 80.46, 888.07 54.4, 934.79 0.37 M851.61 108.26 C888.57 65.98, 924.86 22.42, 945.42 0.34 M851.61 108.26 C881.25 73.61, 911.63 38.76, 945.42 0.34 M862.24 108.23 C888.5 74.64, 917.01 43.45, 956.05 0.3 M862.24 108.23 C895.58 70.11, 927.86 32.82, 956.05 0.3 M872.87 108.19 C904.28 74.9, 933.54 38.29, 966.69 0.27 M872.87 108.19 C893.37 84.36, 913.76 61.76, 966.69 0.27 M883.5 108.16 C910.78 77.8, 937.68 44.48, 977.32 0.23 M883.5 108.16 C907.3 81.67, 931.56 52.22, 977.32 0.23 M894.13 108.12 C916.4 81.61, 939.69 56.48, 987.95 0.2 M894.13 108.12 C924.4 73.02, 955.73 38.23, 987.95 0.2 M904.76 108.09 C939.03 73.69, 971.01 37.54, 998.58 0.16 M904.76 108.09 C933.42 74.61, 961.07 40.65, 998.58 0.16 M915.39 108.05 C948.49 67.65, 984.72 27.65, 1009.21 0.13 M915.39 108.05 C941.63 77.92, 968.59 46.55, 1009.21 0.13 M926.02 108.02 C949.84 81.54, 973.31 51.01, 1019.84 0.1 M926.02 108.02 C945.26 85.67, 965.63 61.45, 1019.84 0.1 M936.65 107.98 C957.17 82.65, 975.53 61.22, 1030.47 0.06 M936.65 107.98 C963.8 79.25, 989.99 48.32, 1030.47 0.06 M947.28 107.95 C965.27 88.14, 985.96 64.77, 1041.1 0.03 M947.28 107.95 C980.69 68.83, 1013.54 29.73, 1041.1 0.03 M957.91 107.92 C980.34 81.64, 1001.55 56.4, 1051.73 -0.01 M957.91 107.92 C976.92 86.4, 994.93 63.97, 1051.73 -0.01 M968.54 107.88 C990.71 82.21, 1011.75 55.74, 1062.36 -0.04 M968.54 107.88 C998.83 73.03, 1029.55 37.22, 1062.36 -0.04 M979.17 107.85 C1011.72 71.81, 1043.21 33.6, 1072.99 -0.08 M979.17 107.85 C1008.15 75.81, 1037.91 41.9, 1072.99 -0.08 M989.8 107.81 C1020.51 71.47, 1052.29 35.19, 1082.96 0.64 M989.8 107.81 C1022.99 68.61, 1056.83 31.83, 1082.96 0.64 M1000.43 107.78 C1019.42 83.65, 1039.91 58.62, 1093.59 0.61 M1000.43 107.78 C1035.24 67.61, 1069.12 27.75, 1093.59 0.61 M1010.4 108.5 C1047 64.79, 1086.14 21.64, 1104.22 0.57 M1010.4 108.5 C1041.69 73.61, 1071.45 38.56, 1104.22 0.57 M1021.03 108.46 C1042.02 86.38, 1061.83 62.9, 1114.85 0.54 M1021.03 108.46 C1050.31 75.8, 1079.69 40.38, 1114.85 0.54 M1031.66 108.43 C1054.21 85.57, 1076.33 60.77, 1125.48 0.51 M1031.66 108.43 C1062.59 71.47, 1092.15 37.14, 1125.48 0.51 M1042.29 108.39 C1067.61 80.71, 1093.74 49.79, 1136.11 0.47 M1042.29 108.39 C1075.73 68.91, 1109.9 29.79, 1136.11 0.47 M1052.92 108.36 C1085.89 69.53, 1119.62 30.31, 1146.74 0.44 M1052.92 108.36 C1082.47 75.3, 1113.23 40.74, 1146.74 0.44 M1063.55 108.33 C1096.22 70.45, 1132.4 33.45, 1157.37 0.4 M1063.55 108.33 C1092.97 73.83, 1123.44 40.48, 1157.37 0.4 M1074.18 108.29 C1093.59 84.93, 1116.63 59.85, 1168 0.37 M1074.18 108.29 C1095.89 81.43, 1120.74 55.34, 1168 0.37 M1084.81 108.26 C1103.53 81.71, 1126.77 60.38, 1178.63 0.33 M1084.81 108.26 C1111.47 77.71, 1136.07 48.39, 1178.63 0.33 M1095.44 108.22 C1116.49 83.39, 1135.49 61.5, 1189.26 0.3 M1095.44 108.22 C1127.23 69.77, 1159.55 34.2, 1189.26 0.3 M1106.07 108.19 C1131.81 77.39, 1160.17 45.44, 1199.89 0.26 M1106.07 108.19 C1131.98 76.03, 1161.73 43.87, 1199.89 0.26 M1116.7 108.15 C1149.98 69.16, 1183.88 32.68, 1210.52 0.23 M1116.7 108.15 C1137.96 81.95, 1159.54 58.33, 1210.52 0.23 M1127.33 108.12 C1158.47 72.57, 1190.21 36.72, 1221.15 0.2 M1127.33 108.12 C1160.25 68.24, 1194.17 29.32, 1221.15 0.2 M1137.96 108.08 C1161.75 79.52, 1190.32 50.15, 1231.78 0.16 M1137.96 108.08 C1173.66 64.91, 1211.99 23.01, 1231.78 0.16 M1148.59 108.05 C1183.17 66.27, 1219.01 24.99, 1242.41 0.13 M1148.59 108.05 C1184.51 63.9, 1222.52 21.37, 1242.41 0.13 M1159.23 108.02 C1181.52 79.96, 1206.52 55.6, 1253.04 0.09 M1159.23 108.02 C1191.76 70.76, 1222.44 33.9, 1253.04 0.09 M1169.86 107.98 C1197.38 76.65, 1225.18 46.06, 1263.67 0.06 M1169.86 107.98 C1192.02 80.57, 1215.73 54.68, 1263.67 0.06 M1180.49 107.95 C1207.91 75.19, 1236.39 42.69, 1274.3 0.02 M1180.49 107.95 C1200.42 84.08, 1221.67 59.68, 1274.3 0.02 M1191.12 107.91 C1217.23 74.12, 1249 41.12, 1284.93 -0.01 M1191.12 107.91 C1218.98 75.25, 1244.84 44.7, 1284.93 -0.01 M1201.75 107.88 C1237.32 67.33, 1275.71 25.53, 1295.56 -0.05 M1201.75 107.88 C1219.95 86.73, 1240.82 63.58, 1295.56 -0.05 M1212.38 107.84 C1239.42 77.76, 1265.04 47.75, 1305.54 0.67 M1212.38 107.84 C1236.14 79.91, 1259.81 50.9, 1305.54 0.67 M1223.01 107.81 C1252.62 69.76, 1284.59 32.91, 1316.17 0.64 M1223.01 107.81 C1254.12 73.76, 1283.77 39.15, 1316.17 0.64 M1233.64 107.77 C1263.39 73.97, 1293.41 40.95, 1326.8 0.6 M1233.64 107.77 C1253.26 84.79, 1272.57 61.27, 1326.8 0.6 M1243.61 108.49 C1276.55 69.55, 1307.54 34.19, 1337.43 0.57 M1243.61 108.49 C1261.04 86.29, 1280.27 65.49, 1337.43 0.57 M1254.24 108.46 C1282.84 73.66, 1312.89 42.45, 1348.06 0.54 M1254.24 108.46 C1284.47 71.96, 1316.5 36.7, 1348.06 0.54 M1264.87 108.42 C1288.75 80.34, 1311.9 51.54, 1358.69 0.5 M1264.87 108.42 C1295.47 71.8, 1326.73 36.48, 1358.69 0.5 M1275.5 108.39 C1311.77 69.46, 1344.29 31.03, 1369.32 0.47 M1275.5 108.39 C1306.83 70.67, 1339.12 34.68, 1369.32 0.47 M1286.13 108.36 C1312.9 74.69, 1341.61 40.93, 1379.95 0.43 M1286.13 108.36 C1309.24 84.11, 1331.87 58.57, 1379.95 0.43 M1296.76 108.32 C1316.51 82.38, 1339.31 60.56, 1390.58 0.4 M1296.76 108.32 C1326.66 74.94, 1355.93 41.93, 1390.58 0.4 M1307.39 108.29 C1341.72 65.76, 1380.7 23.95, 1401.21 0.36 M1307.39 108.29 C1331.47 79.69, 1354.78 52.07, 1401.21 0.36 M1318.02 108.25 C1342.68 81.72, 1364.51 57.01, 1411.84 0.33 M1318.02 108.25 C1339.16 84.16, 1362.03 58.77, 1411.84 0.33 M1328.65 108.22 C1358.6 74.48, 1389.34 41.72, 1420.5 2.56 M1328.65 108.22 C1361.8 68.05, 1397.03 27.63, 1420.5 2.56 M1339.28 108.18 C1371.41 71.67, 1401.77 35.2, 1427.19 7.05 M1339.28 108.18 C1358.02 87.67, 1375.4 65.42, 1427.19 7.05 M1349.91 108.15 C1373.54 81.22, 1393.2 55.6, 1431.92 13.81 M1349.91 108.15 C1368.7 85.07, 1387.98 64.42, 1431.92 13.81 M1360.54 108.11 C1388.41 78.46, 1415.22 44.71, 1434.02 23.59 M1360.54 108.11 C1386.2 80.78, 1410.37 52.14, 1434.02 23.59 M1371.17 108.08 C1389.51 84.65, 1409.19 64.17, 1434.81 34.87 M1371.17 108.08 C1388.22 89.27, 1404.42 68.88, 1434.81 34.87 M1381.8 108.05 C1395.63 93.86, 1410.19 75.72, 1434.94 46.91 M1381.8 108.05 C1400.89 84.73, 1421.48 62.3, 1434.94 46.91 M1392.43 108.01 C1409.72 90.29, 1424.72 71.69, 1435.07 58.95 M1392.43 108.01 C1407.94 90.12, 1422.38 72.61, 1435.07 58.95 M1403.06 107.98 C1412.68 98.62, 1418.71 88.62, 1435.21 71 M1403.06 107.98 C1412.52 97.37, 1422.68 86.52, 1435.21 71 M1414.35 107.19 C1422.48 99.33, 1428.19 90.58, 1434.03 84.55 M1414.35 107.19 C1419.01 102.17, 1423.01 96.5, 1434.03 84.55" stroke="#d0bfff" stroke-width="1" fill="none"></path><path d="M26.88 0 C374.52 4.45, 721.39 3.92, 1407.71 0 M26.88 0 C433.25 -4.14, 840.74 -4.18, 1407.71 0 M1407.71 0 C1425.46 1.96, 1434.13 8.12, 1434.59 26.88 M1407.71 0 C1424.65 -1.71, 1436.3 7.91, 1434.59 26.88 M1434.59 26.88 C1434.07 45.23, 1433.13 64.68, 1434.59 80.65 M1434.59 26.88 C1434.46 44.14, 1433.62 61.11, 1434.59 80.65 M1434.59 80.65 C1436.3 96.72, 1427.44 106.99, 1407.71 107.53 M1434.59 80.65 C1436.88 98.16, 1424.51 107.35, 1407.71 107.53 M1407.71 107.53 C1131.28 104.42, 853.74 105.09, 26.88 107.53 M1407.71 107.53 C947.69 103.28, 487.89 103.38, 26.88 107.53 M26.88 107.53 C8.23 106.18, -1.54 99, 0 80.65 M26.88 107.53 C8.62 105.99, -0.69 99.65, 0 80.65 M0 80.65 C-1.99 65.3, 1.11 51.73, 0 26.88 M0 80.65 C0.17 66.38, 0.52 53.78, 0 26.88 M0 26.88 C-1.49 9.7, 9.87 1.47, 26.88 0 M0 26.88 C-1.08 10.35, 7.31 -1.84, 26.88 0" stroke="#1e1e1e" stroke-width="2" fill="none"></path></g><g transform="translate(757.2966124142131 337.5206082973227) rotate(0 37.8399658203125 12.5)"><text x="37.8399658203125" y="0" font-family="Virgil, Segoe UI Emoji" font-size="20px" fill="#1e1e1e" text-anchor="middle" style="white-space: pre;" direction="ltr" dominant-baseline="text-before-edge">Topic 2</text></g><g stroke-linecap="round" transform="translate(85.858997818028 482.85863436022396) rotate(0 717.2953406215629 53.76592792464703)"><path d="M4.07 10.17 C4.07 10.17, 4.07 10.17, 4.07 10.17 M4.07 10.17 C4.07 10.17, 4.07 10.17, 4.07 10.17 M0.27 26.73 C10.49 16, 15.41 6.77, 22.58 1.07 M0.27 26.73 C8.08 19.36, 13.29 11.73, 22.58 1.07 M0.4 38.78 C7.63 28.57, 17.5 21.97, 33.86 0.28 M0.4 38.78 C11.83 27.28, 22.32 14.22, 33.86 0.28 M-0.12 51.57 C11.14 40.63, 20.53 27.28, 44.49 0.25 M-0.12 51.57 C17.48 31.03, 34.53 12.28, 44.49 0.25 M0.01 63.61 C12.8 50.65, 24.03 34.78, 55.12 0.22 M0.01 63.61 C16.55 46.57, 32.3 28.62, 55.12 0.22 M0.15 75.65 C20.58 50.15, 43.72 25.69, 65.75 0.18 M0.15 75.65 C21.23 50.31, 43.8 26.48, 65.75 0.18 M1.59 86.18 C26.26 61.16, 46.46 34.06, 76.38 0.15 M1.59 86.18 C26.74 56.52, 53.54 26.5, 76.38 0.15 M3.69 95.96 C21.66 74.47, 42.24 54.59, 87.01 0.11 M3.69 95.96 C20.99 76.83, 39.74 54.73, 87.01 0.11 M9.07 101.96 C29.65 75.34, 55.3 50.12, 97.64 0.08 M9.07 101.96 C33.37 75.02, 58.7 46.16, 97.64 0.08 M15.77 106.46 C43.14 74.28, 70.66 42.48, 108.27 0.04 M15.77 106.46 C44.21 73.61, 71.27 40.47, 108.27 0.04 M25.09 107.93 C46.24 87.7, 63.59 64.21, 118.9 0.01 M25.09 107.93 C52.52 74.56, 82.3 42.08, 118.9 0.01 M35.72 107.9 C72.96 69.75, 104.8 29.3, 129.53 -0.03 M35.72 107.9 C61.17 77.49, 87 47.35, 129.53 -0.03 M46.35 107.86 C80.38 65.54, 118.46 22.48, 140.16 -0.06 M46.35 107.86 C64.62 85.23, 83.97 63.32, 140.16 -0.06 M56.98 107.83 C83.1 76.48, 107.45 47.31, 150.14 0.66 M56.98 107.83 C79.07 83.85, 99.65 58.94, 150.14 0.66 M67.61 107.79 C87.47 84.78, 110.38 59.69, 160.77 0.63 M67.61 107.79 C92.44 80.24, 115.98 52.71, 160.77 0.63 M78.24 107.76 C106.75 74.43, 137.11 40.59, 171.4 0.59 M78.24 107.76 C105.05 75.83, 134.03 44.23, 171.4 0.59 M88.21 108.48 C110.73 85.09, 129.31 62.83, 182.03 0.56 M88.21 108.48 C113.88 79.71, 138.51 52.06, 182.03 0.56 M98.84 108.45 C131.63 70.51, 169.84 30.38, 192.66 0.52 M98.84 108.45 C135.6 66.67, 171.51 23.76, 192.66 0.52 M109.47 108.41 C130.19 80.93, 152.66 56.53, 203.29 0.49 M109.47 108.41 C140.91 71.41, 173.4 35, 203.29 0.49 M120.1 108.38 C142.83 83.46, 165.03 58.19, 213.92 0.45 M120.1 108.38 C144.74 79.34, 170.13 51.4, 213.92 0.45 M130.73 108.34 C155.87 80.01, 179.04 49.47, 224.55 0.42 M130.73 108.34 C160.12 76.1, 190.14 43.03, 224.55 0.42 M141.36 108.31 C164.5 80.04, 191.26 54.38, 235.18 0.38 M141.36 108.31 C167.41 78.84, 192.21 48.87, 235.18 0.38 M151.99 108.27 C175.47 83.14, 196.47 56.67, 245.81 0.35 M151.99 108.27 C183.41 73.53, 213.93 37.79, 245.81 0.35 M162.62 108.24 C189.41 78.93, 214.48 48.49, 256.44 0.32 M162.62 108.24 C181.82 85.68, 201.34 63.67, 256.44 0.32 M173.25 108.2 C193.96 86.71, 212.79 64.3, 267.07 0.28 M173.25 108.2 C194.71 82.54, 218.38 57.67, 267.07 0.28 M183.88 108.17 C217.52 71.1, 247.83 35.06, 277.7 0.25 M183.88 108.17 C207.65 80.56, 230.55 53.67, 277.7 0.25 M194.51 108.14 C233.17 65.4, 267.36 24.22, 288.33 0.21 M194.51 108.14 C214.97 83.27, 236.66 57.34, 288.33 0.21 M205.14 108.1 C238.51 70.43, 268.6 35.43, 298.96 0.18 M205.14 108.1 C225.79 84.51, 247.05 59.52, 298.96 0.18 M215.77 108.07 C244.21 77.67, 272.32 45.99, 309.59 0.14 M215.77 108.07 C252.09 65.62, 290.02 23.3, 309.59 0.14 M226.4 108.03 C246.48 86.76, 267.74 65.17, 320.22 0.11 M226.4 108.03 C258.96 71.01, 289.87 32.5, 320.22 0.11 M237.03 108 C272.25 65.4, 311.58 23.69, 330.85 0.07 M237.03 108 C267.27 71.26, 298.55 35.13, 330.85 0.07 M247.66 107.96 C272.88 76.14, 300.32 45.19, 341.48 0.04 M247.66 107.96 C270.19 81.07, 294.5 55.44, 341.48 0.04 M258.29 107.93 C283.43 76.65, 310.78 49.03, 352.11 0 M258.29 107.93 C294.22 67.03, 329.01 27.29, 352.11 0 M268.92 107.89 C304.11 65.17, 341.27 25.99, 362.74 -0.03 M268.92 107.89 C306 63.36, 343.44 21.86, 362.74 -0.03 M279.55 107.86 C309.09 72.42, 335.65 41.4, 373.37 -0.06 M279.55 107.86 C313.94 69.67, 346.97 29.48, 373.37 -0.06 M290.18 107.82 C320.03 78.05, 344.02 46.18, 383.34 0.66 M290.18 107.82 C315.19 79.3, 337.98 51.42, 383.34 0.66 M300.81 107.79 C332.32 72.25, 361.81 39.21, 393.97 0.62 M300.81 107.79 C323.17 80.25, 345.46 56.39, 393.97 0.62 M311.44 107.76 C337.24 75.1, 366.05 42.98, 404.6 0.59 M311.44 107.76 C343.75 71.88, 373.34 36.23, 404.6 0.59 M321.42 108.48 C353.66 71.51, 385.76 35.26, 415.23 0.55 M321.42 108.48 C347.29 76.69, 373.38 45.81, 415.23 0.55 M332.05 108.44 C362.48 74.33, 390.35 45.12, 425.86 0.52 M332.05 108.44 C359.65 73.98, 387.95 42.1, 425.86 0.52 M342.68 108.41 C368.15 74.52, 397.05 41.8, 436.49 0.48 M342.68 108.41 C368.31 77.3, 392.88 48.22, 436.49 0.48 M353.31 108.37 C375.93 83.95, 394.13 62.35, 447.12 0.45 M353.31 108.37 C380.93 75.54, 409.69 40.79, 447.12 0.45 M363.94 108.34 C386.61 80.1, 412.53 52.14, 457.75 0.41 M363.94 108.34 C395.57 72.72, 424.66 38.7, 457.75 0.41 M374.57 108.3 C393.74 83.6, 415.16 59.86, 468.38 0.38 M374.57 108.3 C399.56 78.67, 424.8 50.28, 468.38 0.38 M385.2 108.27 C408.01 80.52, 428.76 58.33, 479.01 0.35 M385.2 108.27 C408.79 82.84, 430.01 55.45, 479.01 0.35 M395.83 108.23 C422.2 75.34, 451.62 45.35, 489.64 0.31 M395.83 108.23 C427.17 70.77, 460.16 35.86, 489.64 0.31 M406.46 108.2 C442.36 69.52, 475.98 29.44, 500.27 0.28 M406.46 108.2 C441.61 68.81, 475.45 29.23, 500.27 0.28 M417.09 108.17 C445.3 75.02, 469.85 44.18, 510.9 0.24 M417.09 108.17 C442.45 79.57, 468.66 49.61, 510.9 0.24 M427.72 108.13 C455.98 73.72, 487.07 39.62, 521.53 0.21 M427.72 108.13 C460.2 72.5, 490.87 36.44, 521.53 0.21 M438.35 108.1 C461.91 82.02, 483.05 53.96, 532.16 0.17 M438.35 108.1 C464.37 77.36, 489.47 48.33, 532.16 0.17 M448.98 108.06 C477.62 74.32, 505.44 41.94, 542.79 0.14 M448.98 108.06 C477.99 73.28, 506.77 40.3, 542.79 0.14 M459.61 108.03 C489.51 75.66, 516.28 42.52, 553.42 0.1 M459.61 108.03 C488.94 72.79, 518.5 38.07, 553.42 0.1 M470.24 107.99 C495.11 79.28, 522.68 46.91, 564.05 0.07 M470.24 107.99 C505.85 64.77, 542.21 22.38, 564.05 0.07 M480.87 107.96 C514.96 68.34, 546.4 30.64, 574.68 0.04 M480.87 107.96 C502.64 83.62, 525.82 58.88, 574.68 0.04 M491.5 107.92 C519.32 72.93, 548.05 40.92, 585.31 0 M491.5 107.92 C524.73 69.89, 558.61 31.27, 585.31 0 M502.13 107.89 C539.71 64.15, 574.13 25.11, 595.94 -0.03 M502.13 107.89 C525.3 82.05, 546.86 55.41, 595.94 -0.03 M512.76 107.86 C531.91 88.01, 550.61 65.41, 606.57 -0.07 M512.76 107.86 C544.24 72.9, 574.67 39.82, 606.57 -0.07 M523.39 107.82 C542.75 84.66, 564.02 62.21, 616.55 0.65 M523.39 107.82 C558.46 65.06, 594.19 24.26, 616.55 0.65 M534.02 107.79 C562.89 74.7, 591.78 39.82, 627.18 0.62 M534.02 107.79 C564.73 74.29, 594.74 39.45, 627.18 0.62 M544.65 107.75 C571.91 79.59, 595.37 47.45, 637.81 0.58 M544.65 107.75 C575.69 73.26, 604.17 39.25, 637.81 0.58 M554.62 108.47 C584.31 74.8, 615.32 40.13, 648.44 0.55 M554.62 108.47 C579.91 80.21, 606.39 50.38, 648.44 0.55 M565.25 108.44 C587.58 83.73, 606.09 60.23, 659.07 0.51 M565.25 108.44 C597.37 73.54, 628.04 37.79, 659.07 0.51 M575.88 108.4 C596.3 83.54, 621.27 59.08, 669.7 0.48 M575.88 108.4 C600.23 78.88, 624.57 50.9, 669.7 0.48 M586.51 108.37 C620.39 69.18, 657.31 27.35, 680.33 0.44 M586.51 108.37 C612.92 77.14, 640.76 44.42, 680.33 0.44 M597.14 108.33 C618.45 87.72, 636.53 63.5, 690.96 0.41 M597.14 108.33 C619.99 81.58, 643.99 55.46, 690.96 0.41 M607.77 108.3 C632.94 77.55, 660.9 45.1, 701.59 0.38 M607.77 108.3 C639.78 72.79, 671.16 36.23, 701.59 0.38 M618.4 108.26 C648.94 70.57, 678.22 38, 712.22 0.34 M618.4 108.26 C647.53 73.84, 679.03 37.55, 712.22 0.34 M629.03 108.23 C657.67 74.8, 686.66 42.27, 722.85 0.31 M629.03 108.23 C663.04 69.44, 695.16 31.67, 722.85 0.31 M639.66 108.2 C660.73 86.05, 680.57 62.15, 733.48 0.27 M639.66 108.2 C667.88 76.8, 695.09 45.94, 733.48 0.27 M650.29 108.16 C677.01 77.98, 699.33 49.78, 744.11 0.24 M650.29 108.16 C678.67 75.3, 708.08 41.74, 744.11 0.24 M660.92 108.13 C699.93 63.78, 736.63 20.36, 754.74 0.2 M660.92 108.13 C686.4 80.5, 710.5 51.26, 754.74 0.2 M671.55 108.09 C690.76 83.63, 712.98 62.79, 765.37 0.17 M671.55 108.09 C701.56 72.38, 733.36 37.01, 765.37 0.17 M682.18 108.06 C719.48 66.49, 756.27 23.15, 776 0.13 M682.18 108.06 C709.77 75.25, 738 42.5, 776 0.13 M692.81 108.02 C710.86 86.16, 731.06 64.55, 786.63 0.1 M692.81 108.02 C711.96 85.37, 730.75 63.17, 786.63 0.1 M703.44 107.99 C722.12 87.75, 743.33 64.18, 797.26 0.07 M703.44 107.99 C733.46 73.1, 764.22 38.49, 797.26 0.07 M714.07 107.95 C747.84 69.57, 784.85 26.23, 807.89 0.03 M714.07 107.95 C744.56 73.23, 775.17 40.75, 807.89 0.03 M724.7 107.92 C742.56 85.5, 762.98 63.44, 818.52 0 M724.7 107.92 C746.41 84.7, 766.32 60.8, 818.52 0 M735.33 107.89 C760.08 78.31, 782.4 50.51, 829.15 -0.04 M735.33 107.89 C759.26 80.73, 782.19 53.79, 829.15 -0.04 M745.96 107.85 C769.67 79.95, 796.85 51.42, 839.78 -0.07 M745.96 107.85 C778.52 67.71, 813.8 29.31, 839.78 -0.07 M756.59 107.82 C779.48 82.16, 801.37 53.49, 849.75 0.65 M756.59 107.82 C779.16 81.38, 801.18 55.75, 849.75 0.65 M767.22 107.78 C786.31 85.17, 808.29 61.7, 860.38 0.61 M767.22 107.78 C792.05 80.41, 816.38 53.21, 860.38 0.61 M777.2 108.5 C808.8 69.8, 842.68 34.94, 871.01 0.58 M777.2 108.5 C806.55 75.54, 835.02 43.12, 871.01 0.58 M787.83 108.47 C810.64 85.33, 829.86 59.23, 881.64 0.54 M787.83 108.47 C817.48 73.52, 847.61 39.51, 881.64 0.54 M798.46 108.43 C816.29 83.66, 839.43 62.89, 892.27 0.51 M798.46 108.43 C826.56 77.22, 854.19 46.08, 892.27 0.51 M809.09 108.4 C844.03 69.06, 880.33 27.51, 902.9 0.48 M809.09 108.4 C833.84 81.16, 859.31 52.63, 902.9 0.48 M819.72 108.36 C850.85 70.9, 882.29 33.38, 913.53 0.44 M819.72 108.36 C844.19 78.06, 868.9 49.38, 913.53 0.44 M830.35 108.33 C856.96 77.05, 886.48 45.66, 924.16 0.41 M830.35 108.33 C863.54 70.65, 894.78 34.81, 924.16 0.41 M840.98 108.3 C863.85 81.56, 883.69 55.67, 934.79 0.37 M840.98 108.3 C869.7 73.99, 898.93 41.58, 934.79 0.37 M851.61 108.26 C885.58 70.4, 915.5 32.14, 945.42 0.34 M851.61 108.26 C883.54 73.82, 913.23 38.22, 945.42 0.34 M862.24 108.23 C888.65 79.03, 910.28 52.35, 956.05 0.3 M862.24 108.23 C890.55 76.03, 920.96 43.25, 956.05 0.3 M872.87 108.19 C895.3 84.43, 915.39 61.45, 966.69 0.27 M872.87 108.19 C898.98 77.41, 924.69 46.91, 966.69 0.27 M883.5 108.16 C900.3 87.41, 919.36 65.77, 977.32 0.23 M883.5 108.16 C919.86 67.13, 954.57 26.59, 977.32 0.23 M894.13 108.12 C927.18 67.67, 964.71 28.05, 987.95 0.2 M894.13 108.12 C912.64 86.31, 931.89 65.17, 987.95 0.2 M904.76 108.09 C929.96 76.74, 959.09 47.34, 998.58 0.16 M904.76 108.09 C925.37 84.32, 948.87 58.35, 998.58 0.16 M915.39 108.05 C946.9 70.3, 979.42 35.49, 1009.21 0.13 M915.39 108.05 C951.31 64.44, 988.17 21.28, 1009.21 0.13 M926.02 108.02 C957.59 68.2, 994.12 33.03, 1019.84 0.1 M926.02 108.02 C948.01 83.61, 970.95 58.86, 1019.84 0.1 M936.65 107.98 C958.27 83.24, 981.75 56.36, 1030.47 0.06 M936.65 107.98 C964.34 76.09, 991.49 44.31, 1030.47 0.06 M947.28 107.95 C977.39 72.56, 1004.57 38.74, 1041.1 0.03 M947.28 107.95 C976.99 75.06, 1007.1 40.97, 1041.1 0.03 M957.91 107.92 C984.16 79.09, 1011.58 48.45, 1051.73 -0.01 M957.91 107.92 C979.55 83.6, 999.18 61.55, 1051.73 -0.01 M968.54 107.88 C995.14 78.46, 1022.13 46.93, 1062.36 -0.04 M968.54 107.88 C993.83 80.1, 1017.63 51.79, 1062.36 -0.04 M979.17 107.85 C1004.05 81.25, 1027.75 52.58, 1072.99 -0.08 M979.17 107.85 C999.15 83.26, 1021.26 57.97, 1072.99 -0.08 M989.8 107.81 C1009.49 82.16, 1033.66 59.71, 1082.96 0.64 M989.8 107.81 C1011.53 81.92, 1036.16 54.51, 1082.96 0.64 M1000.43 107.78 C1026.15 81.41, 1050.97 52, 1093.59 0.61 M1000.43 107.78 C1030.74 75.46, 1060.03 42.95, 1093.59 0.61 M1010.4 108.5 C1044.71 71.99, 1076.26 35.29, 1104.22 0.57 M1010.4 108.5 C1037.08 77.2, 1064.65 45.99, 1104.22 0.57 M1021.03 108.46 C1051.31 72.99, 1083.2 35.94, 1114.85 0.54 M1021.03 108.46 C1052.3 72.78, 1084.07 37.25, 1114.85 0.54 M1031.66 108.43 C1055.87 81.37, 1081.81 53.05, 1125.48 0.51 M1031.66 108.43 C1051.84 86.07, 1070.14 64.53, 1125.48 0.51 M1042.29 108.39 C1066.21 80.69, 1088.22 56.8, 1136.11 0.47 M1042.29 108.39 C1071.19 75.21, 1099.97 42.95, 1136.11 0.47 M1052.92 108.36 C1075.5 82.18, 1097.84 59.68, 1146.74 0.44 M1052.92 108.36 C1074.1 84.37, 1095.29 59.58, 1146.74 0.44 M1063.55 108.33 C1092.87 78, 1117.97 47.31, 1157.37 0.4 M1063.55 108.33 C1094.93 70.73, 1127.14 33.73, 1157.37 0.4 M1074.18 108.29 C1108.23 66.97, 1142.21 30.57, 1168 0.37 M1074.18 108.29 C1112.02 66.14, 1148.12 21.81, 1168 0.37 M1084.81 108.26 C1115.91 74.25, 1145.18 36.46, 1178.63 0.33 M1084.81 108.26 C1112.33 78.38, 1138.37 48.21, 1178.63 0.33 M1095.44 108.22 C1131.41 66.97, 1165.26 25.27, 1189.26 0.3 M1095.44 108.22 C1131.16 66.18, 1169.01 23.19, 1189.26 0.3 M1106.07 108.19 C1136.89 74.37, 1166.08 40.35, 1199.89 0.26 M1106.07 108.19 C1130.05 80.26, 1152.96 53.05, 1199.89 0.26 M1116.7 108.15 C1141.93 81.65, 1164.82 52.26, 1210.52 0.23 M1116.7 108.15 C1144.86 77.29, 1170.11 45.81, 1210.52 0.23 M1127.33 108.12 C1164.09 67.4, 1198.27 26.69, 1221.15 0.2 M1127.33 108.12 C1160.7 70.49, 1193.21 32.99, 1221.15 0.2 M1137.96 108.08 C1172.17 64.89, 1213 21.56, 1231.78 0.16 M1137.96 108.08 C1173.36 67.79, 1207.72 27.01, 1231.78 0.16 M1148.59 108.05 C1183.04 73.41, 1213.62 36.9, 1242.41 0.13 M1148.59 108.05 C1178.62 72.96, 1209.49 38.31, 1242.41 0.13 M1159.23 108.02 C1179.32 84.11, 1202.08 58.94, 1253.04 0.09 M1159.23 108.02 C1195.68 66.54, 1231.07 26.75, 1253.04 0.09 M1169.86 107.98 C1208.76 66.51, 1242.92 24.33, 1263.67 0.06 M1169.86 107.98 C1196.98 76.32, 1225.59 46.89, 1263.67 0.06 M1180.49 107.95 C1198.51 86.26, 1221.37 60.07, 1274.3 0.02 M1180.49 107.95 C1201.58 85.57, 1221.35 61.86, 1274.3 0.02 M1191.12 107.91 C1210.75 83.54, 1233.72 57.33, 1284.93 -0.01 M1191.12 107.91 C1213.92 79.67, 1237.37 53.23, 1284.93 -0.01 M1201.75 107.88 C1229.34 79.02, 1253.54 48.39, 1295.56 -0.05 M1201.75 107.88 C1223.08 83.62, 1246.03 58.07, 1295.56 -0.05 M1212.38 107.84 C1241.64 72.71, 1275.4 34.6, 1305.54 0.67 M1212.38 107.84 C1243.42 72.39, 1274.15 36.87, 1305.54 0.67 M1223.01 107.81 C1253.16 69.79, 1284.05 33.6, 1316.17 0.64 M1223.01 107.81 C1260.86 65.78, 1295.91 24.2, 1316.17 0.64 M1233.64 107.77 C1255.08 79.05, 1279.84 54.29, 1326.8 0.6 M1233.64 107.77 C1270.15 69.24, 1302.89 29.69, 1326.8 0.6 M1243.61 108.49 C1280.31 69.17, 1317.45 25.87, 1337.43 0.57 M1243.61 108.49 C1268.74 79.41, 1294.91 50.65, 1337.43 0.57 M1254.24 108.46 C1285.21 74.38, 1313.67 40.79, 1348.06 0.54 M1254.24 108.46 C1285.68 70.64, 1316.99 36.13, 1348.06 0.54 M1264.87 108.42 C1285 84.58, 1303.28 65.62, 1358.69 0.5 M1264.87 108.42 C1288.61 80.28, 1312.96 54.98, 1358.69 0.5 M1275.5 108.39 C1307.73 68.7, 1343.28 33.11, 1369.32 0.47 M1275.5 108.39 C1303.19 75.56, 1330.68 44.39, 1369.32 0.47 M1286.13 108.36 C1313.39 81.27, 1337.45 51.6, 1379.95 0.43 M1286.13 108.36 C1318.31 71.68, 1349.96 33.59, 1379.95 0.43 M1296.76 108.32 C1332.19 69.92, 1367.94 27.1, 1390.58 0.4 M1296.76 108.32 C1319.28 82.87, 1341.48 55.81, 1390.58 0.4 M1307.39 108.29 C1329.17 84.18, 1347.33 59.1, 1401.21 0.36 M1307.39 108.29 C1341.95 69.42, 1375.47 28.56, 1401.21 0.36 M1318.02 108.25 C1346.45 76.68, 1372.93 46.67, 1411.84 0.33 M1318.02 108.25 C1342.75 79.26, 1366.67 50.33, 1411.84 0.33 M1328.65 108.22 C1363.99 67.69, 1401.02 27.33, 1420.5 2.56 M1328.65 108.22 C1364.07 69.95, 1398.04 29.18, 1420.5 2.56 M1339.28 108.18 C1367.71 74.09, 1400.21 38.4, 1427.19 7.05 M1339.28 108.18 C1358.1 86.63, 1376.4 66.21, 1427.19 7.05 M1349.91 108.15 C1374.34 77.69, 1400.95 48.35, 1431.92 13.81 M1349.91 108.15 C1383.58 70.84, 1415.31 33.18, 1431.92 13.81 M1360.54 108.11 C1383.26 80.52, 1409.57 52.76, 1434.02 23.59 M1360.54 108.11 C1389.57 73.87, 1416.85 41.56, 1434.02 23.59 M1371.17 108.08 C1394.69 79.38, 1418.67 50.83, 1434.81 34.87 M1371.17 108.08 C1390.67 84.86, 1410.75 62.75, 1434.81 34.87 M1381.8 108.05 C1401.71 87.97, 1419.16 64.12, 1434.94 46.91 M1381.8 108.05 C1396.67 91.8, 1410.96 75.34, 1434.94 46.91 M1392.43 108.01 C1410.05 87.87, 1427.56 69.08, 1435.07 58.95 M1392.43 108.01 C1408.65 88.66, 1426.79 69.57, 1435.07 58.95 M1403.06 107.98 C1413.99 97.98, 1422.93 85.45, 1435.21 71 M1403.06 107.98 C1409.37 100.96, 1417.14 92.15, 1435.21 71 M1414.35 107.19 C1418.11 100.44, 1421.66 97.48, 1434.03 84.55 M1414.35 107.19 C1422.05 99.16, 1429.8 90.54, 1434.03 84.55" stroke="#eebefa" stroke-width="1" fill="none"></path><path d="M26.88 0 C556.02 5.17, 1084.57 4.84, 1407.71 0 M26.88 0 C560.43 -1.58, 1093.53 -1.51, 1407.71 0 M1407.71 0 C1424.46 1.43, 1433.25 10.65, 1434.59 26.88 M1407.71 0 C1426.99 -1.68, 1433.67 8.86, 1434.59 26.88 M1434.59 26.88 C1433.18 38.52, 1436 50.78, 1434.59 80.65 M1434.59 26.88 C1434.36 46.77, 1434.88 66.32, 1434.59 80.65 M1434.59 80.65 C1433.19 97.64, 1426.68 106.3, 1407.71 107.53 M1434.59 80.65 C1435.73 97.34, 1424.11 106.32, 1407.71 107.53 M1407.71 107.53 C966.04 112.23, 525.3 113.13, 26.88 107.53 M1407.71 107.53 C953.9 103.91, 500.17 103.85, 26.88 107.53 M26.88 107.53 C8.59 108.55, -0.41 96.64, 0 80.65 M26.88 107.53 C8.75 109.58, 0.47 99.3, 0 80.65 M0 80.65 C0.55 63.66, 1.67 46.45, 0 26.88 M0 80.65 C-1.11 67.41, 0.52 52.61, 0 26.88 M0 26.88 C-1.13 9.29, 8.67 -0.39, 26.88 0 M0 26.88 C-0.33 8.88, 8.03 0.58, 26.88 0" stroke="#1e1e1e" stroke-width="2" fill="none"></path></g><g transform="translate(765.6243701778722 524.124562284871) rotate(0 37.52996826171875 12.5)"><text x="37.52996826171875" y="0" font-family="Virgil, Segoe UI Emoji" font-size="20px" fill="#1e1e1e" text-anchor="middle" style="white-space: pre;" direction="ltr" dominant-baseline="text-before-edge">Topic 3</text></g><g transform="translate(230.95397882397265 10) rotate(0 39.45996856689453 12.5)"><text x="0" y="0" font-family="Virgil, Segoe UI Emoji" font-size="20px" fill="#1e1e1e" text-anchor="start" style="white-space: pre;" direction="ltr" dominant-baseline="text-before-edge">Broker 1</text></g><g transform="translate(750.4917190831939 13.03823239917665) rotate(0 43.869964599609375 12.5)"><text x="0" y="0" font-family="Virgil, Segoe UI Emoji" font-size="20px" fill="#1e1e1e" text-anchor="start" style="white-space: pre;" direction="ltr" dominant-baseline="text-before-edge">Broker 2</text></g><g transform="translate(1334.137712510881 17.564494599381305) rotate(0 43.559967041015625 12.5)"><text x="0" y="0" font-family="Virgil, Segoe UI Emoji" font-size="20px" fill="#1e1e1e" text-anchor="start" style="white-space: pre;" direction="ltr" dominant-baseline="text-before-edge">Broker 3</text></g></svg>