<svg version="1.1" xmlns="http://www.w3.org/2000/svg" viewBox="0 0 1479.3274468869731 487.0611622093222" width="739.663723443" height="243.530581105">
  <defs>
    <style class="style-fonts">
      @font-face {
        font-family: "Virgil";
        src: url("https://excalidraw.com/Virgil.woff2");
      }
      @font-face {
        font-family: "Cascadia";
        src: url("https://excalidraw.com/Cascadia.woff2");
      }
      @font-face {
        font-family: "Assistant";
        src: url("https://excalidraw.com/Assistant-Regular.woff2");
      }
    </style>
  </defs>
  <rect x="0" y="0" width="1479.3274468869731" height="487.0611622093222" fill="#ffffff"></rect><g stroke-linecap="round" transform="translate(10 10) rotate(0 646.6872679783776 233.5305811046611)"><path d="M32 0 C440.15 0.98, 849.73 0.05, 1261.37 0 M32 0 C461.77 -1.17, 891.86 -1.11, 1261.37 0 M1261.37 0 C1282.58 0.12, 1293.2 9.78, 1293.37 32 M1261.37 0 C1281.17 -0.11, 1292.68 11.56, 1293.37 32 M1293.37 32 C1293.56 130.73, 1294.2 227.33, 1293.37 435.06 M1293.37 32 C1291.52 168.34, 1291.53 303.8, 1293.37 435.06 M1293.37 435.06 C1294.69 457.61, 1283.64 465.59, 1261.37 467.06 M1293.37 435.06 C1295.12 455.02, 1280.85 466.4, 1261.37 467.06 M1261.37 467.06 C899.41 469.25, 537.85 470.27, 32 467.06 M1261.37 467.06 C807.34 467.88, 352.57 467.49, 32 467.06 M32 467.06 C10.78 466.38, 1.78 454.53, 0 435.06 M32 467.06 C10.99 467.57, -1.22 455.25, 0 435.06 M0 435.06 C-0.91 286.46, -0.34 138.31, 0 32 M0 435.06 C1.27 297.18, 1.28 159.4, 0 32 M0 32 C-1.93 10.63, 12.44 -1.74, 32 0 M0 32 C1.36 9.19, 9.95 1.92, 32 0" stroke="#1e1e1e" stroke-width="1" fill="none"></path></g><g transform="translate(40.79066904542606 30.50492122376454) rotate(0 47.429962158203125 12.5)"><text x="0" y="0" font-family="Virgil, Segoe UI Emoji" font-size="20px" fill="#1e1e1e" text-anchor="start" style="white-space: pre;" direction="ltr" dominant-baseline="text-before-edge">Broker #1</text></g><g stroke-linecap="round" transform="translate(38.9765161124792 78.47179051507055) rotate(0 290.2894346788024 187.31545122796672)"><path d="M32 0 C184.89 1.14, 339.12 1.42, 548.58 0 M32 0 C152.94 -2.02, 274.78 -1.48, 548.58 0 M548.58 0 C568.02 1.61, 580.02 12.32, 580.58 32 M548.58 0 C569.71 0.17, 581.06 9.08, 580.58 32 M580.58 32 C580.92 118.13, 578.97 200.73, 580.58 342.63 M580.58 32 C581.54 103.77, 580.55 176.52, 580.58 342.63 M580.58 342.63 C579.48 362.58, 570.06 376.12, 548.58 374.63 M580.58 342.63 C581.63 364.81, 568.08 376.03, 548.58 374.63 M548.58 374.63 C442 373.68, 334.65 374.06, 32 374.63 M548.58 374.63 C413.47 375.71, 279.39 375.8, 32 374.63 M32 374.63 C12.31 375.07, 1.65 363.22, 0 342.63 M32 374.63 C11.45 372.88, -0.35 362.31, 0 342.63 M0 342.63 C0.35 260.14, 1.98 180.44, 0 32 M0 342.63 C0.37 225.71, -0.21 107.56, 0 32 M0 32 C1.96 11.62, 9.6 1.86, 32 0 M0 32 C-1.52 10.74, 12.59 -0.14, 32 0" stroke="#1e1e1e" stroke-width="1" fill="none"></path></g><g stroke-linecap="round" transform="translate(673.896755434037 74.41907272449703) rotate(0 290.2894346788024 187.31545122796672)"><path d="M32 0 C228.98 0.82, 425.01 -0.38, 548.58 0 M32 0 C166.15 -0.05, 299.7 0.19, 548.58 0 M548.58 0 C571.53 -0.59, 579.67 8.91, 580.58 32 M548.58 0 C568.48 0.69, 581.56 12.89, 580.58 32 M580.58 32 C582.03 136.26, 582.58 238.52, 580.58 342.63 M580.58 32 C581.8 127.87, 581.81 225.45, 580.58 342.63 M580.58 342.63 C579.24 365.39, 571.09 374, 548.58 374.63 M580.58 342.63 C578.35 361.74, 569.41 372.68, 548.58 374.63 M548.58 374.63 C438.29 373.29, 327.63 372.97, 32 374.63 M548.58 374.63 C413.19 373.84, 277.71 373.97, 32 374.63 M32 374.63 C9.62 374.08, -0.07 364.01, 0 342.63 M32 374.63 C11.19 373.17, 0.63 366.16, 0 342.63 M0 342.63 C-0.32 221.52, -0.41 100.18, 0 32 M0 342.63 C0.49 275.69, -0.1 208.99, 0 32 M0 32 C0.3 10.8, 9.16 1.97, 32 0 M0 32 C-0.37 8.48, 12.27 0.9, 32 0" stroke="#1e1e1e" stroke-width="1" fill="none"></path></g><g transform="translate(66.08062667489776 93.57586195221802) rotate(0 41.39996337890625 12.5)"><text x="0" y="0" font-family="Virgil, Segoe UI Emoji" font-size="20px" fill="#1e1e1e" text-anchor="start" style="white-space: pre;" direction="ltr" dominant-baseline="text-before-edge">Topic #1</text></g><g transform="translate(696.2644710382169 90.31306266584534) rotate(0 45.809959411621094 12.5)"><text x="0" y="0" font-family="Virgil, Segoe UI Emoji" font-size="20px" fill="#1e1e1e" text-anchor="start" style="white-space: pre;" direction="ltr" dominant-baseline="text-before-edge">Topic #2</text></g><g stroke-linecap="round" transform="translate(84.8712565950525 191.4818677142257) rotate(0 249.7331304645105 31.02784041509949)"><path d="M4.13 3.59 C4.13 3.59, 4.13 3.59, 4.13 3.59 M4.13 3.59 C4.13 3.59, 4.13 3.59, 4.13 3.59 M-0.07 14.52 C4.93 8.18, 8.38 7.22, 11.74 0.93 M-0.07 14.52 C4.15 9.48, 9.83 3.6, 11.74 0.93 M0.33 20.16 C5.45 16.28, 5.7 13.59, 17.38 0.54 M0.33 20.16 C4.85 14.37, 11.61 7.44, 17.38 0.54 M0.72 25.8 C7.87 14.78, 19.07 5.02, 23.03 0.14 M0.72 25.8 C9 17.04, 16.58 8.06, 23.03 0.14 M0.46 32.2 C5.35 25.86, 14.45 18.19, 28.01 0.5 M0.46 32.2 C7.84 23.94, 13.71 17.36, 28.01 0.5 M0.85 37.84 C9.27 27.82, 18.32 15.62, 33 0.86 M0.85 37.84 C10.88 26.8, 18.91 16.12, 33 0.86 M1.25 43.49 C8.11 35.05, 19.38 22.01, 38.64 0.47 M1.25 43.49 C11.87 31, 20.86 19.96, 38.64 0.47 M0.99 49.88 C10.05 39.94, 20.39 27.29, 43.63 0.83 M0.99 49.88 C12.58 35.97, 24.7 23.04, 43.63 0.83 M2.04 54.77 C16.28 40.05, 28.57 24.07, 49.27 0.43 M2.04 54.77 C14.94 39.98, 26.41 26.28, 49.27 0.43 M4.4 58.15 C21.08 38.75, 40.51 14.87, 54.26 0.79 M4.4 58.15 C15.61 44.78, 28.07 30.4, 54.26 0.79 M8.08 60.02 C30.22 38.01, 50.13 10.98, 59.9 0.4 M8.08 60.02 C22.89 41.31, 39.99 24.09, 59.9 0.4 M11.75 61.89 C29.81 41.93, 49.47 20.1, 64.89 0.76 M11.75 61.89 C30.64 39.38, 50.47 17.81, 64.89 0.76 M16.74 62.25 C38.55 40.34, 57.07 16.02, 70.53 0.36 M16.74 62.25 C35.43 39.73, 54.32 18.92, 70.53 0.36 M21.72 62.61 C36.16 43.37, 55.1 25.21, 75.52 0.72 M21.72 62.61 C35.13 48.63, 47.43 32.5, 75.52 0.72 M27.37 62.22 C47.06 42.02, 64.5 21.26, 81.16 0.33 M27.37 62.22 C48.15 37.66, 69.08 14.7, 81.16 0.33 M32.35 62.58 C54.09 40.13, 76.07 14.09, 86.15 0.69 M32.35 62.58 C51.53 41.69, 68.28 20.51, 86.15 0.69 M38 62.18 C48.8 47.9, 60.3 34.02, 91.79 0.29 M38 62.18 C50.21 48.23, 61.86 32.93, 91.79 0.29 M42.98 62.54 C55.24 46.86, 70.98 34.47, 96.78 0.66 M42.98 62.54 C62.36 41.36, 81.68 20.41, 96.78 0.66 M48.63 62.15 C71.17 37.25, 90.45 12.79, 102.42 0.26 M48.63 62.15 C68.99 39.33, 88.47 18.75, 102.42 0.26 M53.61 62.51 C72.82 40.44, 89.84 23.58, 107.41 0.62 M53.61 62.51 C65.89 46.95, 78.91 32.4, 107.41 0.62 M59.26 62.11 C78.16 41.36, 98.76 18.42, 113.05 0.23 M59.26 62.11 C74.66 44.1, 92.05 25.71, 113.05 0.23 M64.24 62.47 C83.41 39.87, 101.98 18.77, 118.04 0.59 M64.24 62.47 C84.95 38.79, 103.72 16.29, 118.04 0.59 M69.23 62.83 C89.29 36.89, 110.86 15.86, 123.68 0.19 M69.23 62.83 C91.83 38.39, 111.86 13.57, 123.68 0.19 M74.87 62.44 C96.43 40.78, 115.4 14.19, 128.67 0.55 M74.87 62.44 C95.44 37.01, 118.19 12.47, 128.67 0.55 M79.86 62.8 C92.33 48.01, 106.41 28.43, 133.66 0.91 M79.86 62.8 C95.54 44.8, 109.87 28.83, 133.66 0.91 M85.5 62.4 C106.47 36.47, 126.28 14.17, 139.3 0.52 M85.5 62.4 C106.58 38.47, 127.63 14.59, 139.3 0.52 M90.49 62.76 C102.28 49.87, 114.34 32.37, 144.29 0.88 M90.49 62.76 C110.83 38.51, 130.97 16.55, 144.29 0.88 M96.14 62.37 C111.47 41.92, 130.42 25.62, 149.93 0.48 M96.14 62.37 C110.61 45.12, 123.97 29.09, 149.93 0.48 M101.12 62.73 C118.92 42.95, 135.61 19.39, 154.92 0.84 M101.12 62.73 C122.33 40.15, 141.95 15.25, 154.92 0.84 M106.77 62.33 C123.75 45.88, 139.77 25.37, 160.56 0.45 M106.77 62.33 C127.89 37.52, 149.1 13.5, 160.56 0.45 M111.75 62.69 C132.1 42.31, 151.02 16.72, 165.55 0.81 M111.75 62.69 C124.29 49.17, 136.56 34.88, 165.55 0.81 M117.4 62.3 C138.03 39.13, 156.97 17.13, 171.19 0.41 M117.4 62.3 C137.81 39.22, 157.3 15.21, 171.19 0.41 M122.38 62.66 C136.84 47.22, 148.31 31.94, 176.18 0.77 M122.38 62.66 C139.77 42.7, 155.26 23.6, 176.18 0.77 M128.03 62.27 C150.85 37.05, 170.72 14.18, 181.82 0.38 M128.03 62.27 C142.06 45.73, 156.98 30.06, 181.82 0.38 M133.01 62.63 C149.3 44.83, 162.17 28.65, 186.81 0.74 M133.01 62.63 C144.64 48.06, 158.63 34.6, 186.81 0.74 M138.66 62.23 C153.44 44.4, 171.46 23.63, 192.45 0.34 M138.66 62.23 C156.69 41.39, 176.04 19.66, 192.45 0.34 M143.64 62.59 C163.47 40.36, 182.6 17.84, 197.44 0.7 M143.64 62.59 C158.05 45.76, 173.15 28.36, 197.44 0.7 M149.29 62.2 C164.34 42.88, 178.73 25.72, 203.08 0.31 M149.29 62.2 C170.52 38.39, 191.23 13.88, 203.08 0.31 M154.27 62.56 C167.72 46.95, 182.29 31.24, 208.07 0.67 M154.27 62.56 C173.76 39.74, 192.75 18.89, 208.07 0.67 M159.92 62.16 C181.77 39.94, 199.97 15.31, 213.71 0.28 M159.92 62.16 C178.94 41.1, 196.96 19.7, 213.71 0.28 M164.9 62.52 C184.84 39.76, 203.59 18.04, 218.7 0.64 M164.9 62.52 C176.56 48.76, 187.99 36.66, 218.7 0.64 M169.89 62.88 C183.07 44.85, 199.5 26.15, 224.34 0.24 M169.89 62.88 C182.92 47.82, 197.8 31.1, 224.34 0.24 M175.53 62.49 C194.45 37.88, 217.73 17.38, 229.33 0.6 M175.53 62.49 C190.08 47.93, 202.9 32.66, 229.33 0.6 M180.52 62.85 C199.69 41.41, 218.27 22.75, 234.32 0.96 M180.52 62.85 C201.8 39.52, 223.06 14.46, 234.32 0.96 M186.16 62.45 C196.79 47.53, 210.31 35.66, 239.96 0.57 M186.16 62.45 C202.24 43.01, 217.88 24.96, 239.96 0.57 M191.15 62.81 C208.63 41.18, 230.64 17.76, 244.95 0.93 M191.15 62.81 C204.99 47.3, 218.5 31.91, 244.95 0.93 M196.79 62.42 C212.29 44.28, 227.66 24.4, 250.59 0.53 M196.79 62.42 C211.26 46.3, 225.96 27.44, 250.59 0.53 M201.78 62.78 C212.61 48.05, 226.98 33.55, 255.58 0.89 M201.78 62.78 C213.99 50.42, 224.63 36.28, 255.58 0.89 M207.42 62.38 C220.42 47.93, 231.18 33.39, 261.22 0.5 M207.42 62.38 C223.72 45.23, 237.68 28.07, 261.22 0.5 M212.41 62.74 C226.74 49.26, 238.79 31.33, 266.21 0.86 M212.41 62.74 C226.26 46.95, 240.99 29.1, 266.21 0.86 M218.05 62.35 C233.83 41.11, 250.71 22.62, 271.85 0.46 M218.05 62.35 C233.73 44.2, 250.66 25.39, 271.85 0.46 M223.04 62.71 C243.95 39.17, 264.89 12.79, 276.84 0.82 M223.04 62.71 C237.54 46.07, 250.94 30.64, 276.84 0.82 M228.68 62.31 C246.04 41.23, 263.72 20.51, 282.48 0.43 M228.68 62.31 C247.2 40.91, 266.72 20.62, 282.48 0.43 M233.67 62.68 C248.81 41.49, 269.25 22.19, 287.47 0.79 M233.67 62.68 C249.2 45, 264.62 28.17, 287.47 0.79 M239.31 62.28 C256.66 44.52, 271.57 26.44, 293.11 0.39 M239.31 62.28 C254.13 44.03, 269.33 27.54, 293.11 0.39 M244.3 62.64 C261.51 42.77, 278.77 26, 298.1 0.75 M244.3 62.64 C257.36 45.92, 272.49 29.53, 298.1 0.75 M249.94 62.25 C261.22 47.75, 274.56 32.88, 303.74 0.36 M249.94 62.25 C260.82 48.59, 273.39 35.25, 303.74 0.36 M254.93 62.61 C272.64 46.08, 288.24 28.53, 308.73 0.72 M254.93 62.61 C276.23 37.94, 296.24 14.48, 308.73 0.72 M260.57 62.21 C278.61 41.85, 291.35 22.93, 314.37 0.33 M260.57 62.21 C275.63 43.87, 292.22 26.38, 314.37 0.33 M265.56 62.57 C282.9 42.49, 297.59 26.58, 319.36 0.69 M265.56 62.57 C281.08 47.14, 294.65 30.11, 319.36 0.69 M270.55 62.93 C285.34 42.47, 303.98 25.52, 325 0.29 M270.55 62.93 C287.54 45, 302.76 27.24, 325 0.29 M276.19 62.54 C297.84 41.75, 314.65 16.17, 329.99 0.65 M276.19 62.54 C296.02 39.26, 316.77 16.98, 329.99 0.65 M281.18 62.9 C293.82 51.06, 303.33 36.35, 334.97 1.01 M281.18 62.9 C296.5 46.86, 311.28 29.68, 334.97 1.01 M286.82 62.5 C298.67 48.52, 308.39 37.47, 340.62 0.62 M286.82 62.5 C307.92 37.36, 329.72 13.78, 340.62 0.62 M291.81 62.86 C312.21 38.63, 335.04 15.52, 345.6 0.98 M291.81 62.86 C307.01 43.84, 324.11 25.04, 345.6 0.98 M297.45 62.47 C310.21 48.7, 322.69 35.32, 351.25 0.58 M297.45 62.47 C314.98 43.44, 331.05 23.04, 351.25 0.58 M302.44 62.83 C320.21 40.55, 339.45 18.4, 356.23 0.94 M302.44 62.83 C319.71 43.41, 336.55 26.28, 356.23 0.94 M308.08 62.43 C320.92 47.79, 331.85 35.76, 361.88 0.55 M308.08 62.43 C323.51 42.66, 339.54 25.36, 361.88 0.55 M313.07 62.79 C330.57 43.88, 345.48 23.24, 366.86 0.91 M313.07 62.79 C326.29 47.07, 339.49 31.47, 366.86 0.91 M318.71 62.4 C333.36 43.12, 350.03 24.86, 372.51 0.51 M318.71 62.4 C328.54 48.54, 339.54 35.77, 372.51 0.51 M323.7 62.76 C339.94 41.72, 358.23 23.18, 377.49 0.87 M323.7 62.76 C341.51 42.82, 359.99 20.1, 377.49 0.87 M329.34 62.36 C349.73 37.03, 371.31 14.54, 383.14 0.48 M329.34 62.36 C344.76 44.28, 362.9 23.51, 383.14 0.48 M334.33 62.72 C350.82 41.64, 368.87 22.76, 388.12 0.84 M334.33 62.72 C348.4 47.93, 359.46 33.33, 388.12 0.84 M339.97 62.33 C353.09 47.37, 370.88 29.17, 393.77 0.44 M339.97 62.33 C358.34 41.71, 377.06 20.86, 393.77 0.44 M344.96 62.69 C358.84 47.78, 372.77 31.59, 398.75 0.8 M344.96 62.69 C357.58 48.31, 371.56 33.16, 398.75 0.8 M350.6 62.3 C364.89 48.61, 374.88 33.49, 404.4 0.41 M350.6 62.3 C364.83 45.78, 377.92 30.14, 404.4 0.41 M355.59 62.66 C375.29 40.18, 394.71 15.33, 409.39 0.77 M355.59 62.66 C371.22 45.06, 386.31 26.79, 409.39 0.77 M361.23 62.26 C378.23 42.01, 397.37 19.9, 415.03 0.37 M361.23 62.26 C377.06 44.7, 391.79 25.86, 415.03 0.37 M366.22 62.62 C388 37.34, 406.8 15.77, 420.02 0.73 M366.22 62.62 C386.82 40.76, 407.4 16.21, 420.02 0.73 M371.21 62.98 C383.51 48.97, 392.56 38.48, 425.66 0.34 M371.21 62.98 C387.7 44.4, 401.86 26.06, 425.66 0.34 M376.85 62.59 C396.77 39.43, 421.62 12.09, 430.65 0.7 M376.85 62.59 C393.67 43.87, 409.94 22.96, 430.65 0.7 M381.84 62.95 C392.71 47.99, 405.82 36.01, 435.63 1.06 M381.84 62.95 C401.2 40.51, 419.44 20.28, 435.63 1.06 M387.48 62.55 C398.23 48.72, 410.12 34.88, 441.28 0.67 M387.48 62.55 C396.89 51.05, 407.94 37.7, 441.28 0.67 M392.47 62.91 C406.55 46.5, 422.76 28.92, 446.26 1.03 M392.47 62.91 C405.75 47.9, 417.52 34.04, 446.26 1.03 M398.11 62.52 C413.88 43.67, 431.42 22.31, 451.91 0.63 M398.11 62.52 C415.67 42.06, 432.64 21.08, 451.91 0.63 M403.1 62.88 C417.44 45.08, 435.21 27.95, 456.89 0.99 M403.1 62.88 C418.75 42.98, 436.24 23.41, 456.89 0.99 M408.74 62.48 C419.36 51.07, 431.98 35.25, 462.54 0.6 M408.74 62.48 C422.72 45.69, 438.09 27.6, 462.54 0.6 M413.73 62.84 C429.58 46.62, 441.92 26.5, 467.52 0.96 M413.73 62.84 C426.56 50.01, 438.15 34.94, 467.52 0.96 M419.37 62.45 C434.18 48.46, 448.24 32.35, 473.17 0.56 M419.37 62.45 C430.87 47.05, 445.09 32.27, 473.17 0.56 M424.36 62.81 C438.8 47.31, 452.32 27.79, 478.15 0.92 M424.36 62.81 C437.93 46.41, 452.85 30.45, 478.15 0.92 M430 62.41 C445.24 45.98, 458.73 30.53, 483.8 0.53 M430 62.41 C443.96 46.25, 459.04 28.71, 483.8 0.53 M434.99 62.77 C455.31 39.64, 477.23 15.86, 488.78 0.89 M434.99 62.77 C451.88 44.14, 469.02 24.36, 488.78 0.89 M440.63 62.38 C459.6 42.46, 475.28 20.31, 492.46 2.76 M440.63 62.38 C453.46 46.74, 466.1 32.16, 492.46 2.76 M445.62 62.74 C462.01 41.66, 480.51 22.91, 496.13 4.63 M445.62 62.74 C463.28 41.89, 482.39 20.53, 496.13 4.63 M451.26 62.35 C461.28 49.46, 473.44 36.72, 498.5 8.01 M451.26 62.35 C466.1 43.45, 482.57 26.46, 498.5 8.01 M456.25 62.71 C464.99 52.78, 477.18 40.15, 498.89 13.65 M456.25 62.71 C465.78 51.55, 475.33 40.97, 498.89 13.65 M461.89 62.31 C473.5 49.06, 484.28 36.19, 499.28 19.29 M461.89 62.31 C472.96 51.11, 483.02 38.09, 499.28 19.29 M466.88 62.67 C476.36 53.36, 483.67 42.64, 499.02 25.69 M466.88 62.67 C478.52 49.71, 487.85 37.78, 499.02 25.69 M471.86 63.03 C482.7 52.02, 495.34 38.56, 499.42 31.33 M471.86 63.03 C480.14 52.8, 489.72 41.78, 499.42 31.33 M477.51 62.64 C486.08 54.33, 491.34 45.75, 499.16 37.73 M477.51 62.64 C485.21 52.03, 493.98 43.85, 499.16 37.73 M482.49 63 C485.86 57.47, 490.1 54.48, 499.55 43.37 M482.49 63 C488.26 57.06, 494.82 48.84, 499.55 43.37 M488.79 61.85 C491.71 58.94, 495.4 53.23, 499.29 49.77 M488.79 61.85 C493.06 56.88, 495.78 54, 499.29 49.77" stroke="#ffc9c9" stroke-width="0.5" fill="none"></path><path d="M15.51 0 C173.11 -1.28, 331.89 -1.99, 483.95 0 M15.51 0 C163.9 2.06, 312.44 1.95, 483.95 0 M483.95 0 C493.81 1.27, 498.68 3.18, 499.47 15.51 M483.95 0 C494.61 -1.96, 501.17 4.71, 499.47 15.51 M499.47 15.51 C499.25 27.75, 499.27 40.3, 499.47 46.54 M499.47 15.51 C499.12 22.57, 499.44 28.87, 499.47 46.54 M499.47 46.54 C501.06 55.42, 495.77 60.46, 483.95 62.06 M499.47 46.54 C499.15 57.73, 493.69 63.51, 483.95 62.06 M483.95 62.06 C327.89 60.68, 171.84 60.27, 15.51 62.06 M483.95 62.06 C338.93 62.2, 194.52 62.84, 15.51 62.06 M15.51 62.06 C3.58 60.13, 0.61 55.29, 0 46.54 M15.51 62.06 C4.36 61.91, -2.07 57.15, 0 46.54 M0 46.54 C2.05 37.96, 1.57 32.91, 0 15.51 M0 46.54 C1.18 36.93, 0.97 28.78, 0 15.51 M0 15.51 C0.16 5.16, 6.03 1.7, 15.51 0 M0 15.51 C0.02 5.44, 3.16 -1.03, 15.51 0" stroke="#1e1e1e" stroke-width="1" fill="none"></path></g><g stroke-linecap="round"><g transform="translate(166.5331039849866 189.70100199105764) rotate(0 -1.314844786264075 29.975132405843738)"><path d="M0.33 -0.1 C0.12 9.99, -0.94 49.74, -1.48 59.78 M-0.95 -1.2 C-1.2 9.15, -1.34 50.77, -1.83 61.23" stroke="#1e1e1e" stroke-width="1" fill="none"></path></g></g><mask></mask><g stroke-linecap="round"><g transform="translate(234.10449739444562 189.94372412865823) rotate(0 -1.314844786264075 29.975132405843738)"><path d="M0.14 0.05 C-0.25 9.97, -0.93 50.55, -1.56 60.7 M-1.25 -0.97 C-1.77 9.12, -1.94 48.95, -1.94 58.98" stroke="#1e1e1e" stroke-width="1" fill="none"></path></g></g><mask></mask><g stroke-linecap="round"><g transform="translate(302.7260803535205 189.65246104309358) rotate(0 -1.314844786264075 29.975132405843738)"><path d="M-0.19 1.1 C-1.01 10.92, -3.26 49.9, -3.78 59.57 M-1.74 0.63 C-2.32 10.56, -1.23 51.02, -1.67 60.9" stroke="#1e1e1e" stroke-width="1" fill="none"></path></g></g><mask></mask><g stroke-linecap="round"><g transform="translate(370.20757637766997 187.13095490234673) rotate(0 -1.314844786264075 29.975132405843738)"><path d="M-0.6 -1.18 C-1 8.7, -1.57 48.87, -1.73 59.19 M1.28 0.82 C0.75 10.83, -1.7 50.66, -2.21 60.33" stroke="#1e1e1e" stroke-width="1" fill="none"></path></g></g><mask></mask><g stroke-linecap="round"><g transform="translate(436.32429680088717 188.3043290470505) rotate(0 -1.314844786264075 29.975132405843738)"><path d="M-0.96 1.18 C-1.4 10.94, -3.22 49.03, -3.65 58.86 M0.73 0.76 C0.75 10.6, -1.16 49.69, -1.47 59.83" stroke="#1e1e1e" stroke-width="1" fill="none"></path></g></g><mask></mask><g stroke-linecap="round"><g transform="translate(506.7101018782405 189.61085203086986) rotate(0 -1.314844786264075 29.975132405843738)"><path d="M0.81 -0.13 C0.48 9.89, -0.84 50.59, -1.45 60.49 M-0.22 -1.25 C-0.65 8.38, -1.19 48.4, -1.78 58.65" stroke="#1e1e1e" stroke-width="1" fill="none"></path></g></g><mask></mask><g transform="translate(85.30399032217701 156.4137922122195) rotate(0 61.63994598388672 12.5)"><text x="0" y="0" font-family="Virgil, Segoe UI Emoji" font-size="20px" fill="#1e1e1e" text-anchor="start" style="white-space: pre;" direction="ltr" dominant-baseline="text-before-edge">partition #0</text></g><g stroke-linecap="round" transform="translate(79.07512119231194 316.7836466736094) rotate(0 249.73313046451057 31.02784041509949)"><path d="M4.13 3.59 C4.13 3.59, 4.13 3.59, 4.13 3.59 M4.13 3.59 C4.13 3.59, 4.13 3.59, 4.13 3.59 M3.21 10.74 C4.23 8.7, 7.05 6.77, 10.43 2.44 M3.21 10.74 C4.33 8.57, 6.71 6.79, 10.43 2.44 M2.29 17.89 C7.24 11.05, 12.22 4.67, 16.73 1.29 M2.29 17.89 C8.85 10.93, 13.63 4.45, 16.73 1.29 M2.69 23.54 C9.95 16.99, 16.17 5.86, 22.37 0.9 M2.69 23.54 C6.97 17.67, 12.36 12.09, 22.37 0.9 M3.08 29.18 C11.02 19.83, 16.47 14.86, 27.36 1.26 M3.08 29.18 C11.7 18.48, 19.83 9.32, 27.36 1.26 M2.82 35.58 C15.21 23.11, 28.16 8.51, 33 0.86 M2.82 35.58 C12.59 23.92, 22.58 11.16, 33 0.86 M3.22 41.22 C12.2 32.84, 16.87 24.15, 37.99 1.22 M3.22 41.22 C16.01 27.01, 27.54 12.31, 37.99 1.22 M2.96 47.62 C18.45 29.34, 29.98 12.77, 43.63 0.83 M2.96 47.62 C14.31 35.49, 23.47 23.41, 43.63 0.83 M2.04 54.77 C13.03 44.96, 21.9 31.84, 48.62 1.19 M2.04 54.77 C18.83 35.65, 36.24 14.68, 48.62 1.19 M4.4 58.15 C18.31 42.2, 28.19 28.53, 53.61 1.55 M4.4 58.15 C14.39 46.84, 24.81 33.41, 53.61 1.55 M8.08 60.02 C25.41 40.04, 43.73 19.92, 59.25 1.15 M8.08 60.02 C19.09 48.02, 28.73 36.55, 59.25 1.15 M11.75 61.89 C30.79 42.09, 49.19 18.92, 64.24 1.51 M11.75 61.89 C29.79 42.4, 46.72 22.05, 64.24 1.51 M14.77 64.51 C34.3 41.53, 51.55 20.3, 69.88 1.12 M14.77 64.51 C32.44 42.94, 51.25 22.76, 69.88 1.12 M20.41 64.12 C40.03 40.79, 61.93 19.85, 74.87 1.48 M20.41 64.12 C39.26 43.18, 57.68 20.9, 74.87 1.48 M25.4 64.48 C46.23 41.09, 67.35 15.06, 80.51 1.08 M25.4 64.48 C39.45 47.61, 55.46 29.73, 80.51 1.08 M31.04 64.09 C44.57 51.67, 55.33 33.91, 85.5 1.44 M31.04 64.09 C44.44 48.55, 58.26 33.02, 85.5 1.44 M36.03 64.45 C53.01 44.68, 70.29 23.14, 91.14 1.05 M36.03 64.45 C48.65 50.8, 59.24 37.78, 91.14 1.05 M41.67 64.05 C60.01 43.36, 76.97 21.39, 96.13 1.41 M41.67 64.05 C58.2 43.54, 75.61 25.4, 96.13 1.41 M46.66 64.41 C69.25 42, 89.46 16.54, 101.77 1.02 M46.66 64.41 C67.69 40.79, 87.84 18.07, 101.77 1.02 M51.65 64.77 C70.37 41.7, 89.19 23.76, 106.76 1.38 M51.65 64.77 C64.52 48.73, 79.93 33.21, 106.76 1.38 M57.29 64.38 C72.72 45.5, 90.44 29.32, 112.4 0.98 M57.29 64.38 C73.17 47.93, 86.54 31.02, 112.4 0.98 M62.28 64.74 C80.4 45.73, 94.55 28.69, 117.39 1.34 M62.28 64.74 C73.88 49.22, 88.27 34.14, 117.39 1.34 M67.92 64.34 C90.9 39.48, 112.04 14.57, 123.03 0.95 M67.92 64.34 C80.53 48.76, 94.56 32.95, 123.03 0.95 M72.91 64.7 C91.76 41.75, 111.66 23.46, 128.02 1.31 M72.91 64.7 C89.67 46.67, 105.3 28.79, 128.02 1.31 M78.55 64.31 C95.64 45.93, 107.73 30.98, 133.66 0.91 M78.55 64.31 C94.93 44.96, 111.97 27.09, 133.66 0.91 M83.54 64.67 C97.99 48.98, 111.17 35.11, 138.65 1.27 M83.54 64.67 C99.45 44.98, 115.76 25.35, 138.65 1.27 M89.18 64.27 C111.32 39.07, 130.02 16.01, 144.29 0.88 M89.18 64.27 C105.27 46.48, 122.62 26.09, 144.29 0.88 M94.17 64.63 C117.09 41.37, 135.66 16.61, 149.28 1.24 M94.17 64.63 C105.11 50.26, 117.78 36.66, 149.28 1.24 M99.81 64.24 C112.97 51.22, 121.25 38, 154.26 1.6 M99.81 64.24 C118.99 41.55, 138.8 18.86, 154.26 1.6 M104.8 64.6 C117.67 47.22, 133.62 31.9, 159.91 1.2 M104.8 64.6 C116.28 50.4, 129.39 37.1, 159.91 1.2 M110.44 64.2 C123.59 46.25, 141.57 30.25, 164.89 1.56 M110.44 64.2 C124.81 48.65, 139.89 31.51, 164.89 1.56 M115.43 64.56 C135.87 40.19, 154.59 20.11, 170.54 1.17 M115.43 64.56 C136.82 39.78, 156.92 16.63, 170.54 1.17 M121.07 64.17 C138.15 44.6, 157.15 22.93, 175.52 1.53 M121.07 64.17 C134.08 48.61, 148.18 34.56, 175.52 1.53 M126.06 64.53 C136.14 52.31, 151.71 35.36, 181.17 1.13 M126.06 64.53 C147.1 38.82, 168.25 15.06, 181.17 1.13 M131.7 64.13 C145.8 50.52, 158.93 35, 186.15 1.49 M131.7 64.13 C151.2 39.29, 173.39 16.37, 186.15 1.49 M136.69 64.49 C147.21 51.83, 160.93 38.51, 191.8 1.1 M136.69 64.49 C149.74 49.92, 161.66 35.95, 191.8 1.1 M142.33 64.1 C163.49 40.55, 184.74 13.4, 196.78 1.46 M142.33 64.1 C154.89 50.16, 165.9 36.92, 196.78 1.46 M147.32 64.46 C167.2 40.06, 187.93 14.04, 202.43 1.06 M147.32 64.46 C165.97 44.86, 183.13 25.27, 202.43 1.06 M152.3 64.82 C170.98 44.27, 191.34 21.74, 207.41 1.42 M152.3 64.82 C172.86 41.78, 192.89 18.91, 207.41 1.42 M157.95 64.43 C169.38 50.57, 178.89 37.99, 213.06 1.03 M157.95 64.43 C175.61 42.98, 194.32 23.74, 213.06 1.03 M162.93 64.79 C175.78 52.37, 189.56 37.3, 218.04 1.39 M162.93 64.79 C177.63 48.71, 191.27 31.52, 218.04 1.39 M168.58 64.39 C188.54 38.34, 210.06 16.93, 223.69 1 M168.58 64.39 C190.36 39.87, 211.84 15.4, 223.69 1 M173.56 64.75 C184.78 51.35, 196.9 37.35, 228.67 1.36 M173.56 64.75 C186.74 49.18, 200.46 34.98, 228.67 1.36 M179.21 64.36 C196.02 47.14, 211.5 24.22, 234.32 0.96 M179.21 64.36 C195.11 45.16, 212.6 26.11, 234.32 0.96 M184.19 64.72 C204.17 41.1, 221.29 18.78, 239.3 1.32 M184.19 64.72 C198.15 48, 211.25 32.03, 239.3 1.32 M189.84 64.32 C208.2 44.33, 227.82 22.62, 244.95 0.93 M189.84 64.32 C207.34 43.8, 225.21 24.13, 244.95 0.93 M194.82 64.68 C211.78 43.62, 230.66 27.15, 249.93 1.29 M194.82 64.68 C213.11 43.73, 230.81 23.63, 249.93 1.29 M200.47 64.29 C220.6 40.33, 239.87 17.52, 254.92 1.65 M200.47 64.29 C218.25 44.36, 236.85 23.38, 254.92 1.65 M205.45 64.65 C217.42 48.31, 229.4 35.32, 260.56 1.25 M205.45 64.65 C224.37 41.02, 243.86 17.89, 260.56 1.25 M211.1 64.25 C223.21 48.71, 238.19 33.75, 265.55 1.61 M211.1 64.25 C227.72 46, 243.16 26.05, 265.55 1.61 M216.08 64.61 C228.61 50.84, 241.98 35.61, 271.19 1.22 M216.08 64.61 C229.92 46.69, 245.51 29.58, 271.19 1.22 M221.73 64.22 C242.5 41.42, 261.24 19.54, 276.18 1.58 M221.73 64.22 C233.99 48.46, 248.55 32.1, 276.18 1.58 M226.71 64.58 C245.22 41.02, 268.64 20.41, 281.82 1.18 M226.71 64.58 C240.07 48.29, 255.27 31.92, 281.82 1.18 M232.36 64.18 C243.25 49.41, 256.86 33.25, 286.81 1.54 M232.36 64.18 C245.48 48.15, 258.9 34.39, 286.81 1.54 M237.35 64.54 C252.05 46.06, 266.92 30.1, 292.45 1.15 M237.35 64.54 C257.34 40.92, 278.94 16.8, 292.45 1.15 M242.99 64.15 C258.22 43.44, 278.79 24.17, 297.44 1.51 M242.99 64.15 C252.95 51.64, 264.58 38.97, 297.44 1.51 M247.98 64.51 C258.16 51.23, 270.09 38.28, 303.08 1.11 M247.98 64.51 C266.73 43.53, 283.89 21.75, 303.08 1.11 M252.96 64.87 C270.04 45.69, 285.66 28.2, 308.07 1.47 M252.96 64.87 C272.09 44.24, 289.08 22.3, 308.07 1.47 M258.61 64.48 C280.77 39.9, 298.95 14.57, 313.71 1.08 M258.61 64.48 C274.55 45.69, 291.92 28.02, 313.71 1.08 M263.59 64.84 C276.91 51.85, 291.24 35.6, 318.7 1.44 M263.59 64.84 C277.9 48.06, 292.88 30.53, 318.7 1.44 M269.24 64.44 C285.93 44.86, 304.5 25.3, 324.34 1.05 M269.24 64.44 C284.11 48.16, 297.89 31.13, 324.34 1.05 M274.22 64.8 C290.93 44.47, 310.29 19.95, 329.33 1.41 M274.22 64.8 C289.88 47.04, 305.53 29.59, 329.33 1.41 M279.87 64.41 C295.76 46.32, 309.27 27.36, 334.97 1.01 M279.87 64.41 C297.2 43.66, 314.28 25.01, 334.97 1.01 M284.85 64.77 C305.77 40.57, 327.31 16.11, 339.96 1.37 M284.85 64.77 C305.31 42.13, 325.23 18.34, 339.96 1.37 M290.5 64.37 C305.97 42.33, 324.8 25.43, 345.6 0.98 M290.5 64.37 C301.4 51.67, 312.38 38.14, 345.6 0.98 M295.48 64.73 C318.59 39.72, 339.71 14.04, 350.59 1.34 M295.48 64.73 C311.87 46.06, 328.72 28.58, 350.59 1.34 M301.13 64.34 C320.25 41.75, 337.71 21.13, 355.58 1.7 M301.13 64.34 C316.59 45.85, 333.79 25.8, 355.58 1.7 M306.11 64.7 C321.42 47.33, 335.17 27.46, 361.22 1.3 M306.11 64.7 C325.64 42.67, 344.25 20.27, 361.22 1.3 M311.76 64.3 C329.9 44.29, 345.41 23.39, 366.21 1.66 M311.76 64.3 C324.26 49.43, 337.3 33.28, 366.21 1.66 M316.74 64.66 C338.06 42.41, 357.6 19.56, 371.85 1.27 M316.74 64.66 C330.35 48.75, 345.74 32.79, 371.85 1.27 M322.39 64.27 C338.23 47.59, 351.01 33.07, 376.84 1.63 M322.39 64.27 C340.19 42.26, 359.45 21.77, 376.84 1.63 M327.37 64.63 C339.4 50.37, 352.29 35.83, 382.48 1.23 M327.37 64.63 C348.58 40.64, 370.18 15.47, 382.48 1.23 M333.02 64.23 C354.83 41.33, 377.36 15.53, 387.47 1.59 M333.02 64.23 C352.87 42.19, 371.98 18.33, 387.47 1.59 M338 64.59 C353.05 48.83, 367.81 28.53, 393.11 1.2 M338 64.59 C359.57 40.05, 380.16 16.17, 393.11 1.2 M343.65 64.2 C355.34 50.11, 368.26 38.45, 398.1 1.56 M343.65 64.2 C358.89 44.54, 376.71 25.46, 398.1 1.56 M348.63 64.56 C368.56 42.65, 387.95 20.4, 403.74 1.16 M348.63 64.56 C365.12 43.15, 384.03 24.27, 403.74 1.16 M353.62 64.92 C366.04 49.61, 383.08 31.01, 408.73 1.52 M353.62 64.92 C364.81 49.91, 378.62 35.25, 408.73 1.52 M359.26 64.53 C371.63 49.69, 384.06 37.1, 414.37 1.13 M359.26 64.53 C380.08 41.9, 400.28 17.38, 414.37 1.13 M364.25 64.89 C379.33 46.53, 397.66 25.34, 419.36 1.49 M364.25 64.89 C379.26 47.91, 395.41 29.76, 419.36 1.49 M369.89 64.49 C388.67 44.48, 410.73 19.44, 425 1.1 M369.89 64.49 C386.2 45.18, 403.33 25.83, 425 1.1 M374.88 64.85 C395.08 41.96, 413.08 16.15, 429.99 1.46 M374.88 64.85 C388.1 51.6, 399.64 37.64, 429.99 1.46 M380.52 64.46 C401.99 39.5, 425.73 14.83, 435.63 1.06 M380.52 64.46 C391.84 50.99, 404.35 36.82, 435.63 1.06 M385.51 64.82 C401.64 45.84, 418.13 25.05, 440.62 1.42 M385.51 64.82 C402.24 46.13, 419.82 26.95, 440.62 1.42 M391.15 64.42 C409.84 40.81, 431.2 16.14, 446.26 1.03 M391.15 64.42 C413.83 39.36, 435.12 15.32, 446.26 1.03 M396.14 64.78 C409.57 50.37, 421.23 36.49, 451.25 1.39 M396.14 64.78 C407.32 51.4, 419.25 36.98, 451.25 1.39 M401.78 64.39 C420.17 43.94, 437.2 23.15, 456.24 1.75 M401.78 64.39 C413.56 51.62, 425.78 37.63, 456.24 1.75 M406.77 64.75 C423.33 46.34, 439.14 26.71, 461.88 1.35 M406.77 64.75 C424.75 44.83, 441.19 24.91, 461.88 1.35 M412.41 64.35 C426.87 48.57, 439.85 32.9, 466.87 1.71 M412.41 64.35 C428.92 45.15, 446.6 24, 466.87 1.71 M417.4 64.71 C433.78 46.34, 451.37 24.35, 472.51 1.32 M417.4 64.71 C439.43 40.79, 460.39 15.36, 472.51 1.32 M423.04 64.32 C437.39 46.07, 453.39 27.6, 477.5 1.68 M423.04 64.32 C444.17 40.98, 463.94 16.49, 477.5 1.68 M428.03 64.68 C443.27 45.55, 462.34 29.18, 483.14 1.28 M428.03 64.68 C445.51 44.12, 463.94 23.85, 483.14 1.28 M433.67 64.28 C444.94 52.11, 454.78 39.72, 488.78 0.89 M433.67 64.28 C452.92 40.7, 471.95 19.11, 488.78 0.89 M438.66 64.64 C455.59 43.01, 475.93 22.57, 492.46 2.76 M438.66 64.64 C451.65 50.23, 463.31 36.54, 492.46 2.76 M443.65 65 C458.91 45.28, 476.27 30.04, 496.13 4.63 M443.65 65 C454.79 52.04, 466.48 38.05, 496.13 4.63 M449.29 64.61 C467.69 42.54, 484.17 24.95, 498.5 8.01 M449.29 64.61 C462.44 50.67, 474.6 34.64, 498.5 8.01 M454.28 64.97 C464.13 54.09, 476.39 38.83, 500.86 11.39 M454.28 64.97 C465.57 52.11, 476.77 39.37, 500.86 11.39 M459.92 64.57 C474 49.38, 488.2 34.04, 501.25 17.03 M459.92 64.57 C471.52 52.19, 482.65 39.59, 501.25 17.03 M464.91 64.93 C471.57 55.07, 480.08 46.41, 501.65 22.67 M464.91 64.93 C477.04 51.18, 487.69 37.73, 501.65 22.67 M470.55 64.54 C479.62 52.96, 486.98 44.13, 501.39 29.07 M470.55 64.54 C481.56 52.58, 491.99 39.32, 501.39 29.07 M475.54 64.9 C485.93 55.02, 495.74 42.06, 501.78 34.71 M475.54 64.9 C482.38 58.91, 486.55 52.24, 501.78 34.71 M481.18 64.51 C484.23 59.58, 491.21 53.02, 501.52 41.11 M481.18 64.51 C487.03 58.63, 491.13 54.07, 501.52 41.11 M486.82 64.11 C491.3 58.72, 497.47 53.3, 501.91 46.75 M486.82 64.11 C492.21 57.45, 497.52 50.25, 501.91 46.75" stroke="#ffc9c9" stroke-width="0.5" fill="none"></path><path d="M15.51 0 C168.13 -2.38, 321.37 -1.39, 483.95 0 M15.51 0 C164.43 -0.96, 313.26 -0.76, 483.95 0 M483.95 0 C493.66 1.37, 500.51 6.48, 499.47 15.51 M483.95 0 C492.55 -1.15, 497.75 7.39, 499.47 15.51 M499.47 15.51 C498.6 22.75, 500.37 33.09, 499.47 46.54 M499.47 15.51 C499.98 24.77, 499.43 32.08, 499.47 46.54 M499.47 46.54 C500.69 55.62, 494.23 61.95, 483.95 62.06 M499.47 46.54 C499.97 55.78, 494.12 62.91, 483.95 62.06 M483.95 62.06 C382.3 62.6, 280.17 63.39, 15.51 62.06 M483.95 62.06 C368.21 62.16, 253.03 62.14, 15.51 62.06 M15.51 62.06 C3.32 61.53, 1.6 57.62, 0 46.54 M15.51 62.06 C5.91 63.87, -1.83 56.81, 0 46.54 M0 46.54 C-2.06 37.34, 1.7 28.12, 0 15.51 M0 46.54 C-0.54 38.41, -0.6 28.93, 0 15.51 M0 15.51 C0.38 4.89, 5.04 0.74, 15.51 0 M0 15.51 C2.01 4.1, 3.95 -2.04, 15.51 0" stroke="#1e1e1e" stroke-width="1" fill="none"></path></g><g stroke-linecap="round"><g transform="translate(165.32228172928126 319.19696938257493) rotate(0 -1.314844786264075 29.975132405843738)"><path d="M-0.56 0.14 C-1.06 10.23, -1.64 50.13, -1.88 60.16 M1.34 -0.82 C0.65 8.9, -1.81 48.31, -2.43 58.15" stroke="#1e1e1e" stroke-width="1" fill="none"></path></g></g><mask></mask><g stroke-linecap="round"><g transform="translate(232.8936751387405 319.43969152017553) rotate(0 -1.314844786264075 29.975132405843738)"><path d="M0.75 0.21 C0.51 10.25, -1.47 50.51, -1.98 60.35 M-0.32 -0.72 C-0.6 8.93, -2.16 48.28, -2.59 58.44" stroke="#1e1e1e" stroke-width="1" fill="none"></path></g></g><mask></mask><g stroke-linecap="round"><g transform="translate(301.51525809781515 319.1484284346111) rotate(0 -1.314844786264075 29.975132405843738)"><path d="M0.65 0.4 C0.14 10.25, -1.83 49.38, -2.3 59.28 M-0.47 -0.43 C-1.17 9.54, -2.7 50.22, -3.08 60.47" stroke="#1e1e1e" stroke-width="1" fill="none"></path></g></g><mask></mask><g stroke-linecap="round"><g transform="translate(368.99675412196484 316.626922293864) rotate(0 -1.314844786264075 29.975132405843738)"><path d="M0.33 -0.67 C-0.15 9.23, -1.67 49.57, -2.22 59.81 M-0.96 1.6 C-1.62 11.65, -2.45 51.73, -2.96 61.27" stroke="#1e1e1e" stroke-width="1" fill="none"></path></g></g><mask></mask><g stroke-linecap="round"><g transform="translate(435.1134745451818 317.8002964385678) rotate(0 -1.314844786264075 29.975132405843738)"><path d="M0.41 -0.14 C-0.15 10.1, -2.61 50.63, -3.01 60.77 M-0.84 -1.26 C-1.61 8.71, -3.89 49.07, -4.16 59.08" stroke="#1e1e1e" stroke-width="1" fill="none"></path></g></g><mask></mask><g stroke-linecap="round"><g transform="translate(505.49927962253514 319.10681942238716) rotate(0 -1.314844786264075 29.975132405843738)"><path d="M-0.38 0.82 C-0.78 10.97, -1.48 50.98, -2 60.73 M1.62 0.21 C1.08 10.03, -2.16 49, -2.62 59.02" stroke="#1e1e1e" stroke-width="1" fill="none"></path></g></g><mask></mask><g transform="translate(83.59385991978922 285.9097596037368) rotate(0 57.469947814941406 12.5)"><text x="0" y="0" font-family="Virgil, Segoe UI Emoji" font-size="20px" fill="#1e1e1e" text-anchor="start" style="white-space: pre;" direction="ltr" dominant-baseline="text-before-edge">partition #1</text></g><g stroke-linecap="round" transform="translate(709.717954057289 174.20620538840103) rotate(0 249.7331304645105 31.02784041509949)"><path d="M4.13 3.59 C4.13 3.59, 4.13 3.59, 4.13 3.59 M4.13 3.59 C4.13 3.59, 4.13 3.59, 4.13 3.59 M-0.07 14.52 C2.59 10.09, 5.76 7.14, 11.74 0.93 M-0.07 14.52 C3.52 9.93, 8.7 4.93, 11.74 0.93 M0.33 20.16 C5.7 15.23, 10.35 4.83, 17.38 0.54 M0.33 20.16 C4.98 15.21, 9.65 9.5, 17.38 0.54 M0.72 25.8 C4.83 17.97, 12.45 12.86, 23.03 0.14 M0.72 25.8 C7.84 17.7, 15.5 9.08, 23.03 0.14 M0.46 32.2 C12.93 19.51, 23.1 5.79, 28.01 0.5 M0.46 32.2 C9.57 23.4, 16.77 13.77, 28.01 0.5 M0.85 37.84 C13.44 23.7, 25.36 10.31, 33 0.86 M0.85 37.84 C7.52 30.59, 14.64 22.7, 33 0.86 M1.25 43.49 C10.49 35.21, 18.56 24.9, 38.64 0.47 M1.25 43.49 C11.01 34.07, 18.55 24.25, 38.64 0.47 M0.99 49.88 C11.64 36.3, 22.44 26.9, 43.63 0.83 M0.99 49.88 C15.55 33.35, 29.51 16.95, 43.63 0.83 M2.04 54.77 C18.48 35.9, 38.29 14.37, 49.27 0.43 M2.04 54.77 C16.26 37.22, 29.11 21.15, 49.27 0.43 M4.4 58.15 C13.72 43.7, 26.47 31.16, 54.26 0.79 M4.4 58.15 C19.03 39.54, 34.01 23.43, 54.26 0.79 M8.08 60.02 C20.28 44.64, 33.19 32.7, 59.9 0.4 M8.08 60.02 C26.18 38.28, 44.73 17.88, 59.9 0.4 M11.75 61.89 C23.88 49.76, 37.16 35.08, 64.89 0.76 M11.75 61.89 C28.85 40.7, 46.81 21.05, 64.89 0.76 M16.74 62.25 C29.59 47.54, 44.08 30.68, 70.53 0.36 M16.74 62.25 C33.28 43.65, 48.99 22.96, 70.53 0.36 M21.72 62.61 C41.17 39.8, 59.62 20.01, 75.52 0.72 M21.72 62.61 C38.78 43.42, 53.39 23.86, 75.52 0.72 M27.37 62.22 C45.3 42.53, 58.33 25.59, 81.16 0.33 M27.37 62.22 C47.36 41.86, 64.31 19.4, 81.16 0.33 M32.35 62.58 C48.03 43.7, 67.34 21.76, 86.15 0.69 M32.35 62.58 C53.35 37.65, 75.44 13.91, 86.15 0.69 M38 62.18 C55.34 43.86, 70.17 24.95, 91.79 0.29 M38 62.18 C53.7 43.53, 68.99 26.63, 91.79 0.29 M42.98 62.54 C61.86 39.05, 80.29 20.69, 96.78 0.66 M42.98 62.54 C64.79 37.95, 85.51 13.44, 96.78 0.66 M48.63 62.15 C62.09 48.92, 74.14 33.23, 102.42 0.26 M48.63 62.15 C60.54 48.41, 73.34 36.11, 102.42 0.26 M53.61 62.51 C67.69 42.91, 82.79 26.92, 107.41 0.62 M53.61 62.51 C73.42 39.69, 93.84 15.93, 107.41 0.62 M59.26 62.11 C77.22 45.74, 91.2 26.48, 113.05 0.23 M59.26 62.11 C74.84 44.84, 89.42 28.46, 113.05 0.23 M64.24 62.47 C82.92 39.37, 103.37 14.09, 118.04 0.59 M64.24 62.47 C78.02 46.32, 93.35 29.81, 118.04 0.59 M69.23 62.83 C87.41 40.47, 106.35 20.65, 123.68 0.19 M69.23 62.83 C83.21 46.5, 96.61 30.7, 123.68 0.19 M74.87 62.44 C87.79 47.96, 96.74 38.11, 128.67 0.55 M74.87 62.44 C84.83 49.07, 96.24 37.44, 128.67 0.55 M79.86 62.8 C93.75 47.9, 108.48 30.67, 133.66 0.91 M79.86 62.8 C91.52 48.76, 104.66 34.46, 133.66 0.91 M85.5 62.4 C102.24 45.33, 117.46 27.4, 139.3 0.52 M85.5 62.4 C99.47 45.87, 112.35 30.79, 139.3 0.52 M90.49 62.76 C102.84 47.32, 114.45 35.32, 144.29 0.88 M90.49 62.76 C105.85 44.1, 121.6 27.81, 144.29 0.88 M96.14 62.37 C110.02 46.89, 124.45 28.31, 149.93 0.48 M96.14 62.37 C113.54 43.2, 129.75 25.25, 149.93 0.48 M101.12 62.73 C110.66 51.49, 121.2 37.55, 154.92 0.84 M101.12 62.73 C122.24 38.16, 142.98 13.69, 154.92 0.84 M106.77 62.33 C130.28 38.97, 150.65 14.3, 160.56 0.45 M106.77 62.33 C121.33 45.21, 136.26 26.44, 160.56 0.45 M111.75 62.69 C123.05 50.85, 134.09 35.04, 165.55 0.81 M111.75 62.69 C131.53 40.47, 153.59 15.62, 165.55 0.81 M117.4 62.3 C137.04 40.84, 157.96 14.17, 171.19 0.41 M117.4 62.3 C139.28 38.48, 159.62 14.5, 171.19 0.41 M122.38 62.66 C142.47 42.85, 161.46 17.75, 176.18 0.77 M122.38 62.66 C140.31 42.98, 157.76 23.66, 176.18 0.77 M128.03 62.27 C148.95 40.17, 164.77 21.67, 181.82 0.38 M128.03 62.27 C143.05 44.41, 159.51 26.08, 181.82 0.38 M133.01 62.63 C150.25 43.61, 167.35 24.4, 186.81 0.74 M133.01 62.63 C151.3 40.54, 170.98 19.34, 186.81 0.74 M138.66 62.23 C153.03 44.77, 169.48 24.35, 192.45 0.34 M138.66 62.23 C154.98 44.22, 171.63 25.01, 192.45 0.34 M143.64 62.59 C157.59 46.47, 173.58 27.4, 197.44 0.7 M143.64 62.59 C157.68 46.5, 172.7 29.89, 197.44 0.7 M149.29 62.2 C163.16 44.41, 179.64 29.01, 203.08 0.31 M149.29 62.2 C169.11 39.71, 190.88 17, 203.08 0.31 M154.27 62.56 C166.85 47.03, 176.66 35.15, 208.07 0.67 M154.27 62.56 C170.1 44.33, 188.38 24.5, 208.07 0.67 M159.92 62.16 C179.4 41.99, 195.35 20.89, 213.71 0.28 M159.92 62.16 C177.89 40.63, 196.82 18.59, 213.71 0.28 M164.9 62.52 C179.2 46.85, 190.33 35.29, 218.7 0.64 M164.9 62.52 C185.34 39.87, 205.15 15.93, 218.7 0.64 M169.89 62.88 C179.83 48.48, 191.75 35.19, 224.34 0.24 M169.89 62.88 C185.76 45.03, 203 26.54, 224.34 0.24 M175.53 62.49 C198.02 39.57, 216.84 16.8, 229.33 0.6 M175.53 62.49 C188.65 48.36, 202.82 33.31, 229.33 0.6 M180.52 62.85 C196.91 45.27, 208.36 30.3, 234.32 0.96 M180.52 62.85 C201.04 39, 221.09 17.06, 234.32 0.96 M186.16 62.45 C209.24 39.36, 229.85 11.29, 239.96 0.57 M186.16 62.45 C202.23 43.5, 219.5 23.56, 239.96 0.57 M191.15 62.81 C206.02 42.85, 222.61 27.2, 244.95 0.93 M191.15 62.81 C210.18 40.46, 227.57 20.12, 244.95 0.93 M196.79 62.42 C210.2 44.11, 227.53 26.94, 250.59 0.53 M196.79 62.42 C209.43 47.56, 224.43 32.23, 250.59 0.53 M201.78 62.78 C220.57 40.42, 242.45 17.12, 255.58 0.89 M201.78 62.78 C216.7 45.71, 232.98 27.13, 255.58 0.89 M207.42 62.38 C219.84 47.09, 230.8 36.29, 261.22 0.5 M207.42 62.38 C218.56 50.53, 228.34 36.35, 261.22 0.5 M212.41 62.74 C231.68 39.29, 253.3 14.93, 266.21 0.86 M212.41 62.74 C228.26 44.54, 243.23 27.27, 266.21 0.86 M218.05 62.35 C236.54 43.13, 251.57 23.07, 271.85 0.46 M218.05 62.35 C235.63 40.44, 254.7 19.48, 271.85 0.46 M223.04 62.71 C237.62 47.51, 250.11 31.51, 276.84 0.82 M223.04 62.71 C240.19 42.21, 258.19 24.05, 276.84 0.82 M228.68 62.31 C242.47 43.58, 258.37 29.58, 282.48 0.43 M228.68 62.31 C246.31 42.25, 263.38 23.8, 282.48 0.43 M233.67 62.68 C253.31 39.67, 276.3 16.82, 287.47 0.79 M233.67 62.68 C245.02 50.81, 255.16 36.77, 287.47 0.79 M239.31 62.28 C251.48 47.13, 263.35 34.01, 293.11 0.39 M239.31 62.28 C251.46 47.77, 263.99 34.08, 293.11 0.39 M244.3 62.64 C265.76 39.64, 286.73 16.93, 298.1 0.75 M244.3 62.64 C255.71 49.69, 266.43 35.72, 298.1 0.75 M249.94 62.25 C262.77 48.61, 271.52 36.36, 303.74 0.36 M249.94 62.25 C259.41 49.86, 270.65 36.67, 303.74 0.36 M254.93 62.61 C273.09 42.33, 291.24 21.46, 308.73 0.72 M254.93 62.61 C269.17 46.82, 283.75 29.07, 308.73 0.72 M260.57 62.21 C272.17 46.95, 286.94 34.03, 314.37 0.33 M260.57 62.21 C275.14 45.32, 290.35 28.76, 314.37 0.33 M265.56 62.57 C284.88 40.89, 305.47 15.57, 319.36 0.69 M265.56 62.57 C283.98 39.71, 303.58 17.09, 319.36 0.69 M270.55 62.93 C290.27 39.47, 315 11.76, 325 0.29 M270.55 62.93 C287.4 42.78, 304.36 24, 325 0.29 M276.19 62.54 C285.21 50.07, 296.42 36.05, 329.99 0.65 M276.19 62.54 C296.41 40.25, 314.29 19.29, 329.99 0.65 M281.18 62.9 C295.15 49.47, 305.62 35.95, 334.97 1.01 M281.18 62.9 C292.98 50.46, 304.22 37.13, 334.97 1.01 M286.82 62.5 C303.15 47.27, 314.67 30.54, 340.62 0.62 M286.82 62.5 C304.94 42.75, 322.31 23.75, 340.62 0.62 M291.81 62.86 C305.68 43.71, 323.25 26.02, 345.6 0.98 M291.81 62.86 C313.17 39.18, 333.67 15.83, 345.6 0.98 M297.45 62.47 C318.6 36.19, 339.74 11.36, 351.25 0.58 M297.45 62.47 C310.22 47.58, 322.44 33.52, 351.25 0.58 M302.44 62.83 C312.15 47.35, 327.25 36.21, 356.23 0.94 M302.44 62.83 C315.49 48.89, 329.16 32.24, 356.23 0.94 M308.08 62.43 C323.53 46.82, 338.82 26.83, 361.88 0.55 M308.08 62.43 C324.08 44.59, 342.49 25.26, 361.88 0.55 M313.07 62.79 C328.54 47.11, 339.58 30.15, 366.86 0.91 M313.07 62.79 C328.4 46.06, 343.07 27.45, 366.86 0.91 M318.71 62.4 C332.39 47.82, 348.18 32.07, 372.51 0.51 M318.71 62.4 C339.06 38.26, 360.49 13.53, 372.51 0.51 M323.7 62.76 C338.43 44.14, 356.61 23.95, 377.49 0.87 M323.7 62.76 C337.73 47.6, 351.15 30.97, 377.49 0.87 M329.34 62.36 C347.41 44.67, 364.73 25.1, 383.14 0.48 M329.34 62.36 C341.59 47.13, 354.6 33.84, 383.14 0.48 M334.33 62.72 C355.02 38.85, 370.71 18.29, 388.12 0.84 M334.33 62.72 C353.09 40.44, 371.48 18.14, 388.12 0.84 M339.97 62.33 C354.27 49.18, 364.41 31.89, 393.77 0.44 M339.97 62.33 C351.36 48.46, 363.56 35.85, 393.77 0.44 M344.96 62.69 C362.91 39.46, 383.97 18.94, 398.75 0.8 M344.96 62.69 C357.18 47.26, 371.96 31.69, 398.75 0.8 M350.6 62.3 C366.99 43.4, 383.38 25.23, 404.4 0.41 M350.6 62.3 C369.44 42.13, 388.99 19.06, 404.4 0.41 M355.59 62.66 C373.54 40.11, 391.73 18.89, 409.39 0.77 M355.59 62.66 C367.69 46.72, 380.82 31.68, 409.39 0.77 M361.23 62.26 C374.44 45.22, 386.72 32.16, 415.03 0.37 M361.23 62.26 C379.38 41.41, 398.5 19.66, 415.03 0.37 M366.22 62.62 C378.75 50.34, 389.27 36.18, 420.02 0.73 M366.22 62.62 C385.26 41.74, 402.7 21.77, 420.02 0.73 M371.21 62.98 C380.38 51.68, 394.41 39.26, 425.66 0.34 M371.21 62.98 C389.43 41.28, 409.19 19.03, 425.66 0.34 M376.85 62.59 C392.51 44.86, 409.9 26.58, 430.65 0.7 M376.85 62.59 C394.43 43.67, 410.44 24.88, 430.65 0.7 M381.84 62.95 C399.64 40.88, 419.33 20.07, 435.63 1.06 M381.84 62.95 C402.13 38.56, 423.76 14.4, 435.63 1.06 M387.48 62.55 C404.65 40.36, 424.83 18.25, 441.28 0.67 M387.48 62.55 C403.46 45, 420.37 25.26, 441.28 0.67 M392.47 62.91 C411.45 39.34, 429.61 18.05, 446.26 1.03 M392.47 62.91 C408.6 45.09, 425.18 27.26, 446.26 1.03 M398.11 62.52 C419.12 38.31, 436.57 17.08, 451.91 0.63 M398.11 62.52 C409.76 48.62, 420.25 36.42, 451.91 0.63 M403.1 62.88 C419.84 45.83, 433.55 30.07, 456.89 0.99 M403.1 62.88 C415.39 49.15, 426.68 36.77, 456.89 0.99 M408.74 62.48 C421.51 47.29, 432.8 33.67, 462.54 0.6 M408.74 62.48 C422.73 46.9, 435.6 31.53, 462.54 0.6 M413.73 62.84 C425.35 48.59, 438.41 31.6, 467.52 0.96 M413.73 62.84 C428.73 44.89, 444.46 26.2, 467.52 0.96 M419.37 62.45 C428.53 48.25, 440.23 35.59, 473.17 0.56 M419.37 62.45 C434.66 45.43, 448.35 28.21, 473.17 0.56 M424.36 62.81 C438.09 47.56, 448.66 35.5, 478.15 0.92 M424.36 62.81 C444.26 38.76, 465.59 16.43, 478.15 0.92 M430 62.41 C445.26 46.69, 458.76 29, 483.8 0.53 M430 62.41 C451.8 37.58, 472.16 14.05, 483.8 0.53 M434.99 62.77 C450.11 44.31, 465.02 29.53, 488.78 0.89 M434.99 62.77 C454.79 40.16, 475.39 17.78, 488.78 0.89 M440.63 62.38 C463.12 37.11, 480.2 15.21, 492.46 2.76 M440.63 62.38 C460.1 40.96, 479.19 18.94, 492.46 2.76 M445.62 62.74 C454.38 50.68, 464.08 38.16, 496.13 4.63 M445.62 62.74 C464.15 40.32, 484.68 17.98, 496.13 4.63 M451.26 62.35 C460.98 49.57, 470.37 39.19, 498.5 8.01 M451.26 62.35 C461.38 49.93, 472.67 38.07, 498.5 8.01 M456.25 62.71 C471.49 47.79, 484.94 28.83, 498.89 13.65 M456.25 62.71 C465.2 50.26, 477.22 39.14, 498.89 13.65 M461.89 62.31 C476.38 44.7, 492.41 30.22, 499.28 19.29 M461.89 62.31 C470.79 51.21, 480.53 41.86, 499.28 19.29 M466.88 62.67 C479.1 49.64, 491.91 33.85, 499.02 25.69 M466.88 62.67 C480.33 48.79, 492.25 34.64, 499.02 25.69 M471.86 63.03 C479.71 54.34, 487.22 48.77, 499.42 31.33 M471.86 63.03 C481.38 51.64, 490.83 41.35, 499.42 31.33 M477.51 62.64 C484.06 54.6, 493.94 44.2, 499.16 37.73 M477.51 62.64 C485.82 53.23, 491.79 45.37, 499.16 37.73 M482.49 63 C490.17 57.96, 495.06 49.35, 499.55 43.37 M482.49 63 C489.12 55.73, 494.4 49.67, 499.55 43.37 M488.79 61.85 C490.89 58.98, 497.16 53.01, 499.29 49.77 M488.79 61.85 C491.97 58.64, 494.58 55.39, 499.29 49.77" stroke="#ffc9c9" stroke-width="0.5" fill="none"></path><path d="M15.51 0 C111.43 0.24, 208.45 0.47, 483.95 0 M15.51 0 C116.89 0.85, 218.66 1.03, 483.95 0 M483.95 0 C495.05 0.97, 498.53 6.08, 499.47 15.51 M483.95 0 C494.66 -2.27, 498.97 4.87, 499.47 15.51 M499.47 15.51 C499.32 28.52, 500.01 39.1, 499.47 46.54 M499.47 15.51 C499.71 22.7, 498.88 32.34, 499.47 46.54 M499.47 46.54 C498.55 58.45, 495.38 61.83, 483.95 62.06 M499.47 46.54 C497.71 55, 494.07 60.45, 483.95 62.06 M483.95 62.06 C380.62 60.21, 275.11 60.79, 15.51 62.06 M483.95 62.06 C389.37 64.12, 293.97 64.13, 15.51 62.06 M15.51 62.06 C7.07 62.58, 0.43 58.75, 0 46.54 M15.51 62.06 C3.21 62.55, 1.52 56.38, 0 46.54 M0 46.54 C1.38 37.34, -1.83 30.54, 0 15.51 M0 46.54 C-0.37 37.44, -0.03 28.59, 0 15.51 M0 15.51 C-1.86 6.81, 4.06 -1.47, 15.51 0 M0 15.51 C-0.38 7.27, 4.41 1.42, 15.51 0" stroke="#1e1e1e" stroke-width="1" fill="none"></path></g><g stroke-linecap="round"><g transform="translate(795.9651145942585 176.61952809736658) rotate(0 -1.314844786264075 29.975132405843738)"><path d="M0.55 -0.51 C0.24 9.48, -1.24 48.96, -1.77 58.96 M-0.61 -1.82 C-1.02 8.38, -1.81 49.57, -2.26 59.97" stroke="#1e1e1e" stroke-width="1" fill="none"></path></g></g><mask></mask><g stroke-linecap="round"><g transform="translate(863.5365080037175 176.86225023496718) rotate(0 -1.314844786264075 29.975132405843738)"><path d="M0.86 -0.99 C0.34 9.01, -1.83 49.32, -2.59 59.51 M-0.14 1.1 C-0.87 11.31, -3.32 50.74, -3.52 60.81" stroke="#1e1e1e" stroke-width="1" fill="none"></path></g></g><mask></mask><g stroke-linecap="round"><g transform="translate(932.1580909627924 176.5709871494023) rotate(0 -1.314844786264075 29.975132405843738)"><path d="M0.04 -0.44 C-0.72 9.74, -3.06 49.95, -3.69 60.12 M-1.4 -1.72 C-1.87 8.77, -1.54 51.69, -1.53 61.75" stroke="#1e1e1e" stroke-width="1" fill="none"></path></g></g><mask></mask><g stroke-linecap="round"><g transform="translate(999.6395869869418 174.04948100865568) rotate(0 -1.314844786264075 29.975132405843738)"><path d="M-1.06 0.17 C-1.69 10.35, -3.53 50.56, -3.72 60.62 M0.58 -0.78 C0.31 9.09, -1.03 48.96, -1.58 58.84" stroke="#1e1e1e" stroke-width="1" fill="none"></path></g></g><mask></mask><g stroke-linecap="round"><g transform="translate(1065.7563074101593 175.22285515335943) rotate(0 -1.314844786264075 29.975132405843738)"><path d="M-1.09 0.67 C-1.27 10.73, -1.83 50.56, -2.18 60.53 M0.54 -0.03 C0.33 9.66, -2.09 48.97, -2.89 58.71" stroke="#1e1e1e" stroke-width="1" fill="none"></path></g></g><mask></mask><g stroke-linecap="round"><g transform="translate(1136.1421124875126 176.5293781371788) rotate(0 -1.314844786264075 29.975132405843738)"><path d="M0.45 0.58 C0.1 10.55, -2.71 50.8, -3.19 60.49 M-0.77 -0.16 C-1.24 9.4, -4.05 48.72, -4.44 58.66" stroke="#1e1e1e" stroke-width="1" fill="none"></path></g></g><mask></mask><g transform="translate(714.2366927847663 143.33231831852845) rotate(0 61.63994598388672 12.5)"><text x="0" y="0" font-family="Virgil, Segoe UI Emoji" font-size="20px" fill="#1e1e1e" text-anchor="start" style="white-space: pre;" direction="ltr" dominant-baseline="text-before-edge">partition #0</text></g><g stroke-linecap="round" transform="translate(723.3573882641679 314.6282998404297) rotate(0 243.56251395175843 31.289977192107813)"><path d="M4.16 3.62 C4.16 3.62, 4.16 3.62, 4.16 3.62 M4.16 3.62 C4.16 3.62, 4.16 3.62, 4.16 3.62 M-0.03 14.55 C2.65 9, 5.87 4.52, 11.78 0.96 M-0.03 14.55 C4.36 9.88, 7.94 6.37, 11.78 0.96 M0.36 20.19 C8.35 12.98, 12.22 6.93, 17.42 0.57 M0.36 20.19 C8.06 12.48, 13.95 4.97, 17.42 0.57 M0.76 25.83 C4.46 21.9, 11.15 13.7, 23.06 0.17 M0.76 25.83 C6.67 18.99, 11.79 14.25, 23.06 0.17 M0.49 32.23 C10.64 19.51, 21.09 8.8, 28.05 0.53 M0.49 32.23 C8.9 21.67, 18.49 11.32, 28.05 0.53 M0.89 37.87 C12.09 24.9, 27.73 9.47, 33.69 0.14 M0.89 37.87 C11.33 26.44, 20.38 14.13, 33.69 0.14 M0.63 44.27 C13.96 28.77, 29.62 9.39, 38.68 0.5 M0.63 44.27 C14.9 28.36, 27.12 12.77, 38.68 0.5 M1.02 49.91 C19.14 32.86, 34.68 13.98, 43.67 0.86 M1.02 49.91 C12.83 36.69, 25.46 22.77, 43.67 0.86 M2.07 54.8 C17.99 38.87, 30.87 20.81, 49.31 0.46 M2.07 54.8 C11.78 43.52, 23.46 30.47, 49.31 0.46 M3.78 58.94 C19.32 41.78, 37.08 22.66, 54.3 0.82 M3.78 58.94 C22.42 37.84, 40.95 16.97, 54.3 0.82 M7.45 60.81 C29.16 35.48, 49.07 12.48, 59.94 0.43 M7.45 60.81 C23.13 42.68, 37.53 25.66, 59.94 0.43 M11.79 61.92 C31.39 37.56, 52.41 16.39, 64.93 0.79 M11.79 61.92 C23.19 50.23, 33.62 36.58, 64.93 0.79 M16.12 63.04 C31.81 43.45, 48.11 23.11, 70.57 0.39 M16.12 63.04 C36.05 39.76, 56.96 15.09, 70.57 0.39 M21.76 62.64 C34.7 48.6, 44.27 32.93, 75.56 0.75 M21.76 62.64 C39.57 42.73, 55.18 23.54, 75.56 0.75 M26.75 63 C47.04 39.07, 65.65 16.97, 81.2 0.36 M26.75 63 C37.68 49.81, 48.71 37.05, 81.2 0.36 M32.39 62.61 C49.56 40.48, 68.97 20.98, 86.19 0.72 M32.39 62.61 C48.16 43.65, 63.51 26.71, 86.19 0.72 M37.38 62.97 C53.53 42.96, 71.54 24.41, 91.83 0.33 M37.38 62.97 C53.97 42.72, 71.76 22.3, 91.83 0.33 M43.02 62.57 C53.28 50.97, 68.37 36.57, 96.82 0.69 M43.02 62.57 C62.53 42.16, 80.13 19.96, 96.82 0.69 M48.01 62.93 C65.54 42.13, 86.62 19.25, 102.46 0.29 M48.01 62.93 C65.05 43.23, 83.34 22.18, 102.46 0.29 M53.65 62.54 C67.94 47.63, 82.24 29.61, 107.45 0.65 M53.65 62.54 C74.15 40.23, 93.81 17.37, 107.45 0.65 M58.64 62.9 C71.74 45.77, 90.74 27.87, 113.09 0.26 M58.64 62.9 C74.05 45.56, 88.5 26.99, 113.09 0.26 M64.28 62.5 C75.98 46.18, 92.78 32.56, 118.08 0.62 M64.28 62.5 C80.46 44.74, 94.35 28.46, 118.08 0.62 M69.27 62.86 C81.6 48.13, 93.78 34.37, 123.72 0.22 M69.27 62.86 C86.57 43.94, 103.88 23.46, 123.72 0.22 M74.91 62.47 C88.53 44.94, 99.97 33.46, 128.71 0.58 M74.91 62.47 C92.83 43.9, 109.24 24.22, 128.71 0.58 M79.9 62.83 C98.46 44.58, 113.92 21.28, 134.35 0.19 M79.9 62.83 C101.32 39.68, 123.33 14.45, 134.35 0.19 M85.54 62.43 C104.75 40.18, 126.24 15.54, 139.34 0.55 M85.54 62.43 C100.33 45.46, 115.19 26.45, 139.34 0.55 M90.53 62.79 C108.11 45.69, 124.19 24.85, 144.32 0.91 M90.53 62.79 C108.35 42.71, 128.05 20.65, 144.32 0.91 M96.17 62.4 C113.75 42.86, 132.73 22.78, 149.97 0.51 M96.17 62.4 C112.44 42.79, 131.09 22.72, 149.97 0.51 M101.16 62.76 C112.3 49.55, 123.48 36.82, 154.95 0.87 M101.16 62.76 C114.57 47.39, 128.74 32.36, 154.95 0.87 M106.14 63.12 C126.05 41.6, 142.13 21.13, 160.6 0.48 M106.14 63.12 C127.44 38.57, 149.18 12.5, 160.6 0.48 M111.79 62.72 C125.98 47.85, 140.34 28.23, 165.58 0.84 M111.79 62.72 C127.74 44.75, 143.17 27.94, 165.58 0.84 M116.77 63.08 C128.27 51.41, 137.29 37.78, 171.23 0.44 M116.77 63.08 C135.21 41.65, 152.71 23.26, 171.23 0.44 M122.42 62.69 C135.15 50.75, 144.65 34.79, 176.21 0.8 M122.42 62.69 C134.59 48.09, 145.86 35.05, 176.21 0.8 M127.4 63.05 C138.61 47.47, 149.47 35.63, 181.86 0.41 M127.4 63.05 C148.03 38.96, 168.87 15.26, 181.86 0.41 M133.05 62.66 C153.22 37.54, 176.34 13.48, 186.84 0.77 M133.05 62.66 C150.76 42.93, 168.76 23.31, 186.84 0.77 M138.03 63.02 C153.1 43.8, 168.11 26.93, 192.49 0.37 M138.03 63.02 C152.99 45.24, 169.8 26.82, 192.49 0.37 M143.68 62.62 C161.72 39.73, 182.73 16.31, 197.47 0.74 M143.68 62.62 C159.85 44.37, 174.55 25.58, 197.47 0.74 M148.66 62.98 C168.17 39.92, 189.46 14.73, 203.12 0.34 M148.66 62.98 C162.88 46.91, 178.23 29.39, 203.12 0.34 M154.31 62.59 C172.02 37.92, 195.69 16.55, 208.1 0.7 M154.31 62.59 C171.12 41.86, 190.1 22.8, 208.1 0.7 M159.29 62.95 C176.53 46.17, 189.51 26.67, 213.75 0.31 M159.29 62.95 C178.87 41.67, 197.41 18.69, 213.75 0.31 M164.94 62.55 C179.91 44.18, 196.26 24.96, 218.73 0.67 M164.94 62.55 C177.03 48.35, 188.99 34.76, 218.73 0.67 M169.92 62.91 C186.55 46.43, 200.09 28.15, 224.38 0.27 M169.92 62.91 C183.55 48.24, 195.3 35, 224.38 0.27 M175.57 62.52 C191.03 46.27, 204.52 28.95, 229.36 0.63 M175.57 62.52 C190.76 46.7, 206.07 28.84, 229.36 0.63 M180.55 62.88 C194.49 50.82, 205.53 33.09, 235.01 0.24 M180.55 62.88 C195.42 45.24, 211.5 27.4, 235.01 0.24 M186.2 62.48 C200.66 45.21, 213.73 30.8, 239.99 0.6 M186.2 62.48 C197.62 49.81, 209.08 36.16, 239.99 0.6 M191.18 62.84 C206.47 44.85, 221.1 27.77, 244.98 0.96 M191.18 62.84 C207.82 42.93, 224.67 24.89, 244.98 0.96 M196.83 62.45 C207.19 49, 222.63 33.11, 250.62 0.56 M196.83 62.45 C210.91 46.61, 224.24 31.62, 250.62 0.56 M201.81 62.81 C213.33 50.49, 224 36.56, 255.61 0.92 M201.81 62.81 C224.3 39.32, 244.12 13.53, 255.61 0.92 M206.8 63.17 C219.66 44.14, 235.17 30.06, 261.25 0.53 M206.8 63.17 C218.56 51.24, 230.12 38.45, 261.25 0.53 M212.44 62.77 C223.41 46.26, 236.34 33.39, 266.24 0.89 M212.44 62.77 C226.7 47.52, 240.45 30.43, 266.24 0.89 M217.43 63.13 C230.18 45.78, 245.37 30.75, 271.88 0.49 M217.43 63.13 C229.76 50.27, 239.88 36.92, 271.88 0.49 M223.07 62.74 C237.26 49.2, 249.49 32.6, 276.87 0.85 M223.07 62.74 C237.78 46.07, 252.63 27.31, 276.87 0.85 M228.06 63.1 C247.36 41.29, 269.51 16.74, 282.51 0.46 M228.06 63.1 C238.84 48.48, 252.5 35.95, 282.51 0.46 M233.71 62.71 C250.86 44.07, 271.3 21.14, 287.5 0.82 M233.71 62.71 C251.23 42.51, 269.29 24.55, 287.5 0.82 M238.69 63.07 C257.69 43.32, 274.19 21.35, 293.14 0.42 M238.69 63.07 C252.84 47.75, 266.58 32.18, 293.14 0.42 M244.34 62.67 C257.78 48.16, 272.1 32.54, 298.13 0.78 M244.34 62.67 C258.65 46.09, 272.05 30.71, 298.13 0.78 M249.32 63.03 C260.46 48.07, 272.07 38.17, 303.78 0.39 M249.32 63.03 C270.26 39.75, 291.25 16.56, 303.78 0.39 M254.97 62.64 C267.98 50.07, 278.45 36.22, 308.76 0.75 M254.97 62.64 C268.88 47.67, 281.49 32.17, 308.76 0.75 M259.95 63 C274 46.92, 288.14 28.75, 314.41 0.36 M259.95 63 C278.33 40.68, 295.63 20.08, 314.41 0.36 M265.6 62.6 C276.06 47.67, 289.15 32.47, 319.39 0.72 M265.6 62.6 C282.38 44.05, 300.15 24.09, 319.39 0.72 M270.58 62.96 C283.4 48.92, 291.84 39.09, 325.04 0.32 M270.58 62.96 C287.77 42.95, 305.19 23.39, 325.04 0.32 M276.23 62.57 C289.95 50.18, 299.93 34.67, 330.02 0.68 M276.23 62.57 C292.85 43.34, 310.01 23.87, 330.02 0.68 M281.21 62.93 C302.79 38.34, 324.72 14.13, 335.67 0.29 M281.21 62.93 C299.88 41.89, 318.15 19.02, 335.67 0.29 M286.86 62.53 C302.52 44.4, 320.56 22.64, 340.65 0.65 M286.86 62.53 C307.16 41.12, 326.05 18.51, 340.65 0.65 M291.84 62.89 C302.89 49.23, 316.71 36.63, 345.64 1.01 M291.84 62.89 C311.08 40.34, 327.8 20.3, 345.64 1.01 M297.49 62.5 C311.96 47.8, 326.98 28.95, 351.28 0.61 M297.49 62.5 C310.62 47.43, 323.16 32.74, 351.28 0.61 M302.47 62.86 C322.98 41.99, 338.37 21.41, 356.27 0.97 M302.47 62.86 C316 47.38, 329.43 30.42, 356.27 0.97 M307.46 63.22 C324.63 43.58, 339.37 28.21, 361.91 0.58 M307.46 63.22 C327.31 39.5, 348.58 15.59, 361.91 0.58 M313.1 62.82 C327.08 46.21, 341.9 33.03, 366.9 0.94 M313.1 62.82 C330.24 45.11, 346.38 26.57, 366.9 0.94 M318.09 63.18 C333.92 48, 345.14 30.81, 372.54 0.54 M318.09 63.18 C334.16 45.74, 348.83 28.59, 372.54 0.54 M323.73 62.79 C337.35 44.68, 355.29 28.77, 377.53 0.9 M323.73 62.79 C342.37 40.77, 360.69 20.07, 377.53 0.9 M328.72 63.15 C342.98 43.71, 359.28 25.71, 383.17 0.51 M328.72 63.15 C344.53 44.42, 359.82 27.08, 383.17 0.51 M334.36 62.75 C357.55 38.91, 376.99 14.64, 388.16 0.87 M334.36 62.75 C351.55 43.76, 368.03 24.92, 388.16 0.87 M339.35 63.12 C357.25 42.84, 370.32 25.35, 393.8 0.47 M339.35 63.12 C360.22 38.67, 383.09 12.95, 393.8 0.47 M344.99 62.72 C355.83 50.92, 366.64 35.23, 398.79 0.83 M344.99 62.72 C364.72 38.64, 385.62 16.44, 398.79 0.83 M349.98 63.08 C365.05 42.7, 384.11 24.58, 404.43 0.44 M349.98 63.08 C365.25 44.49, 379.61 28.51, 404.43 0.44 M355.62 62.69 C366.19 47.45, 379.15 35.64, 409.42 0.8 M355.62 62.69 C376.2 38.6, 397.58 13.83, 409.42 0.8 M360.61 63.05 C380.61 41.41, 398.78 20.35, 415.06 0.41 M360.61 63.05 C373.51 48.33, 386.03 33.39, 415.06 0.41 M366.25 62.65 C380.57 44.17, 397.43 28.31, 420.05 0.77 M366.25 62.65 C379.51 48.67, 392.25 32.65, 420.05 0.77 M371.24 63.01 C386.45 48.58, 400.19 30.89, 425.69 0.37 M371.24 63.01 C385.61 47.13, 400.95 31.25, 425.69 0.37 M376.88 62.62 C386.69 51.06, 399.76 37.65, 430.68 0.73 M376.88 62.62 C390.88 46.83, 407.22 29.19, 430.68 0.73 M381.87 62.98 C392.34 51.22, 406.8 36.51, 436.32 0.34 M381.87 62.98 C400.88 40.74, 420.75 19.16, 436.32 0.34 M387.51 62.58 C404.25 38.88, 427.05 17.03, 441.31 0.7 M387.51 62.58 C404.21 44.05, 420.51 24.37, 441.31 0.7 M392.5 62.94 C411 38.48, 434.1 17.27, 446.3 1.06 M392.5 62.94 C403.68 47.91, 416.02 34.76, 446.3 1.06 M398.14 62.55 C419.24 41.08, 437.78 17.31, 451.94 0.66 M398.14 62.55 C417.84 38.77, 440.35 14.73, 451.94 0.66 M403.13 62.91 C422.38 42.16, 439.32 21.79, 456.93 1.02 M403.13 62.91 C414.75 49.24, 425.89 37.91, 456.93 1.02 M408.12 63.27 C424.6 40.47, 445.53 23.01, 462.57 0.63 M408.12 63.27 C421.28 47.54, 435.83 32.01, 462.57 0.63 M413.76 62.87 C433.44 40.37, 448.9 21.68, 467.56 0.99 M413.76 62.87 C428 45.57, 443.39 28.9, 467.56 0.99 M418.75 63.23 C440.55 40.58, 460.83 17.33, 473.2 0.59 M418.75 63.23 C432.51 46.69, 445.32 31.64, 473.2 0.59 M424.39 62.84 C439.17 46, 458.09 25.39, 477.53 1.71 M424.39 62.84 C441.99 43.84, 458.51 22.94, 477.53 1.71 M429.38 63.2 C443.95 47.92, 455.52 32.78, 481.21 3.58 M429.38 63.2 C441.27 49.24, 455.51 33.64, 481.21 3.58 M435.02 62.8 C454.21 41.46, 473.98 20.94, 484.23 6.2 M435.02 62.8 C446.51 50.26, 457.3 37.29, 484.23 6.2 M440.01 63.16 C452.47 52.27, 459.22 40.38, 486.59 9.58 M440.01 63.16 C453.1 47.51, 466.79 31.32, 486.59 9.58 M445.65 62.77 C459.36 47.34, 472.22 30.72, 486.98 15.22 M445.65 62.77 C460.55 44.77, 475.89 28.6, 486.98 15.22 M450.64 63.13 C461.87 51.8, 472.49 40.38, 486.72 21.62 M450.64 63.13 C463.54 47.79, 476.57 32.31, 486.72 21.62 M456.28 62.74 C463.1 56.79, 467.59 47.92, 487.12 27.26 M456.28 62.74 C468.21 50.43, 478.08 37.43, 487.12 27.26 M461.27 63.1 C470.1 52.71, 480.57 39.36, 487.51 32.91 M461.27 63.1 C468.47 56.1, 475.2 47.27, 487.51 32.91 M466.91 62.7 C474.12 55.99, 479.96 49.14, 487.25 39.31 M466.91 62.7 C473.87 55.41, 478.51 49.14, 487.25 39.31 M471.9 63.06 C476.45 59.85, 481.59 55.12, 487.64 44.95 M471.9 63.06 C474.52 59.41, 479.25 56.32, 487.64 44.95 M478.2 61.91 C480.38 60.37, 482.43 57.32, 487.38 51.35 M478.2 61.91 C480.53 59.35, 482.99 56.56, 487.38 51.35" stroke="#ffc9c9" stroke-width="0.5" fill="none"></path><path d="M15.64 0 C120 -0.13, 226.87 -0.77, 471.48 0 M15.64 0 C112.45 -0.28, 209.56 -0.32, 471.48 0 M471.48 0 C483.55 1.45, 485.53 4.91, 487.13 15.64 M471.48 0 C480.48 -1.21, 486.83 7.19, 487.13 15.64 M487.13 15.64 C485.24 23.76, 485.03 35.25, 487.13 46.93 M487.13 15.64 C487.18 27.37, 488.1 40.4, 487.13 46.93 M487.13 46.93 C486.11 55.95, 481.57 64.44, 471.48 62.58 M487.13 46.93 C487.93 58.96, 484.12 62.91, 471.48 62.58 M471.48 62.58 C341.08 63.27, 212.5 64.07, 15.64 62.58 M471.48 62.58 C293.66 64.03, 116.53 64.05, 15.64 62.58 M15.64 62.58 C5.2 62.96, 1.86 58.61, 0 46.93 M15.64 62.58 C3.08 64.26, -0.98 58.55, 0 46.93 M0 46.93 C0.14 40.75, -0.13 30.79, 0 15.64 M0 46.93 C0.82 37.9, 1.25 28.01, 0 15.64 M0 15.64 C-1.23 4.08, 4.44 -1.85, 15.64 0 M0 15.64 C-1.59 3.52, 7 1.23, 15.64 0" stroke="#1e1e1e" stroke-width="1" fill="none"></path></g><g stroke-linecap="round"><g transform="translate(809.6045488011373 317.04162254939524) rotate(0 -1.314844786264075 29.975132405843738)"><path d="M-0.37 1.13 C-1 11.12, -3.61 49.07, -3.82 58.91 M1.63 0.68 C1.37 10.87, -1.15 49.74, -1.74 59.89" stroke="#1e1e1e" stroke-width="1" fill="none"></path></g></g><mask></mask><g stroke-linecap="round"><g transform="translate(877.1759422105963 317.28434468699584) rotate(0 -1.314844786264075 29.975132405843738)"><path d="M-1.19 -1.04 C-1.41 8.79, -1.31 49.96, -1.66 60.16 M0.38 1.02 C0.12 10.98, -1.3 48.05, -2.11 58.15" stroke="#1e1e1e" stroke-width="1" fill="none"></path></g></g><mask></mask><g stroke-linecap="round"><g transform="translate(945.7975251696712 316.9930816014314) rotate(0 -1.314844786264075 29.975132405843738)"><path d="M0.97 0.21 C0.61 10.42, -2.62 50.22, -3.32 60.2 M0.01 -0.72 C0.16 9.19, -0.25 47.84, -0.96 58.21" stroke="#1e1e1e" stroke-width="1" fill="none"></path></g></g><mask></mask><g stroke-linecap="round"><g transform="translate(1013.2790211938207 314.47157546068433) rotate(0 -1.314844786264075 29.975132405843738)"><path d="M-0.69 0.25 C-1.38 10.23, -3.06 50, -3.22 60.1 M1.15 -0.67 C0.77 9.51, -0.32 51.78, -0.82 61.71" stroke="#1e1e1e" stroke-width="1" fill="none"></path></g></g><mask></mask><g stroke-linecap="round"><g transform="translate(1079.395741617038 315.6449496053881) rotate(0 -1.314844786264075 29.975132405843738)"><path d="M-0.59 0.15 C-0.75 10.24, -1.15 50.88, -1.64 60.82 M1.29 -0.82 C1.12 8.92, -1.66 48.85, -2.07 59.15" stroke="#1e1e1e" stroke-width="1" fill="none"></path></g></g><mask></mask><g stroke-linecap="round"><g transform="translate(1149.7815466943914 316.95147258920747) rotate(0 -1.314844786264075 29.975132405843738)"><path d="M0.99 0.87 C0.49 10.81, -2.86 50.03, -3.59 59.77 M0.04 0.28 C-0.03 10.39, -1.22 51.2, -1.38 61.21" stroke="#1e1e1e" stroke-width="1" fill="none"></path></g></g><mask></mask><g transform="translate(727.8761269916452 283.7544127705571) rotate(0 57.469947814941406 12.5)"><text x="0" y="0" font-family="Virgil, Segoe UI Emoji" font-size="20px" fill="#1e1e1e" text-anchor="start" style="white-space: pre;" direction="ltr" dominant-baseline="text-before-edge">partition #1</text></g><g stroke-linecap="round"><g transform="translate(1332.3676956741233 209.20730692145708) rotate(0 -78.64935490494986 -0.012482703667160422)"><path d="M0.01 0.5 C-25.98 0.39, -130.38 0.74, -156.46 0.52 M-1.45 -0.29 C-27.47 -0.24, -131.08 -1.38, -156.97 -1.32" stroke="#1e1e1e" stroke-width="1" fill="none"></path></g><g transform="translate(1332.3676956741233 209.20730692145708) rotate(0 -78.64935490494986 -0.012482703667160422)"><path d="M-133.43 -9.75 C-138.49 -6.21, -144.36 -4.05, -156.97 -1.32 M-133.43 -9.75 C-139.03 -8.14, -145.07 -6.6, -156.97 -1.32" stroke="#1e1e1e" stroke-width="1" fill="none"></path></g><g transform="translate(1332.3676956741233 209.20730692145708) rotate(0 -78.64935490494986 -0.012482703667160422)"><path d="M-133.52 7.35 C-138.71 6.56, -144.57 4.39, -156.97 -1.32 M-133.52 7.35 C-139.21 4.96, -145.23 2.49, -156.97 -1.32" stroke="#1e1e1e" stroke-width="1" fill="none"></path></g></g><mask></mask><g transform="translate(1338.001555929192 192.16425551469206) rotate(0 61.039947509765625 12.5)"><text x="0" y="0" font-family="Virgil, Segoe UI Emoji" font-size="20px" fill="#1e1e1e" text-anchor="start" style="white-space: pre;" direction="ltr" dominant-baseline="text-before-edge">new message</text></g><g transform="translate(1347.2475518674419 326.77707913226664) rotate(0 61.039947509765625 12.5)"><text x="0" y="0" font-family="Virgil, Segoe UI Emoji" font-size="20px" fill="#1e1e1e" text-anchor="start" style="white-space: pre;" direction="ltr" dominant-baseline="text-before-edge">new message</text></g><g stroke-linecap="round"><g transform="translate(1341.7356048923205 340.1869649678638) rotate(0 -79.76447643254073 -0.3037457892319253)"><path d="M0.42 -1.08 C-26.23 -0.89, -132.79 0.21, -159.41 0.46 M-0.81 0.97 C-27.66 0.9, -133.78 -0.72, -160.3 -1.1" stroke="#1e1e1e" stroke-width="1" fill="none"></path></g><g transform="translate(1341.7356048923205 340.1869649678638) rotate(0 -79.76447643254073 -0.3037457892319253)"><path d="M-136.68 -9.3 C-146.58 -6.23, -151.06 -3.25, -160.3 -1.1 M-136.68 -9.3 C-145.35 -6.06, -155.48 -2.01, -160.3 -1.1" stroke="#1e1e1e" stroke-width="1" fill="none"></path></g><g transform="translate(1341.7356048923205 340.1869649678638) rotate(0 -79.76447643254073 -0.3037457892319253)"><path d="M-136.93 7.8 C-146.65 5.04, -151.04 2.18, -160.3 -1.1 M-136.93 7.8 C-145.37 4.38, -155.39 1.78, -160.3 -1.1" stroke="#1e1e1e" stroke-width="1" fill="none"></path></g></g><mask></mask><g transform="translate(94.00859567934322 207.4347630007337) rotate(0 31.809959411621094 12.5)"><text x="0" y="0" font-family="Virgil, Segoe UI Emoji" font-size="20px" fill="#1e1e1e" text-anchor="start" style="white-space: pre;" direction="ltr" dominant-baseline="text-before-edge">offset</text></g><g transform="translate(89.57736631081661 336.97128712703625) rotate(0 31.809959411621094 12.5)"><text x="0" y="0" font-family="Virgil, Segoe UI Emoji" font-size="20px" fill="#1e1e1e" text-anchor="start" style="white-space: pre;" direction="ltr" dominant-baseline="text-before-edge">offset</text></g><g transform="translate(718.7888491553035 193.4950911777987) rotate(0 31.809959411621094 12.5)"><text x="0" y="0" font-family="Virgil, Segoe UI Emoji" font-size="20px" fill="#1e1e1e" text-anchor="start" style="white-space: pre;" direction="ltr" dominant-baseline="text-before-edge">offset</text></g><g transform="translate(733.5766920995525 332.95185654624106) rotate(0 31.809959411621094 12.5)"><text x="0" y="0" font-family="Virgil, Segoe UI Emoji" font-size="20px" fill="#1e1e1e" text-anchor="start" style="white-space: pre;" direction="ltr" dominant-baseline="text-before-edge">offset</text></g></svg>